{
classes = (
{
code = "colon exclam period question semicolon quotedblleft quotedblright quoteleft quoteright questiondown exclamdown periodcentered ellipsis comma divide";
name = circular_punctuation;
},
{
code = "colon.ss01 exclam.ss01 period.ss01 question.ss01 semicolon.ss01 quotedblleft.ss01 quotedblright.ss01 quoteleft.ss01 quoteright.ss01 questiondown.ss01 exclamdown.ss01 periodcentered.ss01 ellipsis.ss01 comma.ss01 divide.ss01";
name = square_punctuation;
},
{
code = "a aacute abreve acircumflex adieresis agrave amacron aogonek aring atilde";
name = single_storey_a;
},
{
code = "a.ss02 aacute.ss02 abreve.ss02 acircumflex.ss02 adieresis.ss02 agrave.ss02 amacron.ss02 aogonek.ss02 aring.ss02 atilde.ss02";
name = double_storey_a;
}
);
copyright = "Copyright 2014-2022 Indian Type Foundry. All rights reserved.";
designer = "Jonny Pinhorn";
designerURL = "https://www.indiantypefoundry.com/designers";
familyName = Poppins;
customParameters = (
{
name = glyphOrder;
value = (
.notdef,
A,
Aacute,
Abreve,
Acircumflex,
Adieresis,
Agrave,
Amacron,
Aogonek,
Aring,
Atilde,
AE,
AEacute,
B,
C,
Cacute,
Ccaron,
Ccedilla,
Cdotaccent,
D,
Eth,
Dcaron,
Dcroat,
E,
Eacute,
Ebreve,
Ecaron,
Ecircumflex,
Edieresis,
Edotaccent,
Egrave,
Emacron,
Eogonek,
Etilde,
F,
G,
Gbreve,
Gcommaaccent,
Gdotaccent,
H,
I,
Iacute,
Ibreve,
Icircumflex,
Idieresis,
Idotaccent,
Igrave,
Imacron,
Iogonek,
Itilde,
J,
K,
Kcommaaccent,
L,
Lacute,
Lcaron,
Lcommaaccent,
Ldot,
Lslash,
M,
N,
Nacute,
Ncaron,
Ncommaaccent,
Ntilde,
O,
Oacute,
Obreve,
Ocircumflex,
Odieresis,
Ograve,
Ohungarumlaut,
Omacron,
Oslash,
Otilde,
OE,
P,
Thorn,
Q,
R,
Racute,
Rcaron,
Rcommaaccent,
S,
Sacute,
Scaron,
Scedilla,
Scommaaccent,
T,
Tcaron,
Tcedilla,
Tcommaaccent,
U,
Uacute,
Ubreve,
Ucircumflex,
Udieresis,
Ugrave,
Uhungarumlaut,
Umacron,
Uogonek,
Uring,
Utilde,
V,
W,
Wacute,
Wcircumflex,
Wdieresis,
Wgrave,
X,
Y,
Yacute,
Ycircumflex,
Ydieresis,
Ygrave,
Ytilde,
Z,
Zacute,
Zcaron,
Zdotaccent,
a,
aacute,
abreve,
acircumflex,
adieresis,

glyphs = (
{
glyphname = .notdef;
layers = (
{
layerId = "CB828171-4BC8-495A-B1C3-011CB1482BD7";
paths = (
{
closed = 1;
nodes = (
"-48 0 LINE",
"452 0 LINE",
"574 700 LINE",
"74 700 LINE"
);
},
{
closed = 1;
nodes = (
"271 395 LINE",
"145 650 LINE",
"485 650 LINE"
);
},
{
closed = 1;
nodes = (
"293 350 LINE",
"508 605 LINE",
"418 95 LINE"
);
},
{
closed = 1;
nodes = (
"41 50 LINE",
"255 305 LINE",
"381 50 LINE"
);
},
{
closed = 1;
nodes = (
"108 605 LINE",
"233 350 LINE",
"18 95 LINE"
);
}
);
width = 500;
},
{
layerId = "0C75E9AD-DE1E-462B-B5DF-43688A01D7EC";
paths = (
{
closed = 1;
nodes = (
"-48 0 LINE",
"452 0 LINE",
"574 700 LINE",
"74 700 LINE"
);
},
{
closed = 1;
nodes = (
"271 395 LINE",
"145 650 LINE",
"485 650 LINE"
);
},
{
closed = 1;
nodes = (
"293 350 LINE",
"508 605 LINE",
"418 95 LINE"
);
},
{
closed = 1;
nodes = (
"41 50 LINE",
"255 305 LINE",
"381 50 LINE"
);
},
{
closed = 1;
nodes = (
"108 605 LINE",
"233 350 LINE",
"18 95 LINE"
);
}
);
width = 500;
},
{
layerId = "2AA9BEE2-6224-4C6D-925B-2F440B8C2D06";
paths = (
{
closed = 1;
nodes = (
"-48 0 LINE",
"452 0 LINE",
"574 700 LINE",
"74 700 LINE"
);
},
{
closed = 1;
nodes = (
"271 395 LINE",
"145 650 LINE",
"485 650 LINE"
);
},
{
closed = 1;
nodes = (
"293 350 LINE",
"508 605 LINE",
"418 95 LINE"
);
},
{
closed = 1;
nodes = (
"41 50 LINE",
"255 305 LINE",
"381 50 LINE"
);
},
{
closed = 1;
nodes = (
"108 605 LINE",
"233 350 LINE",
"18 95 LINE"
);
}
);
width = 500;
}
);
},
{
glyphname = A;
layers = (
{
anchors = (
{
name = ogonek;
position = "{723, 0}";
},
{
name = top;
position = "{463, 711}";
}
);
layerId = "CB828171-4BC8-495A-B1C3-011CB1482BD7";
paths = (
{
closed = 1;
nodes = (
"334 708 LINE",
"-50 0 LINE",
"183 0 LINE",
"481 593 LINE",
"402 593 LINE",
"489 0 LINE",
"723 0 LINE",
"590 708 LINE"
);
},
{
closed = 1;
nodes = (
"83 107 LINE",
"603 107 LINE",
"578 274 LINE",
"169 274 LINE"
);
}
);
width = 773;
},
{
anchors = (
{
name = ogonek;
position = "{612, 0}";
},
{
name = top;
position = "{420, 696}";
}
);
layerId = "0C75E9AD-DE1E-462B-B5DF-43688A01D7EC";
paths = (
{
closed = 1;
nodes = (
"354 696 LINE",
"-18 0 LINE",
"101 0 LINE",
"435 634 LINE",
"382 634 LINE",
"492 0 LINE",
"612 0 LINE",
"486 696 LINE"
);
},
{
closed = 1;
nodes = (
"111 142 LINE",
"527 142 LINE",
"513 231 LINE",
"156 231 LINE"
);
}
);
width = 697;
},
{
anchors = (
{
name = ogonek;
position = "{523, 0}";
},
{
name = top;
position = "{374, 683}";
}
);
layerId = "2AA9BEE2-6224-4C6D-925B-2F440B8C2D06";
paths = (
{
closed = 1;
nodes = (
"364 683 LINE",
"-18 0 LINE",
"5 0 LINE",
"378 668 LINE",
"365 668 LINE",
"500 0 LINE",
"523 0 LINE",
"384 683 LINE"
);
},
{
closed = 1;
nodes = (
"104 194 LINE",
"471 194 LINE",
"467 212 LINE",
"113 212 LINE"
);
}
);
width = 601;
}
);
unicode = 0041;
},
{
glyphname = Aacute;
layers = (
{
layerId = "CB828171-4BC8-495A-B1C3-011CB1482BD7";
paths = (
{
closed = 1;
nodes = (
"334 708 LINE",
"-50 0 LINE",
"183 0 LINE",
"481 593 LINE",
"402 593 LINE",
"489 0 LINE",
"723 0 LINE",
"590 708 LINE"
);
},
{
closed = 1;
nodes = (
"83 107 LINE",
"603 107 LINE",
"578 274 LINE",
"169 274 LINE"
);
},
{
closed = 1;
nodes = (
"365 897 LINE",
"338 749 LINE",
"614 843 LINE",
"643 1007 LINE"
);
}
);
width = 773;
},
{
layerId = "0C75E9AD-DE1E-462B-B5DF-43688A01D7EC";
paths = (
{
closed = 1;
nodes = (
"354 696 LINE",
"-18 0 LINE",
"101 0 LINE",
"435 634 LINE",
"382 634 LINE",
"492 0 LINE",
"612 0 LINE",
"486 696 LINE"
);
},
{
closed = 1;
nodes = (
"111 142 LINE",
"527 142 LINE",
"513 231 LINE",
"156 231 LINE"
);
},
{
closed = 1;
nodes = (
"324 819 LINE",
"309 735 LINE",
"550 844 LINE",
"567 941 LINE"
);
}
);
width = 697;
},
{
layerId = "2AA9BEE2-6224-4C6D-925B-2F440B8C2D06";
paths = (
{
closed = 1;
nodes = (
"364 683 LINE",
"-18 0 LINE",
"5 0 LINE",
"378 668 LINE",
"365 668 LINE",
"500 0 LINE",
"523 0 LINE",
"384 683 LINE"
);
},
{
closed = 1;
nodes = (
"104 194 LINE",
"471 194 LINE",
"467 212 LINE",
"113 212 LINE"
);
},
{
closed = 1;
nodes = (
"278 749 LINE",
"275 729 LINE",
"485 859 LINE",
"489 883 LINE"
);
}
);
width = 601;
}
);
unicode = 00C1;
},
{
glyphname = Abreve;
layers = (
{
layerId = "CB828171-4BC8-495A-B1C3-011CB1482BD7";
paths = (
{
closed = 1;
nodes = (
"334 708 LINE",
"-50 0 LINE",
"183 0 LINE",
"481 593 LINE",
"402 593 LINE",
"489 0 LINE",
"723 0 LINE",
"590 708 LINE"
);
},
{
closed = 1;
nodes = (
"83 107 LINE",
"603 107 LINE",
"578 274 LINE",
"169 274 LINE"
);
},
{
closed = 1;
nodes = (
"696 967 LINE",
"593 967 LINE",
"586 928 OFFCURVE",
"562 905 OFFCURVE",
"497 905 CURVE SMOOTH",
"432 905 OFFCURVE",
"416 928 OFFCURVE",
"423 967 CURVE",
"320 967 LINE",
"317 950 LINE SMOOTH",
"293 812 OFFCURVE",
"364 747 OFFCURVE",
"469 747 CURVE SMOOTH",
"574 747 OFFCURVE",
"669 812 OFFCURVE",
"693 950 CURVE SMOOTH"
);
}
);
width = 773;
},
{
layerId = "0C75E9AD-DE1E-462B-B5DF-43688A01D7EC";
paths = (
{
closed = 1;
nodes = (
"354 696 LINE",
"-18 0 LINE",
"101 0 LINE",
"435 634 LINE",
"382 634 LINE",
"492 0 LINE",
"612 0 LINE",
"486 696 LINE"
);
},
{
closed = 1;
nodes = (
"111 142 LINE",
"527 142 LINE",
"513 231 LINE",
"156 231 LINE"
);
},
{
closed = 1;
nodes = (
"610 914 LINE",
"544 914 LINE",
"536 869 OFFCURVE",
"511 842 OFFCURVE",
"446 842 CURVE SMOOTH",
"381 842 OFFCURVE",
"366 869 OFFCURVE",
"374 914 CURVE",
"309 914 LINE",
"305 893 LINE SMOOTH",
"291 810 OFFCURVE",
"337 753 OFFCURVE",
"431 753 CURVE SMOOTH",
"526 753 OFFCURVE",
"591 809 OFFCURVE",
"606 892 CURVE SMOOTH"
);
}
);
width = 697;
},
{
layerId = "2AA9BEE2-6224-4C6D-925B-2F440B8C2D06";
paths = (
{
closed = 1;
nodes = (
"364 683 LINE",
"-18 0 LINE",
"5 0 LINE",
"378 668 LINE",
"365 668 LINE",
"500 0 LINE",
"523 0 LINE",
"384 683 LINE"
);
},
{
closed = 1;
nodes = (
"104 194 LINE",
"471 194 LINE",
"467 212 LINE",
"113 212 LINE"
);
},
{
closed = 1;
nodes = (
"524 867 LINE",
"504 867 LINE",
"494 810 OFFCURVE",
"452 777 OFFCURVE",
"390 777 CURVE SMOOTH",
"328 777 OFFCURVE",
"298 810 OFFCURVE",
"308 867 CURVE",
"288 867 LINE",
"287 863 LINE",
"279 815 OFFCURVE",
"302 759 OFFCURVE",
"387 759 CURVE SMOOTH",
"472 759 OFFCURVE",
"515 815 OFFCURVE",
"523 863 CURVE"
);
}
);
width = 601;
}
);
unicode = 0102;
},
{
glyphname = Acircumflex;
layers = (
{
layerId = "CB828171-4BC8-495A-B1C3-011CB1482BD7";
paths = (
{
closed = 1;
nodes = (
"334 708 LINE",
"-50 0 LINE",
"183 0 LINE",
"481 593 LINE",
"402 593 LINE",
"489 0 LINE",
"723 0 LINE",
"590 708 LINE"
);
},
{
closed = 1;
nodes = (
"83 107 LINE",
"603 107 LINE",
"578 274 LINE",
"169 274 LINE"
);
},
{
closed = 1;
nodes = (
"658 883 LINE",
"508 968 LINE",
"327 883 LINE",
"302 739 LINE",
"483 827 LINE",
"633 739 LINE"
);
}
);
width = 773;
},
{
layerId = "0C75E9AD-DE1E-462B-B5DF-43688A01D7EC";
paths = (
{
closed = 1;
nodes = (
"354 696 LINE",
"-18 0 LINE",
"101 0 LINE",
"435 634 LINE",
"382 634 LINE",
"492 0 LINE",
"612 0 LINE",
"486 696 LINE"
);
},
{
closed = 1;
nodes = (
"111 142 LINE",
"527 142 LINE",
"513 231 LINE",
"156 231 LINE"
);
},
{
closed = 1;
nodes = (
"587 830 LINE",
"459 913 LINE",
"301 830 LINE",
"285 741 LINE",
"444 827 LINE",
"571 741 LINE"
);
}
);
width = 697;
},
{
layerId = "2AA9BEE2-6224-4C6D-925B-2F440B8C2D06";
paths = (
{
closed = 1;
nodes = (
"364 683 LINE",
"-18 0 LINE",
"5 0 LINE",
"378 668 LINE",
"365 668 LINE",
"500 0 LINE",
"523 0 LINE",
"384 683 LINE"
);
},
{
closed = 1;
nodes = (
"104 194 LINE",
"471 194 LINE",
"467 212 LINE",
"113 212 LINE"
);
},
{
closed = 1;
nodes = (
"514 783 LINE",
"406 864 LINE",
"267 783 LINE",
"264 763 LINE",
"402 844 LINE",
"511 763 LINE"
);
}
);
width = 601;
}
);
unicode = 00C2;
},
{
glyphname = Adieresis;
layers = (
{
layerId = "CB828171-4BC8-495A-B1C3-011CB1482BD7";
paths = (
{
closed = 1;
nodes = (
"334 708 LINE",
"-50 0 LINE",
"183 0 LINE",
"481 593 LINE",
"402 593 LINE",
"489 0 LINE",
"723 0 LINE",
"590 708 LINE"
);
},
{
closed = 1;
nodes = (
"83 107 LINE",
"603 107 LINE",
"578 274 LINE",
"169 274 LINE"
);
},
{
closed = 1;
nodes = (
"414 767 OFFCURVE",
"462 812 OFFCURVE",
"462 868 CURVE SMOOTH",
"462 910 OFFCURVE",
"434 939 OFFCURVE",
"389 939 CURVE SMOOTH",
"336 939 OFFCURVE",
"287 894 OFFCURVE",
"287 836 CURVE SMOOTH",
"287 796 OFFCURVE",
"317 767 OFFCURVE",
"359 767 CURVE SMOOTH"
);
},
{
closed = 1;
nodes = (
"639 767 OFFCURVE",
"687 812 OFFCURVE",
"687 868 CURVE SMOOTH",
"687 910 OFFCURVE",
"659 939 OFFCURVE",
"614 939 CURVE SMOOTH",
"561 939 OFFCURVE",
"512 894 OFFCURVE",
"512 836 CURVE SMOOTH",
"512 796 OFFCURVE",
"542 767 OFFCURVE",
"584 767 CURVE SMOOTH"
);
}
);
width = 773;
},
{
layerId = "0C75E9AD-DE1E-462B-B5DF-43688A01D7EC";
paths = (
{
closed = 1;
nodes = (
"354 696 LINE",
"-18 0 LINE",
"101 0 LINE",
"435 634 LINE",
"382 634 LINE",
"492 0 LINE",
"612 0 LINE",
"486 696 LINE"
);
},
{
closed = 1;
nodes = (
"111 142 LINE",
"527 142 LINE",
"513 231 LINE",
"156 231 LINE"
);
},
{
closed = 1;
nodes = (
"383 765 OFFCURVE",
"418 797 OFFCURVE",
"418 836 CURVE SMOOTH",
"418 864 OFFCURVE",
"397 885 OFFCURVE",
"368 885 CURVE SMOOTH",
"330 885 OFFCURVE",
"296 852 OFFCURVE",
"296 814 CURVE SMOOTH",
"296 786 OFFCURVE",
"317 765 OFFCURVE",
"347 765 CURVE SMOOTH"
);
},
{
closed = 1;
nodes = (
"555 765 OFFCURVE",
"590 797 OFFCURVE",
"590 836 CURVE SMOOTH",
"590 864 OFFCURVE",
"569 885 OFFCURVE",
"540 885 CURVE SMOOTH",
"502 885 OFFCURVE",
"468 852 OFFCURVE",
"468 814 CURVE SMOOTH",
"468 786 OFFCURVE",
"489 765 OFFCURVE",
"519 765 CURVE SMOOTH"
);
}
);
width = 697;
},
{
layerId = "2AA9BEE2-6224-4C6D-925B-2F440B8C2D06";
paths = (
{
closed = 1;
nodes = (
"364 683 LINE",
"-18 0 LINE",
"5 0 LINE",
"378 668 LINE",
"365 668 LINE",
"500 0 LINE",
"523 0 LINE",
"384 683 LINE"
);
},
{
closed = 1;
nodes = (
"104 194 LINE",
"471 194 LINE",
"467 212 LINE",
"113 212 LINE"
);
},
{
closed = 1;
nodes = (
"341 770 OFFCURVE",
"357 787 OFFCURVE",
"357 805 CURVE SMOOTH",
"357 819 OFFCURVE",
"348 830 OFFCURVE",
"334 830 CURVE SMOOTH",
"315 830 OFFCURVE",
"299 813 OFFCURVE",
"299 795 CURVE SMOOTH",
"299 781 OFFCURVE",
"308 770 OFFCURVE",
"323 770 CURVE SMOOTH"
);
},
{
closed = 1;
nodes = (
"475 770 OFFCURVE",
"491 787 OFFCURVE",
"491 806 CURVE SMOOTH",
"491 819 OFFCURVE",
"482 830 OFFCURVE",
"468 830 CURVE SMOOTH",
"449 830 OFFCURVE",
"433 813 OFFCURVE",
"433 795 CURVE SMOOTH",
"433 781 OFFCURVE",
"442 770 OFFCURVE",
"457 770 CURVE SMOOTH"
);
}
);
width = 601;
}
);
unicode = 00C4;
},
{
glyphname = Agrave;
layers = (
{
layerId = "CB828171-4BC8-495A-B1C3-011CB1482BD7";
paths = (
{
closed = 1;
nodes = (
"334 708 LINE",
"-50 0 LINE",
"183 0 LINE",
"481 593 LINE",
"402 593 LINE",
"489 0 LINE",
"723 0 LINE",
"590 708 LINE"
);
},
{
closed = 1;
nodes = (
"83 107 LINE",
"603 107 LINE",
"578 274 LINE",
"169 274 LINE"
);
},
{
closed = 1;
nodes = (
"355 843 LINE",
"597 749 LINE",
"624 897 LINE",
"384 1007 LINE"
);
}
);
width = 773;
},
{
layerId = "0C75E9AD-DE1E-462B-B5DF-43688A01D7EC";
paths = (
{
closed = 1;
nodes = (
"354 696 LINE",
"-18 0 LINE",
"101 0 LINE",
"435 634 LINE",
"382 634 LINE",
"492 0 LINE",
"612 0 LINE",
"486 696 LINE"
);
},
{
closed = 1;
nodes = (
"111 142 LINE",
"527 142 LINE",
"513 231 LINE",
"156 231 LINE"
);
},
{
closed = 1;
nodes = (
"329 844 LINE",
"530 735 LINE",
"545 819 LINE",
"346 941 LINE"
);
}
);
width = 697;
},
{
layerId = "2AA9BEE2-6224-4C6D-925B-2F440B8C2D06";
paths = (
{
closed = 1;
nodes = (
"364 683 LINE",
"-18 0 LINE",
"5 0 LINE",
"378 668 LINE",
"365 668 LINE",
"500 0 LINE",
"523 0 LINE",
"384 683 LINE"
);
},
{
closed = 1;
nodes = (
"104 194 LINE",
"471 194 LINE",
"467 212 LINE",
"113 212 LINE"
);
},
{
closed = 1;
nodes = (
"298 859 LINE",
"462 729 LINE",
"465 749 LINE",
"302 883 LINE"
);
}
);
width = 601;
}
);
unicode = 00C0;
},
{
glyphname = Amacron;
layers = (
{
layerId = "CB828171-4BC8-495A-B1C3-011CB1482BD7";
paths = (
{
closed = 1;
nodes = (
"334 708 LINE",
"-50 0 LINE",
"183 0 LINE",
"481 593 LINE",
"402 593 LINE",
"489 0 LINE",
"723 0 LINE",
"590 708 LINE"
);
},
{
closed = 1;
nodes = (
"83 107 LINE",
"603 107 LINE",
"578 274 LINE",
"169 274 LINE"
);
},
{
closed = 1;
nodes = (
"258 769 LINE",
"689 769 LINE",
"715 916 LINE",
"284 916 LINE"
);
}
);
width = 773;
},
{
layerId = "0C75E9AD-DE1E-462B-B5DF-43688A01D7EC";
paths = (
{
closed = 1;
nodes = (
"354 696 LINE",
"-18 0 LINE",
"101 0 LINE",
"435 634 LINE",
"382 634 LINE",
"492 0 LINE",
"612 0 LINE",
"486 696 LINE"
);
},
{
closed = 1;
nodes = (
"111 142 LINE",
"527 142 LINE",
"513 231 LINE",
"156 231 LINE"
);
},
{
closed = 1;
nodes = (
"252 780 LINE",
"618 780 LINE",
"633 865 LINE",
"267 865 LINE"
);
}
);
width = 697;
},
{
layerId = "2AA9BEE2-6224-4C6D-925B-2F440B8C2D06";
paths = (
{
closed = 1;
nodes = (
"364 683 LINE",
"-18 0 LINE",
"5 0 LINE",
"378 668 LINE",
"365 668 LINE",
"500 0 LINE",
"523 0 LINE",
"384 683 LINE"
);
},
{
closed = 1;
nodes = (
"104 194 LINE",
"471 194 LINE",
"467 212 LINE",
"113 212 LINE"
);
},
{
closed = 1;
nodes = (
"240 802 LINE",
"549 802 LINE",
"552 820 LINE",
"243 820 LINE"
);
}
);
width = 601;
}
);
unicode = 0100;
},
{
glyphname = Aogonek;
layers = (
{
layerId = "0D3569AB-3F9F-4836-AA47-B73F89CEDB23";
name = "Sep 20 17, 19:55";
paths = (
{
closed = 1;
nodes = (
"117 194 LINE",
"484 194 LINE",
"477 212 LINE",
"123 212 LINE"
);
},
{
closed = 1;
nodes = (
"30 0 LINE",
"53 0 LINE",
"306 662 LINE",
"296 662 LINE",
"551 -6 LINE",
"557 0 LINE",
"466 0 OFFCURVE",
"428 -42 OFFCURVE",
"428 -95 CURVE",
"428 -148 OFFCURVE",
"466 -190 OFFCURVE",
"543 -190 CURVE",
"611 -190 LINE",
"611 -170 LINE",
"543 -170 LINE SMOOTH",
"484 -170 OFFCURVE",
"448 -142 OFFCURVE",
"448 -95 CURVE",
"448 -48 OFFCURVE",
"484 -20 OFFCURVE",
"543 -20 CURVE SMOOTH",
"571 -20 LINE",
"571 0 LINE",
"311 683 LINE",
"291 683 LINE"
);
}
);
width = 601;
},
{
layerId = "3EDF6DF0-3C7E-41C9-BACE-D197D96B1B4F";
name = public.background;
paths = (
{
closed = 1;
nodes = (
"114 107 LINE",
"634 107 LINE",
"579 274 LINE",
"170 274 LINE"
);
},
{
closed = 1;
nodes = (
"0 0 LINE",
"233 0 LINE",
"426 593 LINE",
"347 593 LINE",
"549 -30 LINE",
"565 15 LINE",
"515 -13 OFFCURVE",
"494 -49 OFFCURVE",
"494 -97 CURVE",
"494 -192 OFFCURVE",
"577 -219 OFFCURVE",
"644 -219 CURVE",
"812 -219 LINE",
"812 -106 LINE",
"667 -106 LINE SMOOTH",
"651 -106 OFFCURVE",
"641 -100 OFFCURVE",
"641 -90 CURVE SMOOTH",
"641 -80 OFFCURVE",
"651 -75 OFFCURVE",
"667 -75 CURVE SMOOTH",
"767 -75 LINE",
"767 15 LINE",
"515 708 LINE",
"259 708 LINE"
);
}
);
width = 601;
},
{
layerId = "3EDF6DF0-3C7E-41C9-BACE-D197D96B1B4F";
name = public.background;
paths = (
{
closed = 1;
nodes = (
"138 142 LINE",
"554 142 LINE",
"524 231 LINE",
"167 231 LINE"
);
},
{
closed = 1;
nodes = (
"34 0 LINE",
"153 0 LINE",
"359 586 LINE",
"339 586 LINE",
"553 -24 LINE",
"558 1 LINE",
"501 -7 OFFCURVE",
"464 -42 OFFCURVE",
"464 -96 CURVE SMOOTH",
"464 -165 OFFCURVE",
"521 -205 OFFCURVE",
"592 -205 CURVE SMOOTH",
"698 -205 LINE",
"698 -133 LINE",
"614 -133 LINE SMOOTH",
"579 -133 OFFCURVE",
"558 -126 OFFCURVE",
"558 -96 CURVE SMOOTH",
"558 -66 OFFCURVE",
"579 -60 OFFCURVE",
"614 -60 CURVE SMOOTH",
"664 -60 LINE",
"664 1 LINE",
"415 696 LINE",
"283 696 LINE"
);
}
);
width = 601;
},
{
layerId = "3EDF6DF0-3C7E-41C9-BACE-D197D96B1B4F";
name = public.background;
paths = (
{
closed = 1;
nodes = (
"117 194 LINE",
"484 194 LINE",
"477 212 LINE",
"123 212 LINE"
);
},
{
closed = 1;
nodes = (
"30 0 LINE",
"53 0 LINE",
"306 662 LINE",
"296 662 LINE",
"551 -6 LINE",
"557 0 LINE",
"466 0 OFFCURVE",
"428 -42 OFFCURVE",
"428 -95 CURVE",
"428 -148 OFFCURVE",
"466 -190 OFFCURVE",
"543 -190 CURVE",
"611 -190 LINE",
"611 -170 LINE",
"543 -170 LINE SMOOTH",
"484 -170 OFFCURVE",
"448 -142 OFFCURVE",
"448 -95 CURVE",
"448 -48 OFFCURVE",
"484 -20 OFFCURVE",
"543 -20 CURVE SMOOTH",
"571 -20 LINE",
"571 0 LINE",
"311 683 LINE",
"291 683 LINE"
);
}
);
width = 601;
},
{
layerId = "3EDF6DF0-3C7E-41C9-BACE-D197D96B1B4F";
name = public.background;
paths = (
{
closed = 1;
nodes = (
"114 107 LINE",
"634 107 LINE",
"579 274 LINE",
"170 274 LINE"
);
},
{
closed = 1;
nodes = (
"0 0 LINE",
"233 0 LINE",
"426 593 LINE",
"347 593 LINE",
"549 -30 LINE",
"565 15 LINE",
"515 -13 OFFCURVE",
"494 -49 OFFCURVE",
"494 -97 CURVE",
"494 -192 OFFCURVE",
"577 -219 OFFCURVE",
"644 -219 CURVE",
"812 -219 LINE",
"812 -106 LINE",
"667 -106 LINE SMOOTH",
"651 -106 OFFCURVE",
"641 -100 OFFCURVE",
"641 -90 CURVE SMOOTH",
"641 -80 OFFCURVE",
"651 -75 OFFCURVE",
"667 -75 CURVE SMOOTH",
"767 -75 LINE",
"767 15 LINE",
"515 708 LINE",
"259 708 LINE"
);
}
);
width = 601;
},
{
anchors = (
{
name = _ogonek;
position = "{723, 0}";
}
);
layerId = "CB828171-4BC8-495A-B1C3-011CB1482BD7";
paths = (
{
closed = 1;
nodes = (
"660 90 LINE SMOOTH",
"493 27 OFFCURVE",
"445 -26 OFFCURVE",
"432 -97 CURVE SMOOTH",
"418 -177 OFFCURVE",
"470 -223 OFFCURVE",
"570 -223 CURVE SMOOTH",
"613 -223 OFFCURVE",
"652 -217 OFFCURVE",
"687 -207 CURVE",
"707 -91 LINE",
"672 -102 OFFCURVE",
"644 -107 OFFCURVE",
"622 -107 CURVE SMOOTH",
"598 -107 OFFCURVE",
"587 -98 OFFCURVE",
"590 -82 CURVE SMOOTH",
"593 -66 OFFCURVE",
"608 -46 OFFCURVE",
"676 -19 CURVE SMOOTH",
"723 0 LINE",
"700 105 LINE"
);
},
{
closed = 1;
nodes = (
"334 708 LINE",
"-50 0 LINE",
"183 0 LINE",
"481 593 LINE",
"402 593 LINE",
"489 0 LINE",
"723 0 LINE",
"590 708 LINE"
);
},
{
closed = 1;
nodes = (
"83 107 LINE",
"603 107 LINE",
"578 274 LINE",
"169 274 LINE"
);
}
);
width = 773;
},
{
layerId = "3EDF6DF0-3C7E-41C9-BACE-D197D96B1B4F";
name = public.background;
paths = (
{
closed = 1;
nodes = (
"138 142 LINE",
"554 142 LINE",
"524 231 LINE",
"167 231 LINE"
);
},
{
closed = 1;
nodes = (
"34 0 LINE",
"153 0 LINE",
"359 586 LINE",
"339 586 LINE",
"553 -24 LINE",
"558 1 LINE",
"501 -7 OFFCURVE",
"464 -42 OFFCURVE",
"464 -96 CURVE SMOOTH",
"464 -165 OFFCURVE",
"521 -205 OFFCURVE",
"592 -205 CURVE SMOOTH",
"698 -205 LINE",
"698 -133 LINE",
"614 -133 LINE SMOOTH",
"579 -133 OFFCURVE",
"558 -126 OFFCURVE",
"558 -96 CURVE SMOOTH",
"558 -66 OFFCURVE",
"579 -60 OFFCURVE",
"614 -60 CURVE SMOOTH",
"664 -60 LINE",
"664 1 LINE",
"415 696 LINE",
"283 696 LINE"
);
}
);
width = 601;
},
{
anchors = (
{
name = _ogonek;
position = "{612, 0}";
}
);
layerId = "0C75E9AD-DE1E-462B-B5DF-43688A01D7EC";
paths = (
{
closed = 1;
nodes = (
"544 48 LINE SMOOTH",
"443 6 OFFCURVE",
"403 -52 OFFCURVE",
"394 -102 CURVE SMOOTH",
"380 -183 OFFCURVE",
"446 -211 OFFCURVE",
"509 -211 CURVE SMOOTH",
"538 -211 OFFCURVE",
"568 -205 OFFCURVE",
"593 -196 CURVE",
"606 -123 LINE",
"581 -132 OFFCURVE",
"556 -137 OFFCURVE",
"537 -137 CURVE SMOOTH",
"503 -137 OFFCURVE",
"485 -119 OFFCURVE",
"490 -91 CURVE",
"495 -67 OFFCURVE",
"512 -47 OFFCURVE",
"559 -25 CURVE SMOOTH",
"612 0 LINE",
"590 67 LINE"
);
},
{
closed = 1;
nodes = (
"354 696 LINE",
"-18 0 LINE",
"101 0 LINE",
"435 634 LINE",
"382 634 LINE",
"492 0 LINE",
"612 0 LINE",
"486 696 LINE"
);
},
{
closed = 1;
nodes = (
"111 142 LINE",
"527 142 LINE",
"513 231 LINE",
"156 231 LINE"
);
}
);
width = 697;
},
{
layerId = "3EDF6DF0-3C7E-41C9-BACE-D197D96B1B4F";
name = public.background;
paths = (
{
closed = 1;
nodes = (
"117 194 LINE",
"484 194 LINE",
"477 212 LINE",
"123 212 LINE"
);
},
{
closed = 1;
nodes = (
"30 0 LINE",
"53 0 LINE",
"306 662 LINE",
"296 662 LINE",
"551 -6 LINE",
"557 0 LINE",
"466 0 OFFCURVE",
"428 -42 OFFCURVE",
"428 -95 CURVE",
"428 -148 OFFCURVE",
"466 -190 OFFCURVE",
"543 -190 CURVE",
"611 -190 LINE",
"611 -170 LINE",
"543 -170 LINE SMOOTH",
"484 -170 OFFCURVE",
"448 -142 OFFCURVE",
"448 -95 CURVE",
"448 -48 OFFCURVE",
"484 -20 OFFCURVE",
"543 -20 CURVE SMOOTH",
"571 -20 LINE",
"571 0 LINE",
"311 683 LINE",
"291 683 LINE"
);
}
);
width = 601;
},
{
anchors = (
{
name = _ogonek;
position = "{523, 0}";
}
);
layerId = "2AA9BEE2-6224-4C6D-925B-2F440B8C2D06";
paths = (
{
closed = 1;
nodes = (
"445 -13 LINE SMOOTH",
"378 -41 OFFCURVE",
"348 -78 OFFCURVE",
"341 -116 CURVE SMOOTH",
"332 -167 OFFCURVE",
"367 -190 OFFCURVE",
"418 -190 CURVE SMOOTH",
"437 -190 OFFCURVE",
"460 -186 OFFCURVE",
"482 -178 CURVE",
"486 -158 LINE",
"463 -166 OFFCURVE",
"440 -171 OFFCURVE",
"420 -171 CURVE SMOOTH",
"381 -171 OFFCURVE",
"354 -154 OFFCURVE",
"361 -115 CURVE SMOOTH",
"366 -86 OFFCURVE",
"389 -57 OFFCURVE",
"446 -33 CURVE SMOOTH",
"523 0 LINE",
"519 18 LINE"
);
},
{
closed = 1;
nodes = (
"364 683 LINE",
"-18 0 LINE",
"5 0 LINE",
"378 668 LINE",
"365 668 LINE",
"500 0 LINE",
"523 0 LINE",
"384 683 LINE"
);
},
{
closed = 1;
nodes = (
"104 194 LINE",
"471 194 LINE",
"467 212 LINE",
"113 212 LINE"
);
}
);
width = 601;
}
);
unicode = 0104;
},
{
glyphname = Aring;
layers = (
{
layerId = "CB828171-4BC8-495A-B1C3-011CB1482BD7";
paths = (
{
closed = 1;
nodes = (
"334 708 LINE",
"-50 0 LINE",
"183 0 LINE",
"481 593 LINE",
"402 593 LINE",
"489 0 LINE",
"723 0 LINE",
"590 708 LINE"
);
},
{
closed = 1;
nodes = (
"83 107 LINE",
"603 107 LINE",
"578 274 LINE",
"169 274 LINE"
);
},
{
closed = 1;
nodes = (
"345 790 OFFCURVE",
"395 740 OFFCURVE",
"468 740 CURVE SMOOTH",
"541 740 OFFCURVE",
"609 790 OFFCURVE",
"623 872 CURVE SMOOTH",
"638 954 OFFCURVE",
"587 1004 OFFCURVE",
"514 1004 CURVE SMOOTH",
"441 1004 OFFCURVE",
"374 954 OFFCURVE",
"359 872 CURVE SMOOTH"
);
},
{
closed = 1;
nodes = (
"532 844 OFFCURVE",
"509 825 OFFCURVE",
"483 825 CURVE SMOOTH",
"457 825 OFFCURVE",
"440 844 OFFCURVE",
"445 872 CURVE SMOOTH",
"450 901 OFFCURVE",
"473 919 OFFCURVE",
"499 919 CURVE SMOOTH",
"525 919 OFFCURVE",
"542 901 OFFCURVE",
"537 872 CURVE SMOOTH"
);
}
);
width = 773;
},
{
layerId = "0C75E9AD-DE1E-462B-B5DF-43688A01D7EC";
paths = (
{
closed = 1;
nodes = (
"354 696 LINE",
"-18 0 LINE",
"101 0 LINE",
"435 634 LINE",
"382 634 LINE",
"492 0 LINE",
"612 0 LINE",
"486 696 LINE"
);
},
{
closed = 1;
nodes = (
"111 142 LINE",
"527 142 LINE",
"513 231 LINE",
"156 231 LINE"
);
},
{
closed = 1;
nodes = (
"328 792 OFFCURVE",
"370 750 OFFCURVE",
"430 750 CURVE SMOOTH",
"491 750 OFFCURVE",
"546 792 OFFCURVE",
"558 859 CURVE SMOOTH",
"570 927 OFFCURVE",
"530 969 OFFCURVE",
"469 969 CURVE SMOOTH",
"409 969 OFFCURVE",
"352 927 OFFCURVE",
"340 859 CURVE SMOOTH"
);
},
{
closed = 1;
nodes = (
"496 830 OFFCURVE",
"469 809 OFFCURVE",
"440 809 CURVE SMOOTH",
"412 809 OFFCURVE",
"393 830 OFFCURVE",
"398 860 CURVE SMOOTH",
"404 891 OFFCURVE",
"430 911 OFFCURVE",
"458 911 CURVE SMOOTH",
"487 911 OFFCURVE",
"507 891 OFFCURVE",
"501 860 CURVE SMOOTH"
);
}
);
width = 697;
},
{
layerId = "2AA9BEE2-6224-4C6D-925B-2F440B8C2D06";
paths = (
{
closed = 1;
nodes = (
"364 683 LINE",
"-18 0 LINE",
"5 0 LINE",
"378 668 LINE",
"365 668 LINE",
"500 0 LINE",
"523 0 LINE",
"384 683 LINE"
);
},
{
closed = 1;
nodes = (
"104 194 LINE",
"471 194 LINE",
"467 212 LINE",
"113 212 LINE"
);
},
{
closed = 1;
nodes = (
"303 792 OFFCURVE",
"338 758 OFFCURVE",
"387 758 CURVE SMOOTH",
"436 758 OFFCURVE",
"483 792 OFFCURVE",
"493 848 CURVE SMOOTH",
"503 904 OFFCURVE",
"468 938 OFFCURVE",
"419 938 CURVE SMOOTH",
"370 938 OFFCURVE",
"323 904 OFFCURVE",
"313 848 CURVE SMOOTH"
);
},
{
closed = 1;
nodes = (
"465 803 OFFCURVE",
"430 776 OFFCURVE",
"390 776 CURVE SMOOTH",
"350 776 OFFCURVE",
"325 803 OFFCURVE",
"333 848 CURVE SMOOTH",
"341 893 OFFCURVE",
"375 920 OFFCURVE",
"415 920 CURVE SMOOTH",
"455 920 OFFCURVE",
"481 893 OFFCURVE",
"473 848 CURVE SMOOTH"
);
}
);
width = 601;
}
);
unicode = 00C5;
},
{
glyphname = Atilde;
layers = (
{
layerId = "CB828171-4BC8-495A-B1C3-011CB1482BD7";
paths = (
{
closed = 1;
nodes = (
"334 708 LINE",
"-50 0 LINE",
"183 0 LINE",
"481 593 LINE",
"402 593 LINE",
"489 0 LINE",
"723 0 LINE",
"590 708 LINE"
);
},
{
closed = 1;
nodes = (
"83 107 LINE",
"603 107 LINE",
"578 274 LINE",
"169 274 LINE"
);
},
{
closed = 1;
nodes = (
"345 759 LINE",
"357 792 OFFCURVE",
"374 806 OFFCURVE",
"398 806 CURVE SMOOTH",
"438 806 OFFCURVE",
"470 761 OFFCURVE",
"535 761 CURVE SMOOTH",
"617 761 OFFCURVE",
"682 808 OFFCURVE",
"726 936 CURVE",
"617 936 LINE",
"607 904 OFFCURVE",
"589 889 OFFCURVE",
"565 889 CURVE SMOOTH",
"525 889 OFFCURVE",
"494 935 OFFCURVE",
"429 935 CURVE SMOOTH",
"347 935 OFFCURVE",
"282 887 OFFCURVE",
"237 759 CURVE"
);
}
);
width = 773;
},
{
layerId = "0C75E9AD-DE1E-462B-B5DF-43688A01D7EC";
paths = (
{
closed = 1;
nodes = (
"354 696 LINE",
"-18 0 LINE",
"101 0 LINE",
"435 634 LINE",
"382 634 LINE",
"492 0 LINE",
"612 0 LINE",
"486 696 LINE"
);
},
{
closed = 1;
nodes = (
"111 142 LINE",
"527 142 LINE",
"513 231 LINE",
"156 231 LINE"
);
},
{
closed = 1;
nodes = (
"332 753 LINE",
"341 782 OFFCURVE",
"360 796 OFFCURVE",
"382 796 CURVE SMOOTH",
"422 796 OFFCURVE",
"436 751 OFFCURVE",
"490 751 CURVE SMOOTH",
"548 751 OFFCURVE",
"599 789 OFFCURVE",
"624 868 CURVE",
"560 868 LINE",
"551 839 OFFCURVE",
"531 826 OFFCURVE",
"509 826 CURVE SMOOTH",
"469 826 OFFCURVE",
"455 870 OFFCURVE",
"401 870 CURVE SMOOTH",
"343 870 OFFCURVE",
"292 832 OFFCURVE",
"268 753 CURVE"
);
}
);
width = 697;
},
{
layerId = "2AA9BEE2-6224-4C6D-925B-2F440B8C2D06";
paths = (
{
closed = 1;
nodes = (
"364 683 LINE",
"-18 0 LINE",
"5 0 LINE",
"378 668 LINE",
"365 668 LINE",
"500 0 LINE",
"523 0 LINE",
"384 683 LINE"
);
},
{
closed = 1;
nodes = (
"104 194 LINE",
"471 194 LINE",
"467 212 LINE",
"113 212 LINE"
);
},
{
closed = 1;
nodes = (
"307 747 LINE",
"317 780 OFFCURVE",
"334 795 OFFCURVE",
"357 795 CURVE SMOOTH",
"399 795 OFFCURVE",
"405 745 OFFCURVE",
"457 745 CURVE SMOOTH",
"491 745 OFFCURVE",
"522 774 OFFCURVE",
"530 810 CURVE",
"512 810 LINE",
"503 779 OFFCURVE",
"481 763 OFFCURVE",
"460 763 CURVE SMOOTH",
"413 763 OFFCURVE",
"411 813 OFFCURVE",
"361 813 CURVE SMOOTH",
"327 813 OFFCURVE",
"301 787 OFFCURVE",
"289 747 CURVE"
);
}
);
width = 601;
}
);
unicode = 00C3;
},
{
glyphname = AE;
layers = (
{
layerId = "CB828171-4BC8-495A-B1C3-011CB1482BD7";
paths = (
{
closed = 1;
nodes = (
"122 97 LINE",
"565 97 LINE",
"595 264 LINE",
"245 264 LINE"
);
},
{
closed = 1;
nodes = (
"996 532 LINE",
"1027 708 LINE",
"414 708 LINE",
"-50 0 LINE",
"191 0 LINE",
"535 537 LINE",
"440 0 LINE",
"902 0 LINE",
"933 177 LINE",
"693 177 LINE",
"712 280 LINE",
"922 280 LINE",
"951 447 LINE",
"741 447 LINE",
"756 532 LINE"
);
}
);
width = 986;
},
{
layerId = "0C75E9AD-DE1E-462B-B5DF-43688A01D7EC";
paths = (
{
closed = 1;
nodes = (
"125 142 LINE",
"498 142 LINE",
"514 231 LINE",
"191 231 LINE"
);
},
{
closed = 1;
nodes = (
"910 607 LINE",
"926 696 LINE",
"466 696 LINE",
"-40 0 LINE",
"84 0 LINE",
"529 617 LINE",
"420 0 LINE",
"803 0 LINE",
"819 89 LINE",
"550 89 LINE",
"589 308 LINE",
"828 308 LINE",
"843 396 LINE",
"604 396 LINE",
"641 607 LINE"
);
}
);
width = 921;
},
{
layerId = "2AA9BEE2-6224-4C6D-925B-2F440B8C2D06";
paths = (
{
closed = 1;
nodes = (
"124 194 LINE",
"437 194 LINE",
"440 212 LINE",
"133 212 LINE"
);
},
{
closed = 1;
nodes = (
"860 686 LINE",
"864 704 LINE",
"520 704 LINE",
"-38 0 LINE",
"-15 0 LINE",
"513 667 LINE",
"395 0 LINE",
"739 0 LINE",
"743 18 LINE",
"419 18 LINE",
"476 343 LINE",
"770 343 LINE",
"773 361 LINE",
"479 361 LINE",
"536 686 LINE"
);
}
);
width = 837;
}
);
unicode = 00C6;
},
{
glyphname = AEacute;
layers = (
{
layerId = "CB828171-4BC8-495A-B1C3-011CB1482BD7";
paths = (
{
closed = 1;
nodes = (
"122 97 LINE",
"565 97 LINE",
"595 264 LINE",
"245 264 LINE"
);
},
{
closed = 1;
nodes = (
"996 532 LINE",
"1027 708 LINE",
"414 708 LINE",
"-50 0 LINE",
"191 0 LINE",
"535 537 LINE",
"440 0 LINE",
"902 0 LINE",
"933 177 LINE",
"693 177 LINE",
"712 280 LINE",
"922 280 LINE",
"951 447 LINE",
"741 447 LINE",
"756 532 LINE"
);
},
{
closed = 1;
nodes = (
"430 894 LINE",
"403 746 LINE",
"679 840 LINE",
"708 1004 LINE"
);
}
);
width = 986;
},
{
guideLines = (
{
position = "{0, 728}";
}
);
layerId = "0C75E9AD-DE1E-462B-B5DF-43688A01D7EC";
paths = (
{
closed = 1;
nodes = (
"125 142 LINE",
"498 142 LINE",
"514 231 LINE",
"191 231 LINE"
);
},
{
closed = 1;
nodes = (
"910 607 LINE",
"926 696 LINE",
"466 696 LINE",
"-40 0 LINE",
"84 0 LINE",
"529 617 LINE",
"420 0 LINE",
"803 0 LINE",
"819 89 LINE",
"550 89 LINE",
"589 308 LINE",
"828 308 LINE",
"843 396 LINE",
"604 396 LINE",
"641 607 LINE"
);
},
{
closed = 1;
nodes = (
"507 821 LINE",
"492 737 LINE",
"733 846 LINE",
"750 943 LINE"
);
}
);
width = 921;
},
{
layerId = "2AA9BEE2-6224-4C6D-925B-2F440B8C2D06";
paths = (
{
closed = 1;
nodes = (
"124 194 LINE",
"437 194 LINE",
"440 212 LINE",
"133 212 LINE"
);
},
{
closed = 1;
nodes = (
"860 686 LINE",
"864 704 LINE",
"520 704 LINE",
"-38 0 LINE",
"-15 0 LINE",
"513 667 LINE",
"395 0 LINE",
"739 0 LINE",
"743 18 LINE",
"419 18 LINE",
"476 343 LINE",
"770 343 LINE",
"773 361 LINE",
"479 361 LINE",
"536 686 LINE"
);
},
{
closed = 1;
nodes = (
"515 770 LINE",
"512 750 LINE",
"722 880 LINE",
"726 904 LINE"
);
}
);
width = 837;
}
);
unicode = 01FC;
},
{
glyphname = B;
layers = (
{
layerId = "1BE9C55F-6EE8-4A1B-A39B-90868E09D0EA";
name = "Sep 19 17, 17:06";
paths = (
{
closed = 1;
nodes = (
"449 438 OFFCURVE",
"404 400 OFFCURVE",
"330 400 CURVE SMOOTH",
"189 400 LINE",
"189 606 LINE",
"330 606 LINE SMOOTH",
"404 606 OFFCURVE",
"449 567 OFFCURVE",
"449 502 CURVE SMOOTH"
);
},
{
closed = 1;
nodes = (
"581 275 OFFCURVE",
"511 356 OFFCURVE",
"403 359 CURVE",
"386 347 LINE",
"495 364 OFFCURVE",
"565 417 OFFCURVE",
"565 511 CURVE SMOOTH",
"565 614 OFFCURVE",
"487 695 OFFCURVE",
"340 695 CURVE SMOOTH",
"75 695 LINE",
"75 0 LINE",
"353 0 LINE SMOOTH",
"495 0 OFFCURVE",
"581 79 OFFCURVE",
"581 183 CURVE SMOOTH"
);
},
{
closed = 1;
nodes = (
"467 130 OFFCURVE",
"420 89 OFFCURVE",
"343 89 CURVE SMOOTH",
"189 89 LINE",
"189 311 LINE",
"339 311 LINE SMOOTH",
"415 311 OFFCURVE",
"467 268 OFFCURVE",
"467 199 CURVE SMOOTH"
);
}
);
width = 630;
},
{
layerId = "92B486FD-F52B-438E-A8AC-2BADDEB8D0F6";
name = "Sep 19 17, 17:06.1";
paths = (
{
closed = 1;
nodes = (
"474 437 OFFCURVE",
"412 376 OFFCURVE",
"293 376 CURVE SMOOTH",
"105 376 LINE",
"105 684 LINE",
"287 684 LINE SMOOTH",
"419 684 OFFCURVE",
"474 620 OFFCURVE",
"474 532 CURVE"
);
},
{
closed = 1;
nodes = (
"510 293 OFFCURVE",
"426 369 OFFCURVE",
"320 369 CURVE",
"312 361 LINE",
"402 362 OFFCURVE",
"494 411 OFFCURVE",
"494 532 CURVE",
"494 628 OFFCURVE",
"434 704 OFFCURVE",
"287 704 CURVE SMOOTH",
"85 704 LINE",
"85 0 LINE",
"287 0 LINE SMOOTH",
"439 0 OFFCURVE",
"510 84 OFFCURVE",
"510 188 CURVE SMOOTH"
);
},
{
closed = 1;
nodes = (
"490 84 OFFCURVE",
"415 20 OFFCURVE",
"287 20 CURVE SMOOTH",
"105 20 LINE",
"105 356 LINE",
"285 356 LINE SMOOTH",
"413 356 OFFCURVE",
"490 290 OFFCURVE",
"490 188 CURVE SMOOTH"
);
}
);
width = 560;
},
{
layerId = "3EDF6DF0-3C7E-41C9-BACE-D197D96B1B4F";
name = public.background;
paths = (
{
closed = 1;
nodes = (
"449 438 OFFCURVE",
"404 400 OFFCURVE",
"330 400 CURVE SMOOTH",
"189 400 LINE",
"189 606 LINE",
"330 606 LINE SMOOTH",
"404 606 OFFCURVE",
"449 567 OFFCURVE",
"449 502 CURVE SMOOTH"
);
},
{
closed = 1;
nodes = (
"581 275 OFFCURVE",
"511 356 OFFCURVE",
"403 359 CURVE",
"386 347 LINE",
"495 364 OFFCURVE",
"565 417 OFFCURVE",
"565 511 CURVE SMOOTH",
"565 614 OFFCURVE",
"487 695 OFFCURVE",
"340 695 CURVE SMOOTH",
"75 695 LINE",
"75 0 LINE",
"353 0 LINE SMOOTH",
"495 0 OFFCURVE",
"581 79 OFFCURVE",
"581 183 CURVE SMOOTH"
);
},
{
closed = 1;
nodes = (
"467 130 OFFCURVE",
"420 89 OFFCURVE",
"343 89 CURVE SMOOTH",
"189 89 LINE",
"189 311 LINE",
"339 311 LINE SMOOTH",
"415 311 OFFCURVE",
"467 268 OFFCURVE",
"467 199 CURVE SMOOTH"
);
}
);
width = 560;
},
{
layerId = "3EDF6DF0-3C7E-41C9-BACE-D197D96B1B4F";
name = public.background;
paths = (
{
closed = 1;
nodes = (
"474 437 OFFCURVE",
"412 376 OFFCURVE",
"293 376 CURVE SMOOTH",
"105 376 LINE",
"105 684 LINE",
"287 684 LINE SMOOTH",
"419 684 OFFCURVE",
"474 620 OFFCURVE",
"474 532 CURVE"
);
},
{
closed = 1;
nodes = (
"510 293 OFFCURVE",
"426 369 OFFCURVE",
"320 369 CURVE",
"312 361 LINE",
"402 362 OFFCURVE",
"494 411 OFFCURVE",
"494 532 CURVE",
"494 628 OFFCURVE",
"434 704 OFFCURVE",
"287 704 CURVE SMOOTH",
"85 704 LINE",
"85 0 LINE",
"287 0 LINE SMOOTH",
"439 0 OFFCURVE",
"510 84 OFFCURVE",
"510 188 CURVE SMOOTH"
);
},
{
closed = 1;
nodes = (
"490 84 OFFCURVE",
"415 20 OFFCURVE",
"287 20 CURVE SMOOTH",
"105 20 LINE",
"105 356 LINE",
"285 356 LINE SMOOTH",
"413 356 OFFCURVE",
"490 290 OFFCURVE",
"490 188 CURVE SMOOTH"
);
}
);
width = 560;
},
{
layerId = "CB828171-4BC8-495A-B1C3-011CB1482BD7";
paths = (
{
closed = 1;
nodes = (
"446 447 OFFCURVE",
"424 432 OFFCURVE",
"384 432 CURVE SMOOTH",
"298 432 LINE",
"316 532 LINE",
"402 532 LINE SMOOTH",
"442 532 OFFCURVE",
"458 516 OFFCURVE",
"452 481 CURVE SMOOTH"
);
},
{
closed = 1;
nodes = (
"660 285 OFFCURVE",
"609 364 OFFCURVE",
"496 369 CURVE",
"477 357 LINE",
"575 352 OFFCURVE",
"667 416 OFFCURVE",
"686 524 CURVE SMOOTH",
"707 647 OFFCURVE",
"627 708 OFFCURVE",
"486 708 CURVE SMOOTH",
"125 708 LINE",
"0 0 LINE",
"371 0 LINE SMOOTH",
"525 0 OFFCURVE",
"622 70 OFFCURVE",
"643 194 CURVE SMOOTH"
);
},
{
closed = 1;
nodes = (
"416 192 OFFCURVE",
"395 178 OFFCURVE",
"355 178 CURVE SMOOTH",
"254 178 LINE",
"271 278 LINE",
"372 278 LINE SMOOTH",
"412 278 OFFCURVE",
"428 261 OFFCURVE",
"422 227 CURVE SMOOTH"
);
}
);
width = 684;
},
{
layerId = "3EDF6DF0-3C7E-41C9-BACE-D197D96B1B4F";
name = public.background;
paths = (
{
closed = 1;
nodes = (
"449 438 OFFCURVE",
"404 400 OFFCURVE",
"330 400 CURVE SMOOTH",
"189 400 LINE",
"189 606 LINE",
"330 606 LINE SMOOTH",
"404 606 OFFCURVE",
"449 567 OFFCURVE",
"449 502 CURVE SMOOTH"
);
},
{
closed = 1;
nodes = (
"581 275 OFFCURVE",
"511 356 OFFCURVE",
"403 359 CURVE",
"386 347 LINE",
"495 364 OFFCURVE",
"565 417 OFFCURVE",
"565 511 CURVE SMOOTH",
"565 614 OFFCURVE",
"487 695 OFFCURVE",
"340 695 CURVE SMOOTH",
"75 695 LINE",
"75 0 LINE",
"353 0 LINE SMOOTH",
"495 0 OFFCURVE",
"581 79 OFFCURVE",
"581 183 CURVE SMOOTH"
);
},
{
closed = 1;
nodes = (
"467 130 OFFCURVE",
"420 89 OFFCURVE",
"343 89 CURVE SMOOTH",
"189 89 LINE",
"189 311 LINE",
"339 311 LINE SMOOTH",
"415 311 OFFCURVE",
"467 268 OFFCURVE",
"467 199 CURVE SMOOTH"
);
}
);
width = 560;
},
{
layerId = "0C75E9AD-DE1E-462B-B5DF-43688A01D7EC";
paths = (
{
closed = 1;
nodes = (
"475 438 OFFCURVE",
"423 400 OFFCURVE",
"349 400 CURVE SMOOTH",
"208 400 LINE",
"244 606 LINE",
"385 606 LINE SMOOTH",
"459 606 OFFCURVE",
"497 567 OFFCURVE",
"486 502 CURVE SMOOTH"
);
},
{
closed = 1;
nodes = (
"578 277 OFFCURVE",
"522 356 OFFCURVE",
"440 359 CURVE",
"421 347 LINE",
"508 364 OFFCURVE",
"587 417 OFFCURVE",
"604 516 CURVE SMOOTH",
"622 614 OFFCURVE",
"558 695 OFFCURVE",
"411 695 CURVE SMOOTH",
"146 695 LINE",
"23 0 LINE",
"301 0 LINE SMOOTH",
"443 0 OFFCURVE",
"544 81 OFFCURVE",
"562 187 CURVE SMOOTH"
);
},
{
closed = 1;
nodes = (
"438 130 OFFCURVE",
"384 89 OFFCURVE",
"307 89 CURVE SMOOTH",
"153 89 LINE",
"192 311 LINE",
"342 311 LINE SMOOTH",
"418 311 OFFCURVE",
"463 268 OFFCURVE",
"450 199 CURVE SMOOTH"
);
}
);
width = 630;
},
{
layerId = "3EDF6DF0-3C7E-41C9-BACE-D197D96B1B4F";
name = public.background;
paths = (
{
closed = 1;
nodes = (
"474 437 OFFCURVE",
"412 376 OFFCURVE",
"293 376 CURVE SMOOTH",
"105 376 LINE",
"105 684 LINE",
"287 684 LINE SMOOTH",
"419 684 OFFCURVE",
"474 620 OFFCURVE",
"474 532 CURVE"
);
},
{
closed = 1;
nodes = (
"510 293 OFFCURVE",
"426 369 OFFCURVE",
"320 369 CURVE",
"312 361 LINE",
"402 362 OFFCURVE",
"494 411 OFFCURVE",
"494 532 CURVE",
"494 628 OFFCURVE",
"434 704 OFFCURVE",
"287 704 CURVE SMOOTH",
"85 704 LINE",
"85 0 LINE",
"287 0 LINE SMOOTH",
"439 0 OFFCURVE",
"510 84 OFFCURVE",
"510 188 CURVE SMOOTH"
);
},
{
closed = 1;
nodes = (
"490 84 OFFCURVE",
"415 20 OFFCURVE",
"287 20 CURVE SMOOTH",
"105 20 LINE",
"105 356 LINE",
"285 356 LINE SMOOTH",
"413 356 OFFCURVE",
"490 290 OFFCURVE",
"490 188 CURVE SMOOTH"
);
}
);
width = 560;
},
{
layerId = "2AA9BEE2-6224-4C6D-925B-2F440B8C2D06";
paths = (
{
closed = 1;
nodes = (
"503 437 OFFCURVE",
"431 376 OFFCURVE",
"312 376 CURVE SMOOTH",
"124 376 LINE",
"178 684 LINE",
"360 684 LINE SMOOTH",
"492 684 OFFCURVE",
"536 620 OFFCURVE",
"520 532 CURVE SMOOTH"
);
},
{
closed = 1;
nodes = (
"514 293 OFFCURVE",
"443 369 OFFCURVE",
"346 369 CURVE",
"337 361 LINE",
"418 362 OFFCURVE",
"519 411 OFFCURVE",
"540 532 CURVE SMOOTH",
"557 628 OFFCURVE",
"511 704 OFFCURVE",
"364 704 CURVE SMOOTH",
"162 704 LINE",
"37 0 LINE",
"239 0 LINE SMOOTH",
"391 0 OFFCURVE",
"477 84 OFFCURVE",
"496 188 CURVE SMOOTH"
);
},
{
closed = 1;
nodes = (
"457 84 OFFCURVE",
"371 20 OFFCURVE",
"243 20 CURVE SMOOTH",
"61 20 LINE",
"120 356 LINE",
"300 356 LINE SMOOTH",
"428 356 OFFCURVE",
"494 290 OFFCURVE",
"476 188 CURVE SMOOTH"
);
}
);
width = 560;
}
);
unicode = 0042;
},
{
glyphname = C;
layers = (
{
anchors = (
{
name = bottom;
position = "{327, 0}";
},
{
name = top;
position = "{453, 711}";
}
);
layerId = "CB828171-4BC8-495A-B1C3-011CB1482BD7";
paths = (
{
closed = 1;
nodes = (
"6 144 OFFCURVE",
"112 -5 OFFCURVE",
"329 -5 CURVE SMOOTH",
"516 -5 OFFCURVE",
"663 107 OFFCURVE",
"722 274 CURVE",
"488 274 LINE",
"458 227 OFFCURVE",
"412 200 OFFCURVE",
"362 200 CURVE SMOOTH",
"287 200 OFFCURVE",
"251 261 OFFCURVE",
"268 355 CURVE SMOOTH",
"284 449 OFFCURVE",
"341 510 OFFCURVE",
"416 510 CURVE SMOOTH",
"466 510 OFFCURVE",
"503 483 OFFCURVE",
"516 436 CURVE",
"750 436 LINE",
"751 603 OFFCURVE",
"643 715 OFFCURVE",
"456 715 CURVE SMOOTH",
"239 715 OFFCURVE",
"80 566 OFFCURVE",
"43 355 CURVE SMOOTH"
);
}
);
width = 753;
},
{
anchors = (
{
name = bottom;
position = "{334, 0}";
},
{
name = top;
position = "{457, 696}";
}
);
layerId = "0C75E9AD-DE1E-462B-B5DF-43688A01D7EC";
paths = (
{
closed = 1;
nodes = (
"10 140 OFFCURVE",
"143 -6 OFFCURVE",
"339 -6 CURVE SMOOTH",
"484 -6 OFFCURVE",
"622 66 OFFCURVE",
"699 202 CURVE",
"562 202 LINE",
"513 132 OFFCURVE",
"440 97 OFFCURVE",
"357 97 CURVE SMOOTH",
"219 97 OFFCURVE",
"137 196 OFFCURVE",
"164 349 CURVE SMOOTH",
"191 502 OFFCURVE",
"308 600 OFFCURVE",
"446 600 CURVE SMOOTH",
"529 600 OFFCURVE",
"589 565 OFFCURVE",
"614 495 CURVE",
"751 495 LINE",
"722 631 OFFCURVE",
"609 704 OFFCURVE",
"464 704 CURVE SMOOTH",
"268 704 OFFCURVE",
"84 557 OFFCURVE",
"47 349 CURVE SMOOTH"
);
}
);
width = 773;
},
{
anchors = (
{
name = bottom;
position = "{363, 0}";
},
{
name = top;
position = "{484, 683}";
}
);
layerId = "2AA9BEE2-6224-4C6D-925B-2F440B8C2D06";
paths = (
{
closed = 1;
nodes = (
"37 141 OFFCURVE",
"148 -7 OFFCURVE",
"339 -7 CURVE SMOOTH",
"508 -7 OFFCURVE",
"627 78 OFFCURVE",
"698 207 CURVE",
"678 207 LINE",
"617 95 OFFCURVE",
"502 11 OFFCURVE",
"342 11 CURVE SMOOTH",
"172 11 OFFCURVE",
"58 140 OFFCURVE",
"95 351 CURVE SMOOTH",
"133 564 OFFCURVE",
"293 693 OFFCURVE",
"463 693 CURVE SMOOTH",
"623 693 OFFCURVE",
"708 609 OFFCURVE",
"729 496 CURVE",
"749 496 LINE",
"724 626 OFFCURVE",
"635 711 OFFCURVE",
"466 711 CURVE SMOOTH",
"275 711 OFFCURVE",
"112 563 OFFCURVE",
"74 351 CURVE SMOOTH"
);
}
);
width = 769;
}
);
unicode = 0043;
},
{
glyphname = Cacute;
layers = (
{
layerId = "CB828171-4BC8-495A-B1C3-011CB1482BD7";
paths = (
{
closed = 1;
nodes = (
"6 144 OFFCURVE",
"112 -5 OFFCURVE",
"329 -5 CURVE SMOOTH",
"516 -5 OFFCURVE",
"663 107 OFFCURVE",
"722 274 CURVE",
"488 274 LINE",
"458 227 OFFCURVE",
"412 200 OFFCURVE",
"362 200 CURVE SMOOTH",
"287 200 OFFCURVE",
"251 261 OFFCURVE",
"268 355 CURVE SMOOTH",
"284 449 OFFCURVE",
"341 510 OFFCURVE",
"416 510 CURVE SMOOTH",
"466 510 OFFCURVE",
"503 483 OFFCURVE",
"516 436 CURVE",
"750 436 LINE",
"751 603 OFFCURVE",
"643 715 OFFCURVE",
"456 715 CURVE SMOOTH",
"239 715 OFFCURVE",
"80 566 OFFCURVE",
"43 355 CURVE SMOOTH"
);
},
{
closed = 1;
nodes = (
"355 897 LINE",
"328 749 LINE",
"604 843 LINE",
"633 1007 LINE"
);
}
);
width = 753;
},
{
layerId = "0C75E9AD-DE1E-462B-B5DF-43688A01D7EC";
paths = (
{
closed = 1;
nodes = (
"10 140 OFFCURVE",
"143 -6 OFFCURVE",
"339 -6 CURVE SMOOTH",
"484 -6 OFFCURVE",
"622 66 OFFCURVE",
"699 202 CURVE",
"562 202 LINE",
"513 132 OFFCURVE",
"440 97 OFFCURVE",
"357 97 CURVE SMOOTH",
"219 97 OFFCURVE",
"137 196 OFFCURVE",
"164 349 CURVE SMOOTH",
"191 502 OFFCURVE",
"308 600 OFFCURVE",
"446 600 CURVE SMOOTH",
"529 600 OFFCURVE",
"589 565 OFFCURVE",
"614 495 CURVE",
"751 495 LINE",
"722 631 OFFCURVE",
"609 704 OFFCURVE",
"464 704 CURVE SMOOTH",
"268 704 OFFCURVE",
"84 557 OFFCURVE",
"47 349 CURVE SMOOTH"
);
},
{
closed = 1;
nodes = (
"361 819 LINE",
"346 735 LINE",
"587 844 LINE",
"604 941 LINE"
);
}
);
width = 773;
},
{
layerId = "2AA9BEE2-6224-4C6D-925B-2F440B8C2D06";
paths = (
{
closed = 1;
nodes = (
"37 141 OFFCURVE",
"148 -7 OFFCURVE",
"339 -7 CURVE SMOOTH",
"508 -7 OFFCURVE",
"627 78 OFFCURVE",
"698 207 CURVE",
"678 207 LINE",
"617 95 OFFCURVE",
"502 11 OFFCURVE",
"342 11 CURVE SMOOTH",
"172 11 OFFCURVE",
"58 140 OFFCURVE",
"95 351 CURVE SMOOTH",
"133 564 OFFCURVE",
"293 693 OFFCURVE",
"463 693 CURVE SMOOTH",
"623 693 OFFCURVE",
"708 609 OFFCURVE",
"729 496 CURVE",
"749 496 LINE",
"724 626 OFFCURVE",
"635 711 OFFCURVE",
"466 711 CURVE SMOOTH",
"275 711 OFFCURVE",
"112 563 OFFCURVE",
"74 351 CURVE SMOOTH"
);
},
{
closed = 1;
nodes = (
"388 749 LINE",
"385 729 LINE",
"595 859 LINE",
"599 883 LINE"
);
}
);
width = 769;
}
);
unicode = 0106;
},
{
glyphname = Ccaron;
layers = (
{
layerId = "CB828171-4BC8-495A-B1C3-011CB1482BD7";
paths = (
{
closed = 1;
nodes = (
"6 144 OFFCURVE",
"112 -5 OFFCURVE",
"329 -5 CURVE SMOOTH",
"516 -5 OFFCURVE",
"663 107 OFFCURVE",
"722 274 CURVE",
"488 274 LINE",
"458 227 OFFCURVE",
"412 200 OFFCURVE",
"362 200 CURVE SMOOTH",
"287 200 OFFCURVE",
"251 261 OFFCURVE",
"268 355 CURVE SMOOTH",
"284 449 OFFCURVE",
"341 510 OFFCURVE",
"416 510 CURVE SMOOTH",
"466 510 OFFCURVE",
"503 483 OFFCURVE",
"516 436 CURVE",
"750 436 LINE",
"751 603 OFFCURVE",
"643 715 OFFCURVE",
"456 715 CURVE SMOOTH",
"239 715 OFFCURVE",
"80 566 OFFCURVE",
"43 355 CURVE SMOOTH"
);
},
{
closed = 1;
nodes = (
"483 880 LINE",
"332 968 LINE",
"307 824 LINE",
"458 739 LINE",
"638 824 LINE",
"663 968 LINE"
);
}
);
width = 753;
},
{
layerId = "0C75E9AD-DE1E-462B-B5DF-43688A01D7EC";
paths = (
{
closed = 1;
nodes = (
"10 140 OFFCURVE",
"143 -6 OFFCURVE",
"339 -6 CURVE SMOOTH",
"484 -6 OFFCURVE",
"622 66 OFFCURVE",
"699 202 CURVE",
"562 202 LINE",
"513 132 OFFCURVE",
"440 97 OFFCURVE",
"357 97 CURVE SMOOTH",
"219 97 OFFCURVE",
"137 196 OFFCURVE",
"164 349 CURVE SMOOTH",
"191 502 OFFCURVE",
"308 600 OFFCURVE",
"446 600 CURVE SMOOTH",
"529 600 OFFCURVE",
"589 565 OFFCURVE",
"614 495 CURVE",
"751 495 LINE",
"722 631 OFFCURVE",
"609 704 OFFCURVE",
"464 704 CURVE SMOOTH",
"268 704 OFFCURVE",
"84 557 OFFCURVE",
"47 349 CURVE SMOOTH"
);
},
{
closed = 1;
nodes = (
"481 827 LINE",
"353 913 LINE",
"337 824 LINE",
"465 741 LINE",
"623 824 LINE",
"639 913 LINE"
);
}
);
width = 773;
},
{
layerId = "2AA9BEE2-6224-4C6D-925B-2F440B8C2D06";
paths = (
{
closed = 1;
nodes = (
"37 141 OFFCURVE",
"148 -7 OFFCURVE",
"339 -7 CURVE SMOOTH",
"508 -7 OFFCURVE",
"627 78 OFFCURVE",
"698 207 CURVE",
"678 207 LINE",
"617 95 OFFCURVE",
"502 11 OFFCURVE",
"342 11 CURVE SMOOTH",
"172 11 OFFCURVE",
"58 140 OFFCURVE",
"95 351 CURVE SMOOTH",
"133 564 OFFCURVE",
"293 693 OFFCURVE",
"463 693 CURVE SMOOTH",
"623 693 OFFCURVE",
"708 609 OFFCURVE",
"729 496 CURVE",
"749 496 LINE",
"724 626 OFFCURVE",
"635 711 OFFCURVE",
"466 711 CURVE SMOOTH",
"275 711 OFFCURVE",
"112 563 OFFCURVE",
"74 351 CURVE SMOOTH"
);
},
{
closed = 1;
nodes = (
"501 780 LINE",
"391 861 LINE",
"387 841 LINE",
"497 760 LINE",
"634 841 LINE",
"638 861 LINE"
);
}
);
width = 769;
}
);
unicode = 010C;
},
{
glyphname = Ccedilla;
layers = (
{
layerId = "CB828171-4BC8-495A-B1C3-011CB1482BD7";
paths = (
{
closed = 1;
nodes = (
"6 144 OFFCURVE",
"112 -5 OFFCURVE",
"329 -5 CURVE SMOOTH",
"516 -5 OFFCURVE",
"663 107 OFFCURVE",
"722 274 CURVE",
"488 274 LINE",
"458 227 OFFCURVE",
"412 200 OFFCURVE",
"362 200 CURVE SMOOTH",
"287 200 OFFCURVE",
"251 261 OFFCURVE",
"268 355 CURVE SMOOTH",
"284 449 OFFCURVE",
"341 510 OFFCURVE",
"416 510 CURVE SMOOTH",
"466 510 OFFCURVE",
"503 483 OFFCURVE",
"516 436 CURVE",
"750 436 LINE",
"751 603 OFFCURVE",
"643 715 OFFCURVE",
"456 715 CURVE SMOOTH",
"239 715 OFFCURVE",
"80 566 OFFCURVE",
"43 355 CURVE SMOOTH"
);
},
{
closed = 1;
nodes = (
"401 0 LINE",
"273 0 LINE",
"249 -134 LINE",
"334 -134 LINE SMOOTH",
"350 -134 OFFCURVE",
"359 -139 OFFCURVE",
"357 -149 CURVE SMOOTH",
"355 -159 OFFCURVE",
"344 -165 OFFCURVE",
"328 -165 CURVE SMOOTH",
"178 -165 LINE",
"158 -278 LINE",
"331 -278 LINE SMOOTH",
"398 -278 OFFCURVE",
"486 -251 OFFCURVE",
"503 -156 CURVE SMOOTH",
"520 -61 OFFCURVE",
"443 -34 OFFCURVE",
"395 -34 CURVE"
);
}
);
width = 753;
},
{
layerId = "0C75E9AD-DE1E-462B-B5DF-43688A01D7EC";
paths = (
{
closed = 1;
nodes = (
"10 140 OFFCURVE",
"143 -6 OFFCURVE",
"339 -6 CURVE SMOOTH",
"484 -6 OFFCURVE",
"622 66 OFFCURVE",
"699 202 CURVE",
"562 202 LINE",
"513 132 OFFCURVE",
"440 97 OFFCURVE",
"357 97 CURVE SMOOTH",
"219 97 OFFCURVE",
"137 196 OFFCURVE",
"164 349 CURVE SMOOTH",
"191 502 OFFCURVE",
"308 600 OFFCURVE",
"446 600 CURVE SMOOTH",
"529 600 OFFCURVE",
"589 565 OFFCURVE",
"614 495 CURVE",
"751 495 LINE",
"722 631 OFFCURVE",
"609 704 OFFCURVE",
"464 704 CURVE SMOOTH",
"268 704 OFFCURVE",
"84 557 OFFCURVE",
"47 349 CURVE SMOOTH"
);
},
{
closed = 1;
nodes = (
"377 7 LINE",
"302 7 LINE",
"280 -116 LINE",
"335 -116 LINE SMOOTH",
"370 -116 OFFCURVE",
"390 -123 OFFCURVE",
"384 -153 CURVE",
"379 -183 OFFCURVE",
"357 -190 OFFCURVE",
"322 -190 CURVE SMOOTH",
"213 -190 LINE",
"200 -262 LINE",
"332 -262 LINE SMOOTH",
"403 -262 OFFCURVE",
"466 -221 OFFCURVE",
"478 -153 CURVE SMOOTH",
"491 -84 OFFCURVE",
"441 -48 OFFCURVE",
"367 -48 CURVE"
);
}
);
width = 773;
},
{
layerId = "2AA9BEE2-6224-4C6D-925B-2F440B8C2D06";
paths = (
{
closed = 1;
nodes = (
"37 141 OFFCURVE",
"148 -7 OFFCURVE",
"339 -7 CURVE SMOOTH",
"508 -7 OFFCURVE",
"627 78 OFFCURVE",
"698 207 CURVE",
"678 207 LINE",
"617 95 OFFCURVE",
"502 11 OFFCURVE",
"342 11 CURVE SMOOTH",
"172 11 OFFCURVE",
"58 140 OFFCURVE",
"95 351 CURVE SMOOTH",
"133 564 OFFCURVE",
"293 693 OFFCURVE",
"463 693 CURVE SMOOTH",
"623 693 OFFCURVE",
"708 609 OFFCURVE",
"729 496 CURVE",
"749 496 LINE",
"724 626 OFFCURVE",
"635 711 OFFCURVE",
"466 711 CURVE SMOOTH",
"275 711 OFFCURVE",
"112 563 OFFCURVE",
"74 351 CURVE SMOOTH"
);
},
{
closed = 1;
nodes = (
"377 7 LINE",
"357 7 LINE",
"337 -107 LINE",
"374 -107 LINE SMOOTH",
"441 -107 OFFCURVE",
"458 -135 OFFCURVE",
"452 -168 CURVE SMOOTH",
"445 -207 OFFCURVE",
"418 -234 OFFCURVE",
"351 -234 CURVE SMOOTH",
"291 -234 LINE",
"288 -254 LINE",
"351 -254 LINE SMOOTH",
"421 -254 OFFCURVE",
"463 -218 OFFCURVE",
"472 -168 CURVE SMOOTH",
"481 -114 OFFCURVE",
"444 -84 OFFCURVE",
"360 -89 CURVE"
);
}
);
width = 769;
}
);
unicode = 00C7;
},
{
glyphname = Cdotaccent;
layers = (
{
layerId = "CB828171-4BC8-495A-B1C3-011CB1482BD7";
paths = (
{
closed = 1;
nodes = (
"6 144 OFFCURVE",
"112 -5 OFFCURVE",
"329 -5 CURVE SMOOTH",
"516 -5 OFFCURVE",
"663 107 OFFCURVE",
"722 274 CURVE",
"488 274 LINE",
"458 227 OFFCURVE",
"412 200 OFFCURVE",
"362 200 CURVE SMOOTH",
"287 200 OFFCURVE",
"251 261 OFFCURVE",
"268 355 CURVE SMOOTH",
"284 449 OFFCURVE",
"341 510 OFFCURVE",
"416 510 CURVE SMOOTH",
"466 510 OFFCURVE",
"503 483 OFFCURVE",
"516 436 CURVE",
"750 436 LINE",
"751 603 OFFCURVE",
"643 715 OFFCURVE",
"456 715 CURVE SMOOTH",
"239 715 OFFCURVE",
"80 566 OFFCURVE",
"43 355 CURVE SMOOTH"
);
},
{
closed = 1;
nodes = (
"511 767 OFFCURVE",
"554 804 OFFCURVE",
"563 852 CURVE",
"571 902 OFFCURVE",
"541 939 OFFCURVE",
"491 939 CURVE SMOOTH",
"443 939 OFFCURVE",
"399 902 OFFCURVE",
"391 852 CURVE",
"382 804 OFFCURVE",
"413 767 OFFCURVE",
"461 767 CURVE SMOOTH"
);
}
);
width = 753;
},
{
layerId = "0C75E9AD-DE1E-462B-B5DF-43688A01D7EC";
paths = (
{
closed = 1;
nodes = (
"10 140 OFFCURVE",
"143 -6 OFFCURVE",
"339 -6 CURVE SMOOTH",
"484 -6 OFFCURVE",
"622 66 OFFCURVE",
"699 202 CURVE",
"562 202 LINE",
"513 132 OFFCURVE",
"440 97 OFFCURVE",
"357 97 CURVE SMOOTH",
"219 97 OFFCURVE",
"137 196 OFFCURVE",
"164 349 CURVE SMOOTH",
"191 502 OFFCURVE",
"308 600 OFFCURVE",
"446 600 CURVE SMOOTH",
"529 600 OFFCURVE",
"589 565 OFFCURVE",
"614 495 CURVE",
"751 495 LINE",
"722 631 OFFCURVE",
"609 704 OFFCURVE",
"464 704 CURVE SMOOTH",
"268 704 OFFCURVE",
"84 557 OFFCURVE",
"47 349 CURVE SMOOTH"
);
},
{
closed = 1;
nodes = (
"503 765 OFFCURVE",
"534 791 OFFCURVE",
"540 825 CURVE SMOOTH",
"546 858 OFFCURVE",
"524 885 OFFCURVE",
"491 885 CURVE SMOOTH",
"457 885 OFFCURVE",
"426 858 OFFCURVE",
"420 825 CURVE SMOOTH",
"414 791 OFFCURVE",
"436 765 OFFCURVE",
"470 765 CURVE SMOOTH"
);
}
);
width = 773;
},
{
layerId = "2AA9BEE2-6224-4C6D-925B-2F440B8C2D06";
paths = (
{
closed = 1;
nodes = (
"37 141 OFFCURVE",
"148 -7 OFFCURVE",
"339 -7 CURVE SMOOTH",
"508 -7 OFFCURVE",
"627 78 OFFCURVE",
"698 207 CURVE",
"678 207 LINE",
"617 95 OFFCURVE",
"502 11 OFFCURVE",
"342 11 CURVE SMOOTH",
"172 11 OFFCURVE",
"58 140 OFFCURVE",
"95 351 CURVE SMOOTH",
"133 564 OFFCURVE",
"293 693 OFFCURVE",
"463 693 CURVE SMOOTH",
"623 693 OFFCURVE",
"708 609 OFFCURVE",
"729 496 CURVE",
"749 496 LINE",
"724 626 OFFCURVE",
"635 711 OFFCURVE",
"466 711 CURVE SMOOTH",
"275 711 OFFCURVE",
"112 563 OFFCURVE",
"74 351 CURVE SMOOTH"
);
},
{
closed = 1;
nodes = (
"511 748 OFFCURVE",
"527 762 OFFCURVE",
"530 778 CURVE SMOOTH",
"533 794 OFFCURVE",
"522 808 OFFCURVE",
"506 808 CURVE SMOOTH",
"490 808 OFFCURVE",
"473 794 OFFCURVE",
"470 778 CURVE SMOOTH",
"467 762 OFFCURVE",
"479 748 OFFCURVE",
"495 748 CURVE SMOOTH"
);
}
);
width = 769;
}
);
unicode = 010A;
},
{
glyphname = D;
layers = (
{
anchors = (
{
name = top;
position = "{435, 711}";
}
);
layerId = "CB828171-4BC8-495A-B1C3-011CB1482BD7";
paths = (
{
closed = 1;
nodes = (
"125 708 LINE",
"0 0 LINE",
"295 0 LINE SMOOTH",
"521 0 OFFCURVE",
"690 154 OFFCURVE",
"726 356 CURVE SMOOTH",
"762 560 OFFCURVE",
"646 708 OFFCURVE",
"420 708 CURVE SMOOTH"
);
},
{
closed = 1;
nodes = (
"257 198 LINE",
"313 514 LINE",
"366 514 LINE SMOOTH",
"464 514 OFFCURVE",
"519 459 OFFCURVE",
"501 356 CURVE SMOOTH",
"483 253 OFFCURVE",
"408 198 OFFCURVE",
"310 198 CURVE SMOOTH"
);
}
);
width = 743;
},
{
anchors = (
{
name = top;
position = "{426, 696}";
}
);
layerId = "0C75E9AD-DE1E-462B-B5DF-43688A01D7EC";
paths = (
{
closed = 1;
nodes = (
"146 695 LINE",
"23 0 LINE",
"250 0 LINE SMOOTH",
"473 0 OFFCURVE",
"642 131 OFFCURVE",
"680 345 CURVE SMOOTH",
"718 560 OFFCURVE",
"596 695 OFFCURVE",
"373 695 CURVE SMOOTH"
);
},
{
closed = 1;
nodes = (
"153 87 LINE",
"244 603 LINE",
"357 603 LINE SMOOTH",
"521 603 OFFCURVE",
"591 504 OFFCURVE",
"563 345 CURVE SMOOTH",
"535 187 OFFCURVE",
"430 87 OFFCURVE",
"266 87 CURVE SMOOTH"
);
}
);
width = 709;
},
{
anchors = (
{
name = top;
position = "{413, 683}";
}
);
layerId = "2AA9BEE2-6224-4C6D-925B-2F440B8C2D06";
paths = (
{
closed = 1;
nodes = (
"162 704 LINE",
"37 0 LINE",
"222 0 LINE SMOOTH",
"467 0 OFFCURVE",
"617 130 OFFCURVE",
"656 352 CURVE SMOOTH",
"696 574 OFFCURVE",
"592 704 OFFCURVE",
"347 704 CURVE SMOOTH"
);
},
{
closed = 1;
nodes = (
"61 18 LINE",
"178 686 LINE",
"343 686 LINE SMOOTH",
"579 686 OFFCURVE",
"673 558 OFFCURVE",
"636 352 CURVE SMOOTH",
"600 146 OFFCURVE",
"462 18 OFFCURVE",
"226 18 CURVE SMOOTH"
);
}
);
width = 702;
}
);
unicode = 0044;
},
{
glyphname = Eth;
layers = (
{
layerId = "CB828171-4BC8-495A-B1C3-011CB1482BD7";
paths = (
{
closed = 1;
nodes = (
"-2 268 LINE",
"400 268 LINE",
"431 444 LINE",
"29 444 LINE"
);
},
{
closed = 1;
nodes = (
"125 708 LINE",
"0 0 LINE",
"295 0 LINE SMOOTH",
"521 0 OFFCURVE",
"690 154 OFFCURVE",
"726 356 CURVE SMOOTH",
"762 560 OFFCURVE",
"646 708 OFFCURVE",
"420 708 CURVE SMOOTH"
);
},
{
closed = 1;
nodes = (
"257 198 LINE",
"313 514 LINE",
"366 514 LINE SMOOTH",
"464 514 OFFCURVE",
"519 459 OFFCURVE",
"501 356 CURVE SMOOTH",
"483 253 OFFCURVE",
"408 198 OFFCURVE",
"310 198 CURVE SMOOTH"
);
}
);
width = 743;
},
{
layerId = "0C75E9AD-DE1E-462B-B5DF-43688A01D7EC";
paths = (
{
closed = 1;
nodes = (
"9 293 LINE",
"379 293 LINE",
"398 398 LINE",
"28 398 LINE"
);
},
{
closed = 1;
nodes = (
"157 695 LINE",
"34 0 LINE",
"262 0 LINE SMOOTH",
"485 0 OFFCURVE",
"653 131 OFFCURVE",
"691 345 CURVE SMOOTH",
"729 560 OFFCURVE",
"608 695 OFFCURVE",
"385 695 CURVE SMOOTH"
);
},
{
closed = 1;
nodes = (
"165 87 LINE",
"256 603 LINE",
"369 603 LINE SMOOTH",
"532 603 OFFCURVE",
"602 504 OFFCURVE",
"574 345 CURVE SMOOTH",
"546 187 OFFCURVE",
"441 87 OFFCURVE",
"278 87 CURVE SMOOTH"
);
}
);
width = 720;
},
{
layerId = "2AA9BEE2-6224-4C6D-925B-2F440B8C2D06";
paths = (
{
closed = 1;
nodes = (
"23 343 LINE",
"391 343 LINE",
"394 361 LINE",
"26 361 LINE"
);
},
{
closed = 1;
nodes = (
"202 704 LINE",
"77 0 LINE",
"262 0 LINE SMOOTH",
"507 0 OFFCURVE",
"657 130 OFFCURVE",
"696 352 CURVE SMOOTH",
"736 574 OFFCURVE",
"632 704 OFFCURVE",
"387 704 CURVE SMOOTH"
);
},
{
closed = 1;
nodes = (
"101 18 LINE",
"218 686 LINE",
"383 686 LINE SMOOTH",
"619 686 OFFCURVE",
"713 558 OFFCURVE",
"676 352 CURVE SMOOTH",
"640 146 OFFCURVE",
"502 18 OFFCURVE",
"266 18 CURVE SMOOTH"
);
}
);
width = 742;
}
);
unicode = 00D0;
},
{
glyphname = Dcaron;
layers = (
{
layerId = "CB828171-4BC8-495A-B1C3-011CB1482BD7";
paths = (
{
closed = 1;
nodes = (
"125 708 LINE",
"0 0 LINE",
"295 0 LINE SMOOTH",
"521 0 OFFCURVE",
"690 154 OFFCURVE",
"726 356 CURVE SMOOTH",
"762 560 OFFCURVE",
"646 708 OFFCURVE",
"420 708 CURVE SMOOTH"
);
},
{
closed = 1;
nodes = (
"257 198 LINE",
"313 514 LINE",
"366 514 LINE SMOOTH",
"464 514 OFFCURVE",
"519 459 OFFCURVE",
"501 356 CURVE SMOOTH",
"483 253 OFFCURVE",
"408 198 OFFCURVE",
"310 198 CURVE SMOOTH"
);
},
{
closed = 1;
nodes = (
"465 880 LINE",
"314 968 LINE",
"289 824 LINE",
"440 739 LINE",
"620 824 LINE",
"645 968 LINE"
);
}
);
width = 743;
},
{
layerId = "0C75E9AD-DE1E-462B-B5DF-43688A01D7EC";
paths = (
{
closed = 1;
nodes = (
"146 695 LINE",
"23 0 LINE",
"250 0 LINE SMOOTH",
"473 0 OFFCURVE",
"642 131 OFFCURVE",
"680 345 CURVE SMOOTH",
"718 560 OFFCURVE",
"596 695 OFFCURVE",
"373 695 CURVE SMOOTH"
);
},
{
closed = 1;
nodes = (
"153 87 LINE",
"244 603 LINE",
"357 603 LINE SMOOTH",
"521 603 OFFCURVE",
"591 504 OFFCURVE",
"563 345 CURVE SMOOTH",
"535 187 OFFCURVE",
"430 87 OFFCURVE",
"266 87 CURVE SMOOTH"
);
},
{
closed = 1;
nodes = (
"450 827 LINE",
"322 913 LINE",
"306 824 LINE",
"434 741 LINE",
"592 824 LINE",
"608 913 LINE"
);
}
);
width = 709;
},
{
layerId = "2AA9BEE2-6224-4C6D-925B-2F440B8C2D06";
paths = (
{
closed = 1;
nodes = (
"162 704 LINE",
"37 0 LINE",
"222 0 LINE SMOOTH",
"467 0 OFFCURVE",
"617 130 OFFCURVE",
"656 352 CURVE SMOOTH",
"696 574 OFFCURVE",
"592 704 OFFCURVE",
"347 704 CURVE SMOOTH"
);
},
{
closed = 1;
nodes = (
"61 18 LINE",
"178 686 LINE",
"343 686 LINE SMOOTH",
"579 686 OFFCURVE",
"673 558 OFFCURVE",
"636 352 CURVE SMOOTH",
"600 146 OFFCURVE",
"462 18 OFFCURVE",
"226 18 CURVE SMOOTH"
);
},
{
closed = 1;
nodes = (
"430 780 LINE",
"320 861 LINE",
"316 841 LINE",
"426 760 LINE",
"563 841 LINE",
"567 861 LINE"
);
}
);
width = 702;
}
);
unicode = 010E;
},
{
glyphname = Dcroat;
layers = (
{
layerId = "CB828171-4BC8-495A-B1C3-011CB1482BD7";
paths = (
{
closed = 1;
nodes = (
"-2 268 LINE",
"400 268 LINE",
"431 444 LINE",
"29 444 LINE"
);
},
{
closed = 1;
nodes = (
"125 708 LINE",
"0 0 LINE",
"295 0 LINE SMOOTH",
"521 0 OFFCURVE",
"690 154 OFFCURVE",
"726 356 CURVE SMOOTH",
"762 560 OFFCURVE",
"646 708 OFFCURVE",
"420 708 CURVE SMOOTH"
);
},
{
closed = 1;
nodes = (
"257 198 LINE",
"313 514 LINE",
"366 514 LINE SMOOTH",
"464 514 OFFCURVE",
"519 459 OFFCURVE",
"501 356 CURVE SMOOTH",
"483 253 OFFCURVE",
"408 198 OFFCURVE",
"310 198 CURVE SMOOTH"
);
}
);
width = 743;
},
{
layerId = "0C75E9AD-DE1E-462B-B5DF-43688A01D7EC";
paths = (
{
closed = 1;
nodes = (
"9 293 LINE",
"379 293 LINE",
"398 398 LINE",
"28 398 LINE"
);
},
{
closed = 1;
nodes = (
"157 695 LINE",
"34 0 LINE",
"262 0 LINE SMOOTH",
"485 0 OFFCURVE",
"653 131 OFFCURVE",
"691 345 CURVE SMOOTH",
"729 560 OFFCURVE",
"608 695 OFFCURVE",
"385 695 CURVE SMOOTH"
);
},
{
closed = 1;
nodes = (
"165 87 LINE",
"256 603 LINE",
"369 603 LINE SMOOTH",
"532 603 OFFCURVE",
"602 504 OFFCURVE",
"574 345 CURVE SMOOTH",
"546 187 OFFCURVE",
"441 87 OFFCURVE",
"278 87 CURVE SMOOTH"
);
}
);
width = 720;
},
{
layerId = "2AA9BEE2-6224-4C6D-925B-2F440B8C2D06";
paths = (
{
closed = 1;
nodes = (
"23 343 LINE",
"391 343 LINE",
"394 361 LINE",
"26 361 LINE"
);
},
{
closed = 1;
nodes = (
"202 704 LINE",
"77 0 LINE",
"262 0 LINE SMOOTH",
"507 0 OFFCURVE",
"657 130 OFFCURVE",
"696 352 CURVE SMOOTH",
"736 574 OFFCURVE",
"632 704 OFFCURVE",
"387 704 CURVE SMOOTH"
);
},
{
closed = 1;
nodes = (
"101 18 LINE",
"218 686 LINE",
"383 686 LINE SMOOTH",
"619 686 OFFCURVE",
"713 558 OFFCURVE",
"676 352 CURVE SMOOTH",
"640 146 OFFCURVE",
"502 18 OFFCURVE",
"266 18 CURVE SMOOTH"
);
}
);
width = 742;
}
);
unicode = 0110;
},
{
glyphname = E;
layers = (
{
anchors = (
{
name = bottom;
position = "{232, 0}";
},
{
name = ogonek;
position = "{472, 0}";
},
{
name = top;
position = "{358, 711}";
}
);
layerId = "CB828171-4BC8-495A-B1C3-011CB1482BD7";
paths = (
{
closed = 1;
nodes = (
"597 708 LINE",
"125 708 LINE",
"0 0 LINE",
"472 0 LINE",
"503 177 LINE",
"253 177 LINE",
"271 277 LINE",
"491 277 LINE",
"521 444 LINE",
"301 444 LINE",
"316 532 LINE",
"566 532 LINE"
);
}
);
width = 556;
},
{
anchors = (
{
name = bottom;
position = "{210, 0}";
},
{
name = ogonek;
position = "{407, 0}";
},
{
name = top;
position = "{333, 696}";
}
);
layerId = "0C75E9AD-DE1E-462B-B5DF-43688A01D7EC";
paths = (
{
closed = 1;
nodes = (
"530 696 LINE",
"146 696 LINE",
"23 0 LINE",
"407 0 LINE",
"423 89 LINE",
"153 89 LINE",
"192 308 LINE",
"432 308 LINE",
"447 396 LINE",
"207 396 LINE",
"244 607 LINE",
"514 607 LINE"
);
}
);
width = 524;
},
{
anchors = (
{
name = bottom;
position = "{185, 0}";
},
{
name = ogonek;
position = "{381, 0}";
},
{
name = top;
position = "{306, 683}";
}
);
layerId = "2AA9BEE2-6224-4C6D-925B-2F440B8C2D06";
paths = (
{
closed = 1;
nodes = (
"506 704 LINE",
"162 704 LINE",
"37 0 LINE",
"381 0 LINE",
"385 18 LINE",
"61 18 LINE",
"118 343 LINE",
"412 343 LINE",
"415 361 LINE",
"121 361 LINE",
"178 686 LINE",
"502 686 LINE"
);
}
);
width = 479;
}
);
unicode = 0045;
},
{
glyphname = Eacute;
layers = (
{
layerId = "CB828171-4BC8-495A-B1C3-011CB1482BD7";
paths = (
{
closed = 1;
nodes = (
"597 708 LINE",
"125 708 LINE",
"0 0 LINE",
"472 0 LINE",
"503 177 LINE",
"253 177 LINE",
"271 277 LINE",
"491 277 LINE",
"521 444 LINE",
"301 444 LINE",
"316 532 LINE",
"566 532 LINE"
);
},
{
closed = 1;
nodes = (
"260 897 LINE",
"233 749 LINE",
"509 843 LINE",
"538 1007 LINE"
);
}
);
width = 556;
},
{
layerId = "0C75E9AD-DE1E-462B-B5DF-43688A01D7EC";
paths = (
{
closed = 1;
nodes = (
"530 696 LINE",
"146 696 LINE",
"23 0 LINE",
"407 0 LINE",
"423 89 LINE",
"153 89 LINE",
"192 308 LINE",
"432 308 LINE",
"447 396 LINE",
"207 396 LINE",
"244 607 LINE",
"514 607 LINE"
);
},
{
closed = 1;
nodes = (
"237 819 LINE",
"222 735 LINE",
"463 844 LINE",
"480 941 LINE"
);
}
);
width = 524;
},
{
layerId = "2AA9BEE2-6224-4C6D-925B-2F440B8C2D06";
paths = (
{
closed = 1;
nodes = (
"506 704 LINE",
"162 704 LINE",
"37 0 LINE",
"381 0 LINE",
"385 18 LINE",
"61 18 LINE",
"118 343 LINE",
"412 343 LINE",
"415 361 LINE",
"121 361 LINE",
"178 686 LINE",
"502 686 LINE"
);
},
{
closed = 1;
nodes = (
"210 749 LINE",
"207 729 LINE",
"417 859 LINE",
"421 883 LINE"
);
}
);
width = 479;
}
);
unicode = 00C9;
},
{
glyphname = Ebreve;
layers = (
{
layerId = "CB828171-4BC8-495A-B1C3-011CB1482BD7";
paths = (
{
closed = 1;
nodes = (
"597 708 LINE",
"125 708 LINE",
"0 0 LINE",
"472 0 LINE",
"503 177 LINE",
"253 177 LINE",
"271 277 LINE",
"491 277 LINE",
"521 444 LINE",
"301 444 LINE",
"316 532 LINE",
"566 532 LINE"
);
},
{
closed = 1;
nodes = (
"591 967 LINE",
"488 967 LINE",
"481 928 OFFCURVE",
"457 905 OFFCURVE",
"392 905 CURVE SMOOTH",
"327 905 OFFCURVE",
"311 928 OFFCURVE",
"318 967 CURVE",
"215 967 LINE",
"212 950 LINE SMOOTH",
"188 812 OFFCURVE",
"259 747 OFFCURVE",
"364 747 CURVE SMOOTH",
"469 747 OFFCURVE",
"564 812 OFFCURVE",
"588 950 CURVE SMOOTH"
);
}
);
width = 556;
},
{
layerId = "0C75E9AD-DE1E-462B-B5DF-43688A01D7EC";
paths = (
{
closed = 1;
nodes = (
"530 696 LINE",
"146 696 LINE",
"23 0 LINE",
"407 0 LINE",
"423 89 LINE",
"153 89 LINE",
"192 308 LINE",
"432 308 LINE",
"447 396 LINE",
"207 396 LINE",
"244 607 LINE",
"514 607 LINE"
);
},
{
closed = 1;
nodes = (
"523 914 LINE",
"457 914 LINE",
"449 869 OFFCURVE",
"424 842 OFFCURVE",
"359 842 CURVE SMOOTH",
"294 842 OFFCURVE",
"279 869 OFFCURVE",
"287 914 CURVE",
"222 914 LINE",
"218 893 LINE SMOOTH",
"204 810 OFFCURVE",
"250 753 OFFCURVE",
"344 753 CURVE SMOOTH",
"439 753 OFFCURVE",
"504 809 OFFCURVE",
"519 892 CURVE SMOOTH"
);
}
);
width = 524;
},
{
layerId = "2AA9BEE2-6224-4C6D-925B-2F440B8C2D06";
paths = (
{
closed = 1;
nodes = (
"506 704 LINE",
"162 704 LINE",
"37 0 LINE",
"381 0 LINE",
"385 18 LINE",
"61 18 LINE",
"118 343 LINE",
"412 343 LINE",
"415 361 LINE",
"121 361 LINE",
"178 686 LINE",
"502 686 LINE"
);
},
{
closed = 1;
nodes = (
"456 867 LINE",
"436 867 LINE",
"426 810 OFFCURVE",
"384 777 OFFCURVE",
"322 777 CURVE SMOOTH",
"260 777 OFFCURVE",
"230 810 OFFCURVE",
"240 867 CURVE",
"220 867 LINE",
"219 863 LINE",
"211 815 OFFCURVE",
"234 759 OFFCURVE",
"319 759 CURVE SMOOTH",
"404 759 OFFCURVE",
"447 815 OFFCURVE",
"455 863 CURVE"
);
}
);
width = 479;
}
);
unicode = 0114;
},
{
glyphname = Ecaron;
layers = (
{
layerId = "CB828171-4BC8-495A-B1C3-011CB1482BD7";
paths = (
{
closed = 1;
nodes = (
"597 708 LINE",
"125 708 LINE",
"0 0 LINE",
"472 0 LINE",
"503 177 LINE",
"253 177 LINE",
"271 277 LINE",
"491 277 LINE",
"521 444 LINE",
"301 444 LINE",
"316 532 LINE",
"566 532 LINE"
);
},
{
closed = 1;
nodes = (
"388 880 LINE",
"237 968 LINE",
"212 824 LINE",
"363 739 LINE",
"543 824 LINE",
"568 968 LINE"
);
}
);
width = 556;
},
{
layerId = "0C75E9AD-DE1E-462B-B5DF-43688A01D7EC";
paths = (
{
closed = 1;
nodes = (
"530 696 LINE",
"146 696 LINE",
"23 0 LINE",
"407 0 LINE",
"423 89 LINE",
"153 89 LINE",
"192 308 LINE",
"432 308 LINE",
"447 396 LINE",
"207 396 LINE",
"244 607 LINE",
"514 607 LINE"
);
},
{
closed = 1;
nodes = (
"357 827 LINE",
"229 913 LINE",
"213 824 LINE",
"341 741 LINE",
"499 824 LINE",
"515 913 LINE"
);
}
);
width = 524;
},
{
layerId = "2AA9BEE2-6224-4C6D-925B-2F440B8C2D06";
paths = (
{
closed = 1;
nodes = (
"506 704 LINE",
"162 704 LINE",
"37 0 LINE",
"381 0 LINE",
"385 18 LINE",
"61 18 LINE",
"118 343 LINE",
"412 343 LINE",
"415 361 LINE",
"121 361 LINE",
"178 686 LINE",
"502 686 LINE"
);
},
{
closed = 1;
nodes = (
"323 780 LINE",
"213 861 LINE",
"209 841 LINE",
"319 760 LINE",
"456 841 LINE",
"460 861 LINE"
);
}
);
width = 479;
}
);
unicode = 011A;
},
{
glyphname = Ecircumflex;
layers = (
{
layerId = "CB828171-4BC8-495A-B1C3-011CB1482BD7";
paths = (
{
closed = 1;
nodes = (
"597 708 LINE",
"125 708 LINE",
"0 0 LINE",
"472 0 LINE",
"503 177 LINE",
"253 177 LINE",
"271 277 LINE",
"491 277 LINE",
"521 444 LINE",
"301 444 LINE",
"316 532 LINE",
"566 532 LINE"
);
},
{
closed = 1;
nodes = (
"553 883 LINE",
"403 968 LINE",
"222 883 LINE",
"197 739 LINE",
"378 827 LINE",
"528 739 LINE"
);
}
);
width = 556;
},
{
layerId = "0C75E9AD-DE1E-462B-B5DF-43688A01D7EC";
paths = (
{
closed = 1;
nodes = (
"530 696 LINE",
"146 696 LINE",
"23 0 LINE",
"407 0 LINE",
"423 89 LINE",
"153 89 LINE",
"192 308 LINE",
"432 308 LINE",
"447 396 LINE",
"207 396 LINE",
"244 607 LINE",
"514 607 LINE"
);
},
{
closed = 1;
nodes = (
"500 830 LINE",
"372 913 LINE",
"214 830 LINE",
"198 741 LINE",
"357 827 LINE",
"484 741 LINE"
);
}
);
width = 524;
},
{
layerId = "2AA9BEE2-6224-4C6D-925B-2F440B8C2D06";
paths = (
{
closed = 1;
nodes = (
"506 704 LINE",
"162 704 LINE",
"37 0 LINE",
"381 0 LINE",
"385 18 LINE",
"61 18 LINE",
"118 343 LINE",
"412 343 LINE",
"415 361 LINE",
"121 361 LINE",
"178 686 LINE",
"502 686 LINE"
);
},
{
closed = 1;
nodes = (
"446 783 LINE",
"338 864 LINE",
"199 783 LINE",
"196 763 LINE",
"334 844 LINE",
"443 763 LINE"
);
}
);
width = 479;
}
);
unicode = 00CA;
},
{
glyphname = Edieresis;
layers = (
{
layerId = "CB828171-4BC8-495A-B1C3-011CB1482BD7";
paths = (
{
closed = 1;
nodes = (
"597 708 LINE",
"125 708 LINE",
"0 0 LINE",
"472 0 LINE",
"503 177 LINE",
"253 177 LINE",
"271 277 LINE",
"491 277 LINE",
"521 444 LINE",
"301 444 LINE",
"316 532 LINE",
"566 532 LINE"
);
},
{
closed = 1;
nodes = (
"309 767 OFFCURVE",
"357 812 OFFCURVE",
"357 868 CURVE SMOOTH",
"357 910 OFFCURVE",
"329 939 OFFCURVE",
"284 939 CURVE SMOOTH",
"231 939 OFFCURVE",
"182 894 OFFCURVE",
"182 836 CURVE SMOOTH",
"182 796 OFFCURVE",
"212 767 OFFCURVE",
"254 767 CURVE SMOOTH"
);
},
{
closed = 1;
nodes = (
"534 767 OFFCURVE",
"582 812 OFFCURVE",
"582 868 CURVE SMOOTH",
"582 910 OFFCURVE",
"554 939 OFFCURVE",
"509 939 CURVE SMOOTH",
"456 939 OFFCURVE",
"407 894 OFFCURVE",
"407 836 CURVE SMOOTH",
"407 796 OFFCURVE",
"437 767 OFFCURVE",
"479 767 CURVE SMOOTH"
);
}
);
width = 556;
},
{
layerId = "0C75E9AD-DE1E-462B-B5DF-43688A01D7EC";
paths = (
{
closed = 1;
nodes = (
"530 696 LINE",
"146 696 LINE",
"23 0 LINE",
"407 0 LINE",
"423 89 LINE",
"153 89 LINE",
"192 308 LINE",
"432 308 LINE",
"447 396 LINE",
"207 396 LINE",
"244 607 LINE",
"514 607 LINE"
);
},
{
closed = 1;
nodes = (
"296 765 OFFCURVE",
"331 797 OFFCURVE",
"331 836 CURVE SMOOTH",
"331 864 OFFCURVE",
"310 885 OFFCURVE",
"281 885 CURVE SMOOTH",
"243 885 OFFCURVE",
"209 852 OFFCURVE",
"209 814 CURVE SMOOTH",
"209 786 OFFCURVE",
"230 765 OFFCURVE",
"260 765 CURVE SMOOTH"
);
},
{
closed = 1;
nodes = (
"468 765 OFFCURVE",
"503 797 OFFCURVE",
"503 836 CURVE SMOOTH",
"503 864 OFFCURVE",
"482 885 OFFCURVE",
"453 885 CURVE SMOOTH",
"415 885 OFFCURVE",
"381 852 OFFCURVE",
"381 814 CURVE SMOOTH",
"381 786 OFFCURVE",
"402 765 OFFCURVE",
"432 765 CURVE SMOOTH"
);
}
);
width = 524;
},
{
layerId = "2AA9BEE2-6224-4C6D-925B-2F440B8C2D06";
paths = (
{
closed = 1;
nodes = (
"506 704 LINE",
"162 704 LINE",
"37 0 LINE",
"381 0 LINE",
"385 18 LINE",
"61 18 LINE",
"118 343 LINE",
"412 343 LINE",
"415 361 LINE",
"121 361 LINE",
"178 686 LINE",
"502 686 LINE"
);
},
{
closed = 1;
nodes = (
"273 770 OFFCURVE",
"289 787 OFFCURVE",
"289 805 CURVE SMOOTH",
"289 819 OFFCURVE",
"280 830 OFFCURVE",
"266 830 CURVE SMOOTH",
"247 830 OFFCURVE",
"231 813 OFFCURVE",
"231 795 CURVE SMOOTH",
"231 781 OFFCURVE",
"240 770 OFFCURVE",
"255 770 CURVE SMOOTH"
);
},
{
closed = 1;
nodes = (
"407 770 OFFCURVE",
"423 787 OFFCURVE",
"423 806 CURVE SMOOTH",
"423 819 OFFCURVE",
"414 830 OFFCURVE",
"400 830 CURVE SMOOTH",
"381 830 OFFCURVE",
"365 813 OFFCURVE",
"365 795 CURVE SMOOTH",
"365 781 OFFCURVE",
"374 770 OFFCURVE",
"389 770 CURVE SMOOTH"
);
}
);
width = 479;
}
);
unicode = 00CB;
},
{
glyphname = Edotaccent;
layers = (
{
layerId = "CB828171-4BC8-495A-B1C3-011CB1482BD7";
paths = (
{
closed = 1;
nodes = (
"597 708 LINE",
"125 708 LINE",
"0 0 LINE",
"472 0 LINE",
"503 177 LINE",
"253 177 LINE",
"271 277 LINE",
"491 277 LINE",
"521 444 LINE",
"301 444 LINE",
"316 532 LINE",
"566 532 LINE"
);
},
{
closed = 1;
nodes = (
"416 767 OFFCURVE",
"459 804 OFFCURVE",
"468 852 CURVE",
"476 902 OFFCURVE",
"446 939 OFFCURVE",
"396 939 CURVE SMOOTH",
"348 939 OFFCURVE",
"304 902 OFFCURVE",
"296 852 CURVE",
"287 804 OFFCURVE",
"318 767 OFFCURVE",
"366 767 CURVE SMOOTH"
);
}
);
width = 556;
},
{
layerId = "0C75E9AD-DE1E-462B-B5DF-43688A01D7EC";
paths = (
{
closed = 1;
nodes = (
"530 696 LINE",
"146 696 LINE",
"23 0 LINE",
"407 0 LINE",
"423 89 LINE",
"153 89 LINE",
"192 308 LINE",
"432 308 LINE",
"447 396 LINE",
"207 396 LINE",
"244 607 LINE",
"514 607 LINE"
);
},
{
closed = 1;
nodes = (
"379 765 OFFCURVE",
"410 791 OFFCURVE",
"416 825 CURVE SMOOTH",
"422 858 OFFCURVE",
"400 885 OFFCURVE",
"367 885 CURVE SMOOTH",
"333 885 OFFCURVE",
"302 858 OFFCURVE",
"296 825 CURVE SMOOTH",
"290 791 OFFCURVE",
"312 765 OFFCURVE",
"346 765 CURVE SMOOTH"
);
}
);
width = 524;
},
{
layerId = "2AA9BEE2-6224-4C6D-925B-2F440B8C2D06";
paths = (
{
closed = 1;
nodes = (
"506 704 LINE",
"162 704 LINE",
"37 0 LINE",
"381 0 LINE",
"385 18 LINE",
"61 18 LINE",
"118 343 LINE",
"412 343 LINE",
"415 361 LINE",
"121 361 LINE",
"178 686 LINE",
"502 686 LINE"
);
},
{
closed = 1;
nodes = (
"333 748 OFFCURVE",
"349 762 OFFCURVE",
"352 778 CURVE SMOOTH",
"355 794 OFFCURVE",
"344 808 OFFCURVE",
"328 808 CURVE SMOOTH",
"312 808 OFFCURVE",
"295 794 OFFCURVE",
"292 778 CURVE SMOOTH",
"289 762 OFFCURVE",
"301 748 OFFCURVE",
"317 748 CURVE SMOOTH"
);
}
);
width = 479;
}
);
unicode = 0116;
},
{
glyphname = Egrave;
layers = (
{
layerId = "CB828171-4BC8-495A-B1C3-011CB1482BD7";
paths = (
{
closed = 1;
nodes = (
"597 708 LINE",
"125 708 LINE",
"0 0 LINE",
"472 0 LINE",
"503 177 LINE",
"253 177 LINE",
"271 277 LINE",
"491 277 LINE",
"521 444 LINE",
"301 444 LINE",
"316 532 LINE",
"566 532 LINE"
);
},
{
closed = 1;
nodes = (
"250 843 LINE",
"492 749 LINE",
"519 897 LINE",
"279 1007 LINE"
);
}
);
width = 556;
},
{
layerId = "0C75E9AD-DE1E-462B-B5DF-43688A01D7EC";
paths = (
{
closed = 1;
nodes = (
"530 696 LINE",
"146 696 LINE",
"23 0 LINE",
"407 0 LINE",
"423 89 LINE",
"153 89 LINE",
"192 308 LINE",
"432 308 LINE",
"447 396 LINE",
"207 396 LINE",
"244 607 LINE",
"514 607 LINE"
);
},
{
closed = 1;
nodes = (
"242 844 LINE",
"443 735 LINE",
"458 819 LINE",
"259 941 LINE"
);
}
);
width = 524;
},
{
layerId = "2AA9BEE2-6224-4C6D-925B-2F440B8C2D06";
paths = (
{
closed = 1;
nodes = (
"506 704 LINE",
"162 704 LINE",
"37 0 LINE",
"381 0 LINE",
"385 18 LINE",
"61 18 LINE",
"118 343 LINE",
"412 343 LINE",
"415 361 LINE",
"121 361 LINE",
"178 686 LINE",
"502 686 LINE"
);
},
{
closed = 1;
nodes = (
"230 859 LINE",
"394 729 LINE",
"397 749 LINE",
"234 883 LINE"
);
}
);
width = 479;
}
);
unicode = 00C8;
},
{
glyphname = Emacron;
layers = (
{
layerId = "CB828171-4BC8-495A-B1C3-011CB1482BD7";
paths = (
{
closed = 1;
nodes = (
"597 708 LINE",
"125 708 LINE",
"0 0 LINE",
"472 0 LINE",
"503 177 LINE",
"253 177 LINE",
"271 277 LINE",
"491 277 LINE",
"521 444 LINE",
"301 444 LINE",
"316 532 LINE",
"566 532 LINE"
);
},
{
closed = 1;
nodes = (
"153 769 LINE",
"584 769 LINE",
"610 916 LINE",
"179 916 LINE"
);
}
);
width = 556;
},
{
layerId = "0C75E9AD-DE1E-462B-B5DF-43688A01D7EC";
paths = (
{
closed = 1;
nodes = (
"530 696 LINE",
"146 696 LINE",
"23 0 LINE",
"407 0 LINE",
"423 89 LINE",
"153 89 LINE",
"192 308 LINE",
"432 308 LINE",
"447 396 LINE",
"207 396 LINE",
"244 607 LINE",
"514 607 LINE"
);
},
{
closed = 1;
nodes = (
"165 780 LINE",
"531 780 LINE",
"546 865 LINE",
"180 865 LINE"
);
}
);
width = 524;
},
{
layerId = "2AA9BEE2-6224-4C6D-925B-2F440B8C2D06";
paths = (
{
closed = 1;
nodes = (
"506 704 LINE",
"162 704 LINE",
"37 0 LINE",
"381 0 LINE",
"385 18 LINE",
"61 18 LINE",
"118 343 LINE",
"412 343 LINE",
"415 361 LINE",
"121 361 LINE",
"178 686 LINE",
"502 686 LINE"
);
},
{
closed = 1;
nodes = (
"172 802 LINE",
"481 802 LINE",
"484 820 LINE",
"175 820 LINE"
);
}
);
width = 479;
}
);
unicode = 0112;
},
{
glyphname = Eogonek;
layers = (
{
layerId = "CB828171-4BC8-495A-B1C3-011CB1482BD7";
paths = (
{
closed = 1;
nodes = (
"597 708 LINE",
"125 708 LINE",
"0 0 LINE",
"472 0 LINE",
"503 177 LINE",
"253 177 LINE",
"271 277 LINE",
"491 277 LINE",
"521 444 LINE",
"301 444 LINE",
"316 532 LINE",
"566 532 LINE"
);
},
{
closed = 1;
nodes = (
"407 79 LINE SMOOTH",
"240 16 OFFCURVE",
"192 -37 OFFCURVE",
"180 -103 CURVE SMOOTH",
"167 -177 OFFCURVE",
"219 -223 OFFCURVE",
"320 -223 CURVE SMOOTH",
"362 -223 OFFCURVE",
"401 -217 OFFCURVE",
"436 -207 CURVE",
"456 -91 LINE",
"421 -102 OFFCURVE",
"391 -107 OFFCURVE",
"368 -107 CURVE SMOOTH",
"346 -107 OFFCURVE",
"336 -98 OFFCURVE",
"338 -86 CURVE",
"342 -66 OFFCURVE",
"366 -48 OFFCURVE",
"426 -21 CURVE SMOOTH",
"472 0 LINE",
"447 94 LINE"
);
}
);
width = 556;
},
{
layerId = "0C75E9AD-DE1E-462B-B5DF-43688A01D7EC";
paths = (
{
closed = 1;
nodes = (
"530 696 LINE",
"146 696 LINE",
"23 0 LINE",
"407 0 LINE",
"423 89 LINE",
"153 89 LINE",
"192 308 LINE",
"432 308 LINE",
"447 396 LINE",
"207 396 LINE",
"244 607 LINE",
"514 607 LINE"
);
},
{
closed = 1;
nodes = (
"342 39 LINE SMOOTH",
"241 -4 OFFCURVE",
"199 -52 OFFCURVE",
"190 -103 CURVE SMOOTH",
"176 -183 OFFCURVE",
"241 -211 OFFCURVE",
"304 -211 CURVE SMOOTH",
"333 -211 OFFCURVE",
"363 -205 OFFCURVE",
"388 -196 CURVE",
"401 -123 LINE",
"376 -132 OFFCURVE",
"351 -137 OFFCURVE",
"332 -137 CURVE SMOOTH",
"298 -137 OFFCURVE",
"280 -119 OFFCURVE",
"285 -91 CURVE",
"290 -67 OFFCURVE",
"307 -47 OFFCURVE",
"354 -25 CURVE SMOOTH",
"407 0 LINE",
"388 58 LINE"
);
}
);
width = 524;
},
{
layerId = "2AA9BEE2-6224-4C6D-925B-2F440B8C2D06";
paths = (
{
closed = 1;
nodes = (
"506 704 LINE",
"162 704 LINE",
"37 0 LINE",
"381 0 LINE",
"385 18 LINE",
"61 18 LINE",
"118 343 LINE",
"412 343 LINE",
"415 361 LINE",
"121 361 LINE",
"178 686 LINE",
"502 686 LINE"
);
},
{
closed = 1;
nodes = (
"301 -15 LINE SMOOTH",
"234 -43 OFFCURVE",
"206 -78 OFFCURVE",
"199 -116 CURVE SMOOTH",
"190 -167 OFFCURVE",
"225 -190 OFFCURVE",
"275 -190 CURVE SMOOTH",
"295 -190 OFFCURVE",
"318 -186 OFFCURVE",
"340 -178 CURVE",
"344 -158 LINE",
"321 -166 OFFCURVE",
"298 -171 OFFCURVE",
"278 -171 CURVE SMOOTH",
"239 -171 OFFCURVE",
"212 -154 OFFCURVE",
"219 -115 CURVE SMOOTH",
"224 -86 OFFCURVE",
"247 -57 OFFCURVE",
"304 -33 CURVE SMOOTH",
"381 0 LINE",
"375 16 LINE"
);
}
);
width = 479;
}
);
unicode = 0118;
},
{
glyphname = Etilde;
layers = (
{
layerId = "CB828171-4BC8-495A-B1C3-011CB1482BD7";
paths = (
{
closed = 1;
nodes = (
"597 708 LINE",
"125 708 LINE",
"0 0 LINE",
"472 0 LINE",
"503 177 LINE",
"253 177 LINE",
"271 277 LINE",
"491 277 LINE",
"521 444 LINE",
"301 444 LINE",
"316 532 LINE",
"566 532 LINE"
);
},
{
closed = 1;
nodes = (
"240 759 LINE",
"252 792 OFFCURVE",
"269 806 OFFCURVE",
"293 806 CURVE SMOOTH",
"333 806 OFFCURVE",
"365 761 OFFCURVE",
"430 761 CURVE SMOOTH",
"512 761 OFFCURVE",
"577 808 OFFCURVE",
"621 936 CURVE",
"512 936 LINE",
"502 904 OFFCURVE",
"484 889 OFFCURVE",
"460 889 CURVE SMOOTH",
"420 889 OFFCURVE",
"389 935 OFFCURVE",
"324 935 CURVE SMOOTH",
"242 935 OFFCURVE",
"177 887 OFFCURVE",
"132 759 CURVE"
);
}
);
width = 556;
},
{
layerId = "0C75E9AD-DE1E-462B-B5DF-43688A01D7EC";
paths = (
{
closed = 1;
nodes = (
"530 696 LINE",
"146 696 LINE",
"23 0 LINE",
"407 0 LINE",
"423 89 LINE",
"153 89 LINE",
"192 308 LINE",
"432 308 LINE",
"447 396 LINE",
"207 396 LINE",
"244 607 LINE",
"514 607 LINE"
);
},
{
closed = 1;
nodes = (
"245 753 LINE",
"254 782 OFFCURVE",
"273 796 OFFCURVE",
"295 796 CURVE SMOOTH",
"335 796 OFFCURVE",
"349 751 OFFCURVE",
"403 751 CURVE SMOOTH",
"461 751 OFFCURVE",
"512 789 OFFCURVE",
"537 868 CURVE",
"473 868 LINE",
"464 839 OFFCURVE",
"444 826 OFFCURVE",
"422 826 CURVE SMOOTH",
"382 826 OFFCURVE",
"368 870 OFFCURVE",
"314 870 CURVE SMOOTH",
"256 870 OFFCURVE",
"205 832 OFFCURVE",
"181 753 CURVE"
);
}
);
width = 524;
},
{
layerId = "2AA9BEE2-6224-4C6D-925B-2F440B8C2D06";
paths = (
{
closed = 1;
nodes = (
"506 704 LINE",
"162 704 LINE",
"37 0 LINE",
"381 0 LINE",
"385 18 LINE",
"61 18 LINE",
"118 343 LINE",
"412 343 LINE",
"415 361 LINE",
"121 361 LINE",
"178 686 LINE",
"502 686 LINE"
);
},
{
closed = 1;
nodes = (
"239 747 LINE",
"249 780 OFFCURVE",
"266 795 OFFCURVE",
"289 795 CURVE SMOOTH",
"331 795 OFFCURVE",
"337 745 OFFCURVE",
"389 745 CURVE SMOOTH",
"423 745 OFFCURVE",
"454 774 OFFCURVE",
"462 810 CURVE",
"444 810 LINE",
"435 779 OFFCURVE",
"413 763 OFFCURVE",
"392 763 CURVE SMOOTH",
"345 763 OFFCURVE",
"343 813 OFFCURVE",
"293 813 CURVE SMOOTH",
"259 813 OFFCURVE",
"233 787 OFFCURVE",
"221 747 CURVE"
);
}
);
width = 479;
}
);
unicode = 1EBC;
},
{
glyphname = F;
layers = (
{
layerId = "CB828171-4BC8-495A-B1C3-011CB1482BD7";
paths = (
{
closed = 1;
nodes = (
"0 0 LINE",
"222 0 LINE",
"269 267 LINE",
"469 267 LINE",
"499 434 LINE",
"299 434 LINE",
"316 532 LINE",
"594 532 LINE",
"625 708 LINE",
"125 708 LINE"
);
}
);
width = 575;
},
{
layerId = "0C75E9AD-DE1E-462B-B5DF-43688A01D7EC";
paths = (
{
closed = 1;
nodes = (
"23 0 LINE",
"137 0 LINE",
"191 307 LINE",
"421 307 LINE",
"437 395 LINE",
"207 395 LINE",
"244 606 LINE",
"539 606 LINE",
"555 695 LINE",
"146 695 LINE"
);
}
);
width = 515;
},
{
layerId = "2AA9BEE2-6224-4C6D-925B-2F440B8C2D06";
paths = (
{
closed = 1;
nodes = (
"37 0 LINE",
"57 0 LINE",
"118 343 LINE",
"412 343 LINE",
"415 361 LINE",
"121 361 LINE",
"178 686 LINE",
"502 686 LINE",
"506 704 LINE",
"162 704 LINE"
);
}
);
width = 469;
}
);
unicode = 0046;
},
{
glyphname = G;
layers = (
{
anchors = (
{
name = bottom;
position = "{327, 0}";
},
{
name = top;
position = "{453, 711}";
}
);
layerId = "CB828171-4BC8-495A-B1C3-011CB1482BD7";
paths = (
{
closed = 1;
nodes = (
"6 144 OFFCURVE",
"116 -5 OFFCURVE",
"339 -5 CURVE SMOOTH",
"522 -5 OFFCURVE",
"641 102 OFFCURVE",
"705 187 CURVE",
"744 409 LINE",
"383 409 LINE",
"356 252 LINE",
"533 252 LINE",
"492 208 OFFCURVE",
"448 190 OFFCURVE",
"398 190 CURVE SMOOTH",
"289 190 OFFCURVE",
"248 245 OFFCURVE",
"268 355 CURVE SMOOTH",
"284 449 OFFCURVE",
"343 510 OFFCURVE",
"429 510 CURVE SMOOTH",
"475 510 OFFCURVE",
"504 493 OFFCURVE",
"516 466 CURVE",
"750 466 LINE",
"756 617 OFFCURVE",
"652 715 OFFCURVE",
"464 715 CURVE SMOOTH",
"242 715 OFFCURVE",
"80 566 OFFCURVE",
"43 355 CURVE SMOOTH"
);
}
);
width = 752;
},
{
layerId = "3EDF6DF0-3C7E-41C9-BACE-D197D96B1B4F";
name = public.background;
paths = (
{
closed = 1;
nodes = (
"10 140 OFFCURVE",
"143 -6 OFFCURVE",
"339 -6 CURVE SMOOTH",
"526 -6 OFFCURVE",
"686 131 OFFCURVE",
"736 292 CURVE",
"752 381 LINE",
"369 381 LINE",
"353 292 LINE",
"614 292 LINE",
"577 174 OFFCURVE",
"483 97 OFFCURVE",
"357 97 CURVE SMOOTH",
"219 97 OFFCURVE",
"137 196 OFFCURVE",
"164 349 CURVE SMOOTH",
"191 502 OFFCURVE",
"308 600 OFFCURVE",
"446 600 CURVE SMOOTH",
"529 600 OFFCURVE",
"589 565 OFFCURVE",
"614 495 CURVE",
"751 495 LINE",
"722 631 OFFCURVE",
"609 704 OFFCURVE",
"464 704 CURVE SMOOTH",
"268 704 OFFCURVE",
"84 557 OFFCURVE",
"47 349 CURVE SMOOTH"
);
}
);
width = 792;
},
{
anchors = (
{
name = bottom;
position = "{334, 0}";
},
{
name = top;
position = "{457, 696}";
}
);
layerId = "0C75E9AD-DE1E-462B-B5DF-43688A01D7EC";
paths = (
{
closed = 1;
nodes = (
"10 140 OFFCURVE",
"143 -6 OFFCURVE",
"339 -6 CURVE SMOOTH",
"526 -6 OFFCURVE",
"686 131 OFFCURVE",
"736 292 CURVE",
"752 381 LINE",
"369 381 LINE",
"353 292 LINE",
"614 292 LINE",
"577 174 OFFCURVE",
"483 97 OFFCURVE",
"357 97 CURVE SMOOTH",
"219 97 OFFCURVE",
"137 196 OFFCURVE",
"164 349 CURVE SMOOTH",
"191 502 OFFCURVE",
"308 600 OFFCURVE",
"446 600 CURVE SMOOTH",
"529 600 OFFCURVE",
"589 565 OFFCURVE",
"614 495 CURVE",
"751 495 LINE",
"722 631 OFFCURVE",
"609 704 OFFCURVE",
"464 704 CURVE SMOOTH",
"268 704 OFFCURVE",
"84 557 OFFCURVE",
"47 349 CURVE SMOOTH"
);
}
);
width = 773;
},
{
anchors = (
{
name = bottom;
position = "{363, 0}";
},
{
name = top;
position = "{484, 683}";
}
);
layerId = "2AA9BEE2-6224-4C6D-925B-2F440B8C2D06";
paths = (
{
closed = 1;
nodes = (
"37 140 OFFCURVE",
"151 -8 OFFCURVE",
"347 -8 CURVE SMOOTH",
"543 -8 OFFCURVE",
"709 140 OFFCURVE",
"746 351 CURVE",
"748 359 LINE",
"397 359 LINE",
"394 341 LINE",
"726 341 LINE",
"684 135 OFFCURVE",
"522 10 OFFCURVE",
"350 10 CURVE SMOOTH",
"175 10 OFFCURVE",
"58 139 OFFCURVE",
"95 351 CURVE SMOOTH",
"133 563 OFFCURVE",
"295 692 OFFCURVE",
"470 692 CURVE SMOOTH",
"616 692 OFFCURVE",
"708 608 OFFCURVE",
"729 495 CURVE",
"749 495 LINE",
"723 624 OFFCURVE",
"629 710 OFFCURVE",
"474 710 CURVE SMOOTH",
"278 710 OFFCURVE",
"111 562 OFFCURVE",
"74 351 CURVE SMOOTH"
);
}
);
width = 792;
}
);
unicode = 0047;
},
{
glyphname = Gbreve;
layers = (
{
layerId = "CB828171-4BC8-495A-B1C3-011CB1482BD7";
paths = (
{
closed = 1;
nodes = (
"6 144 OFFCURVE",
"116 -5 OFFCURVE",
"339 -5 CURVE SMOOTH",
"522 -5 OFFCURVE",
"641 102 OFFCURVE",
"705 187 CURVE",
"744 409 LINE",
"383 409 LINE",
"356 252 LINE",
"533 252 LINE",
"492 208 OFFCURVE",
"448 190 OFFCURVE",
"398 190 CURVE SMOOTH",
"289 190 OFFCURVE",
"248 245 OFFCURVE",
"268 355 CURVE SMOOTH",
"284 449 OFFCURVE",
"343 510 OFFCURVE",
"429 510 CURVE SMOOTH",
"475 510 OFFCURVE",
"504 493 OFFCURVE",
"516 466 CURVE",
"750 466 LINE",
"756 617 OFFCURVE",
"652 715 OFFCURVE",
"464 715 CURVE SMOOTH",
"242 715 OFFCURVE",
"80 566 OFFCURVE",
"43 355 CURVE SMOOTH"
);
},
{
closed = 1;
nodes = (
"686 967 LINE",
"583 967 LINE",
"576 928 OFFCURVE",
"552 905 OFFCURVE",
"487 905 CURVE SMOOTH",
"422 905 OFFCURVE",
"406 928 OFFCURVE",
"413 967 CURVE",
"310 967 LINE",
"307 950 LINE SMOOTH",
"283 812 OFFCURVE",
"354 747 OFFCURVE",
"459 747 CURVE SMOOTH",
"564 747 OFFCURVE",
"659 812 OFFCURVE",
"683 950 CURVE SMOOTH"
);
}
);
width = 752;
},
{
layerId = "0C75E9AD-DE1E-462B-B5DF-43688A01D7EC";
paths = (
{
closed = 1;
nodes = (
"10 140 OFFCURVE",
"143 -6 OFFCURVE",
"339 -6 CURVE SMOOTH",
"526 -6 OFFCURVE",
"686 131 OFFCURVE",
"736 292 CURVE",
"752 381 LINE",
"369 381 LINE",
"353 292 LINE",
"614 292 LINE",
"577 174 OFFCURVE",
"483 97 OFFCURVE",
"357 97 CURVE SMOOTH",
"219 97 OFFCURVE",
"137 196 OFFCURVE",
"164 349 CURVE SMOOTH",
"191 502 OFFCURVE",
"308 600 OFFCURVE",
"446 600 CURVE SMOOTH",
"529 600 OFFCURVE",
"589 565 OFFCURVE",
"614 495 CURVE",
"751 495 LINE",
"722 631 OFFCURVE",
"609 704 OFFCURVE",
"464 704 CURVE SMOOTH",
"268 704 OFFCURVE",
"84 557 OFFCURVE",
"47 349 CURVE SMOOTH"
);
},
{
closed = 1;
nodes = (
"647 914 LINE",
"581 914 LINE",
"573 869 OFFCURVE",
"548 842 OFFCURVE",
"483 842 CURVE SMOOTH",
"418 842 OFFCURVE",
"403 869 OFFCURVE",
"411 914 CURVE",
"346 914 LINE",
"342 893 LINE SMOOTH",
"328 810 OFFCURVE",
"374 753 OFFCURVE",
"468 753 CURVE SMOOTH",
"563 753 OFFCURVE",
"628 809 OFFCURVE",
"643 892 CURVE SMOOTH"
);
}
);
width = 773;
},
{
layerId = "2AA9BEE2-6224-4C6D-925B-2F440B8C2D06";
paths = (
{
closed = 1;
nodes = (
"37 140 OFFCURVE",
"151 -8 OFFCURVE",
"347 -8 CURVE SMOOTH",
"543 -8 OFFCURVE",
"709 140 OFFCURVE",
"746 351 CURVE",
"748 359 LINE",
"397 359 LINE",
"394 341 LINE",
"726 341 LINE",
"684 135 OFFCURVE",
"522 10 OFFCURVE",
"350 10 CURVE SMOOTH",
"175 10 OFFCURVE",
"58 139 OFFCURVE",
"95 351 CURVE SMOOTH",
"133 563 OFFCURVE",
"295 692 OFFCURVE",
"470 692 CURVE SMOOTH",
"616 692 OFFCURVE",
"708 608 OFFCURVE",
"729 495 CURVE",
"749 495 LINE",
"723 624 OFFCURVE",
"629 710 OFFCURVE",
"474 710 CURVE SMOOTH",
"278 710 OFFCURVE",
"111 562 OFFCURVE",
"74 351 CURVE SMOOTH"
);
},
{
closed = 1;
nodes = (
"634 867 LINE",
"614 867 LINE",
"604 810 OFFCURVE",
"562 777 OFFCURVE",
"500 777 CURVE SMOOTH",
"438 777 OFFCURVE",
"408 810 OFFCURVE",
"418 867 CURVE",
"398 867 LINE",
"397 863 LINE",
"389 815 OFFCURVE",
"412 759 OFFCURVE",
"497 759 CURVE SMOOTH",
"582 759 OFFCURVE",
"625 815 OFFCURVE",
"633 863 CURVE"
);
}
);
width = 792;
}
);
unicode = 011E;
},
{
glyphname = Gcommaaccent;
layers = (
{
anchors = (
{
name = _bottom;
position = "{328, 0}";
}
);
layerId = "CB828171-4BC8-495A-B1C3-011CB1482BD7";
paths = (
{
closed = 1;
nodes = (
"242 -35 LINE",
"216 -182 LINE",
"288 -182 LINE",
"286 -193 LINE SMOOTH",
"277 -245 OFFCURVE",
"253 -268 OFFCURVE",
"218 -268 CURVE",
"204 -346 LINE",
"318 -346 OFFCURVE",
"383 -266 OFFCURVE",
"400 -170 CURVE SMOOTH",
"408 -128 OFFCURVE",
"408 -82 OFFCURVE",
"398 -35 CURVE"
);
},
{
closed = 1;
nodes = (
"6 144 OFFCURVE",
"116 -5 OFFCURVE",
"339 -5 CURVE SMOOTH",
"522 -5 OFFCURVE",
"641 102 OFFCURVE",
"705 187 CURVE",
"744 409 LINE",
"383 409 LINE",
"356 252 LINE",
"533 252 LINE",
"492 208 OFFCURVE",
"448 190 OFFCURVE",
"398 190 CURVE SMOOTH",
"289 190 OFFCURVE",
"248 245 OFFCURVE",
"268 355 CURVE SMOOTH",
"284 449 OFFCURVE",
"343 510 OFFCURVE",
"429 510 CURVE SMOOTH",
"475 510 OFFCURVE",
"504 493 OFFCURVE",
"516 466 CURVE",
"750 466 LINE",
"756 617 OFFCURVE",
"652 715 OFFCURVE",
"464 715 CURVE SMOOTH",
"242 715 OFFCURVE",
"80 566 OFFCURVE",
"43 355 CURVE SMOOTH"
);
}
);
width = 756;
},
{
anchors = (
{
name = _bottom;
position = "{334, 0}";
}
);
layerId = "0C75E9AD-DE1E-462B-B5DF-43688A01D7EC";
paths = (
{
closed = 1;
nodes = (
"272 -46 LINE",
"255 -142 LINE",
"308 -142 LINE",
"305 -163 LINE",
"298 -201 OFFCURVE",
"280 -220 OFFCURVE",
"246 -220 CURVE",
"237 -270 LINE",
"311 -270 OFFCURVE",
"357 -228 OFFCURVE",
"372 -145 CURVE SMOOTH",
"377 -116 OFFCURVE",
"378 -83 OFFCURVE",
"375 -46 CURVE"
);
},
{
closed = 1;
nodes = (
"10 140 OFFCURVE",
"143 -6 OFFCURVE",
"339 -6 CURVE SMOOTH",
"526 -6 OFFCURVE",
"686 131 OFFCURVE",
"736 292 CURVE",
"752 381 LINE",
"369 381 LINE",
"353 292 LINE",
"614 292 LINE",
"577 174 OFFCURVE",
"483 97 OFFCURVE",
"357 97 CURVE SMOOTH",
"219 97 OFFCURVE",
"137 196 OFFCURVE",
"164 349 CURVE SMOOTH",
"191 502 OFFCURVE",
"308 600 OFFCURVE",
"446 600 CURVE SMOOTH",
"529 600 OFFCURVE",
"589 565 OFFCURVE",
"614 495 CURVE",
"751 495 LINE",
"722 631 OFFCURVE",
"609 704 OFFCURVE",
"464 704 CURVE SMOOTH",
"268 704 OFFCURVE",
"84 557 OFFCURVE",
"47 349 CURVE SMOOTH"
);
}
);
width = 773;
},
{
anchors = (
{
name = _bottom;
position = "{347, -8}";
}
);
layerId = "2AA9BEE2-6224-4C6D-925B-2F440B8C2D06";
paths = (
{
closed = 1;
nodes = (
"319 -59 LINE",
"312 -97 LINE",
"343 -97 LINE",
"342 -104 LINE",
"336 -137 OFFCURVE",
"322 -158 OFFCURVE",
"290 -158 CURVE",
"286 -176 LINE",
"322 -176 OFFCURVE",
"354 -161 OFFCURVE",
"367 -90 CURVE",
"368 -81 OFFCURVE",
"369 -68 OFFCURVE",
"370 -59 CURVE"
);
},
{
closed = 1;
nodes = (
"37 140 OFFCURVE",
"151 -8 OFFCURVE",
"347 -8 CURVE SMOOTH",
"543 -8 OFFCURVE",
"709 140 OFFCURVE",
"746 351 CURVE",
"748 359 LINE",
"397 359 LINE",
"394 341 LINE",
"726 341 LINE",
"684 135 OFFCURVE",
"522 10 OFFCURVE",
"350 10 CURVE SMOOTH",
"175 10 OFFCURVE",
"58 139 OFFCURVE",
"95 351 CURVE SMOOTH",
"133 563 OFFCURVE",
"295 692 OFFCURVE",
"470 692 CURVE SMOOTH",
"616 692 OFFCURVE",
"708 608 OFFCURVE",
"729 495 CURVE",
"749 495 LINE",
"723 624 OFFCURVE",
"629 710 OFFCURVE",
"474 710 CURVE SMOOTH",
"278 710 OFFCURVE",
"111 562 OFFCURVE",
"74 351 CURVE SMOOTH"
);
}
);
width = 792;
}
);
unicode = 0122;
},
{
glyphname = Gdotaccent;
layers = (
{
layerId = "CB828171-4BC8-495A-B1C3-011CB1482BD7";
paths = (
{
closed = 1;
nodes = (
"6 144 OFFCURVE",
"116 -5 OFFCURVE",
"339 -5 CURVE SMOOTH",
"522 -5 OFFCURVE",
"641 102 OFFCURVE",
"705 187 CURVE",
"744 409 LINE",
"383 409 LINE",
"356 252 LINE",
"533 252 LINE",
"492 208 OFFCURVE",
"448 190 OFFCURVE",
"398 190 CURVE SMOOTH",
"289 190 OFFCURVE",
"248 245 OFFCURVE",
"268 355 CURVE SMOOTH",
"284 449 OFFCURVE",
"343 510 OFFCURVE",
"429 510 CURVE SMOOTH",
"475 510 OFFCURVE",
"504 493 OFFCURVE",
"516 466 CURVE",
"750 466 LINE",
"756 617 OFFCURVE",
"652 715 OFFCURVE",
"464 715 CURVE SMOOTH",
"242 715 OFFCURVE",
"80 566 OFFCURVE",
"43 355 CURVE SMOOTH"
);
},
{
closed = 1;
nodes = (
"511 767 OFFCURVE",
"554 804 OFFCURVE",
"563 852 CURVE",
"571 902 OFFCURVE",
"541 939 OFFCURVE",
"491 939 CURVE SMOOTH",
"443 939 OFFCURVE",
"399 902 OFFCURVE",
"391 852 CURVE",
"382 804 OFFCURVE",
"413 767 OFFCURVE",
"461 767 CURVE SMOOTH"
);
}
);
width = 752;
},
{
layerId = "0C75E9AD-DE1E-462B-B5DF-43688A01D7EC";
paths = (
{
closed = 1;
nodes = (
"10 140 OFFCURVE",
"143 -6 OFFCURVE",
"339 -6 CURVE SMOOTH",
"526 -6 OFFCURVE",
"686 131 OFFCURVE",
"736 292 CURVE",
"752 381 LINE",
"369 381 LINE",
"353 292 LINE",
"614 292 LINE",
"577 174 OFFCURVE",
"483 97 OFFCURVE",
"357 97 CURVE SMOOTH",
"219 97 OFFCURVE",
"137 196 OFFCURVE",
"164 349 CURVE SMOOTH",
"191 502 OFFCURVE",
"308 600 OFFCURVE",
"446 600 CURVE SMOOTH",
"529 600 OFFCURVE",
"589 565 OFFCURVE",
"614 495 CURVE",
"751 495 LINE",
"722 631 OFFCURVE",
"609 704 OFFCURVE",
"464 704 CURVE SMOOTH",
"268 704 OFFCURVE",
"84 557 OFFCURVE",
"47 349 CURVE SMOOTH"
);
},
{
closed = 1;
nodes = (
"503 765 OFFCURVE",
"534 791 OFFCURVE",
"540 825 CURVE SMOOTH",
"546 858 OFFCURVE",
"524 885 OFFCURVE",
"491 885 CURVE SMOOTH",
"457 885 OFFCURVE",
"426 858 OFFCURVE",
"420 825 CURVE SMOOTH",
"414 791 OFFCURVE",
"436 765 OFFCURVE",
"470 765 CURVE SMOOTH"
);
}
);
width = 773;
},
{
layerId = "2AA9BEE2-6224-4C6D-925B-2F440B8C2D06";
paths = (
{
closed = 1;
nodes = (
"37 140 OFFCURVE",
"151 -8 OFFCURVE",
"347 -8 CURVE SMOOTH",
"543 -8 OFFCURVE",
"709 140 OFFCURVE",
"746 351 CURVE",
"748 359 LINE",
"397 359 LINE",
"394 341 LINE",
"726 341 LINE",
"684 135 OFFCURVE",
"522 10 OFFCURVE",
"350 10 CURVE SMOOTH",
"175 10 OFFCURVE",
"58 139 OFFCURVE",
"95 351 CURVE SMOOTH",
"133 563 OFFCURVE",
"295 692 OFFCURVE",
"470 692 CURVE SMOOTH",
"616 692 OFFCURVE",
"708 608 OFFCURVE",
"729 495 CURVE",
"749 495 LINE",
"723 624 OFFCURVE",
"629 710 OFFCURVE",
"474 710 CURVE SMOOTH",
"278 710 OFFCURVE",
"111 562 OFFCURVE",
"74 351 CURVE SMOOTH"
);
},
{
closed = 1;
nodes = (
"511 748 OFFCURVE",
"527 762 OFFCURVE",
"530 778 CURVE SMOOTH",
"533 794 OFFCURVE",
"522 808 OFFCURVE",
"506 808 CURVE SMOOTH",
"490 808 OFFCURVE",
"473 794 OFFCURVE",
"470 778 CURVE SMOOTH",
"467 762 OFFCURVE",
"479 748 OFFCURVE",
"495 748 CURVE SMOOTH"
);
}
);
width = 792;
}
);
unicode = 0120;
},
{
glyphname = H;
layers = (
{
layerId = "CB828171-4BC8-495A-B1C3-011CB1482BD7";
paths = (
{
closed = 1;
nodes = (
"0 0 LINE",
"222 0 LINE",
"347 708 LINE",
"125 708 LINE"
);
},
{
closed = 1;
nodes = (
"433 0 LINE",
"655 0 LINE",
"780 708 LINE",
"558 708 LINE"
);
},
{
closed = 1;
nodes = (
"251 276 LINE",
"504 276 LINE",
"535 453 LINE",
"282 453 LINE"
);
}
);
width = 755;
},
{
guideLines = (
{
position = "{0, 675}";
}
);
layerId = "0C75E9AD-DE1E-462B-B5DF-43688A01D7EC";
paths = (
{
closed = 1;
nodes = (
"23 0 LINE",
"137 0 LINE",
"260 695 LINE",
"146 695 LINE"
);
},
{
closed = 1;
nodes = (
"464 0 LINE",
"578 0 LINE",
"701 695 LINE",
"587 695 LINE"
);
},
{
closed = 1;
nodes = (
"171 307 LINE",
"545 307 LINE",
"561 395 LINE",
"187 395 LINE"
);
}
);
width = 705;
},
{
layerId = "2AA9BEE2-6224-4C6D-925B-2F440B8C2D06";
paths = (
{
closed = 1;
nodes = (
"37 0 LINE",
"57 0 LINE",
"182 704 LINE",
"162 704 LINE"
);
},
{
closed = 1;
nodes = (
"496 0 LINE",
"516 0 LINE",
"641 704 LINE",
"621 704 LINE"
);
},
{
closed = 1;
nodes = (
"110 353 LINE",
"571 353 LINE",
"574 371 LINE",
"113 371 LINE"
);
}
);
width = 649;
}
);
unicode = 0048;
},
{
glyphname = I;
layers = (
{
anchors = (
{
name = ogonek;
position = "{222, 0}";
},
{
name = top;
position = "{238, 711}";
}
);
layerId = "CB828171-4BC8-495A-B1C3-011CB1482BD7";
paths = (
{
closed = 1;
nodes = (
"0 0 LINE",
"222 0 LINE",
"347 708 LINE",
"125 708 LINE"
);
}
);
width = 322;
},
{
anchors = (
{
name = ogonek;
position = "{138, 1}";
},
{
name = top;
position = "{203, 696}";
}
);
layerId = "0C75E9AD-DE1E-462B-B5DF-43688A01D7EC";
paths = (
{
closed = 1;
nodes = (
"23 0 LINE",
"137 0 LINE",
"260 695 LINE",
"146 695 LINE"
);
}
);
width = 264;
},
{
anchors = (
{
name = ogonek;
position = "{57, 0}";
},
{
name = top;
position = "{168, 683}";
}
);
layerId = "2AA9BEE2-6224-4C6D-925B-2F440B8C2D06";
paths = (
{
closed = 1;
nodes = (
"37 0 LINE",
"57 0 LINE",
"182 704 LINE",
"162 704 LINE"
);
}
);
width = 190;
}
);
unicode = 0049;
},
{
glyphname = Iacute;
layers = (
{
layerId = "CB828171-4BC8-495A-B1C3-011CB1482BD7";
paths = (
{
closed = 1;
nodes = (
"0 0 LINE",
"222 0 LINE",
"347 708 LINE",
"125 708 LINE"
);
},
{
closed = 1;
nodes = (
"140 897 LINE",
"113 749 LINE",
"389 843 LINE",
"418 1007 LINE"
);
}
);
width = 322;
},
{
layerId = "0C75E9AD-DE1E-462B-B5DF-43688A01D7EC";
paths = (
{
closed = 1;
nodes = (
"23 0 LINE",
"137 0 LINE",
"260 695 LINE",
"146 695 LINE"
);
},
{
closed = 1;
nodes = (
"107 819 LINE",
"92 735 LINE",
"333 844 LINE",
"350 941 LINE"
);
}
);
width = 264;
},
{
layerId = "2AA9BEE2-6224-4C6D-925B-2F440B8C2D06";
paths = (
{
closed = 1;
nodes = (
"37 0 LINE",
"57 0 LINE",
"182 704 LINE",
"162 704 LINE"
);
},
{
closed = 1;
nodes = (
"72 749 LINE",
"69 729 LINE",
"279 859 LINE",
"283 883 LINE"
);
}
);
width = 190;
}
);
unicode = 00CD;
},
{
glyphname = Ibreve;
layers = (
{
layerId = "CB828171-4BC8-495A-B1C3-011CB1482BD7";
paths = (
{
closed = 1;
nodes = (
"0 0 LINE",
"222 0 LINE",
"347 708 LINE",
"125 708 LINE"
);
},
{
closed = 1;
nodes = (
"471 967 LINE",
"368 967 LINE",
"361 928 OFFCURVE",
"337 905 OFFCURVE",
"272 905 CURVE SMOOTH",
"207 905 OFFCURVE",
"191 928 OFFCURVE",
"198 967 CURVE",
"95 967 LINE",
"92 950 LINE SMOOTH",
"68 812 OFFCURVE",
"139 747 OFFCURVE",
"244 747 CURVE SMOOTH",
"349 747 OFFCURVE",
"444 812 OFFCURVE",
"468 950 CURVE SMOOTH"
);
}
);
width = 322;
},
{
layerId = "0C75E9AD-DE1E-462B-B5DF-43688A01D7EC";
paths = (
{
closed = 1;
nodes = (
"23 0 LINE",
"137 0 LINE",
"260 695 LINE",
"146 695 LINE"
);
},
{
closed = 1;
nodes = (
"393 914 LINE",
"327 914 LINE",
"319 869 OFFCURVE",
"294 842 OFFCURVE",
"229 842 CURVE SMOOTH",
"164 842 OFFCURVE",
"149 869 OFFCURVE",
"157 914 CURVE",
"92 914 LINE",
"88 893 LINE SMOOTH",
"74 810 OFFCURVE",
"120 753 OFFCURVE",
"214 753 CURVE SMOOTH",
"309 753 OFFCURVE",
"374 809 OFFCURVE",
"389 892 CURVE SMOOTH"
);
}
);
width = 264;
},
{
layerId = "2AA9BEE2-6224-4C6D-925B-2F440B8C2D06";
paths = (
{
closed = 1;
nodes = (
"37 0 LINE",
"57 0 LINE",
"182 704 LINE",
"162 704 LINE"
);
},
{
closed = 1;
nodes = (
"318 867 LINE",
"298 867 LINE",
"288 810 OFFCURVE",
"246 777 OFFCURVE",
"184 777 CURVE SMOOTH",
"122 777 OFFCURVE",
"92 810 OFFCURVE",
"102 867 CURVE",
"82 867 LINE",
"81 863 LINE",
"73 815 OFFCURVE",
"96 759 OFFCURVE",
"181 759 CURVE SMOOTH",
"266 759 OFFCURVE",
"309 815 OFFCURVE",
"317 863 CURVE"
);
}
);
width = 190;
}
);
unicode = 012C;
},
{
glyphname = Icircumflex;
layers = (
{
layerId = "CB828171-4BC8-495A-B1C3-011CB1482BD7";
paths = (
{
closed = 1;
nodes = (
"0 0 LINE",
"222 0 LINE",
"347 708 LINE",
"125 708 LINE"
);
},
{
closed = 1;
nodes = (
"433 883 LINE",
"283 968 LINE",
"102 883 LINE",
"77 739 LINE",
"258 827 LINE",
"408 739 LINE"
);
}
);
width = 322;
},
{
layerId = "0C75E9AD-DE1E-462B-B5DF-43688A01D7EC";
paths = (
{
closed = 1;
nodes = (
"23 0 LINE",
"137 0 LINE",
"260 695 LINE",
"146 695 LINE"
);
},
{
closed = 1;
nodes = (
"370 830 LINE",
"242 913 LINE",
"84 830 LINE",
"68 741 LINE",
"227 827 LINE",
"354 741 LINE"
);
}
);
width = 264;
},
{
layerId = "2AA9BEE2-6224-4C6D-925B-2F440B8C2D06";
paths = (
{
closed = 1;
nodes = (
"37 0 LINE",
"57 0 LINE",
"182 704 LINE",
"162 704 LINE"
);
},
{
closed = 1;
nodes = (
"308 783 LINE",
"200 864 LINE",
"61 783 LINE",
"58 763 LINE",
"196 844 LINE",
"305 763 LINE"
);
}
);
width = 190;
}
);
unicode = 00CE;
},
{
glyphname = Idieresis;
layers = (
{
layerId = "CB828171-4BC8-495A-B1C3-011CB1482BD7";
paths = (
{
closed = 1;
nodes = (
"0 0 LINE",
"222 0 LINE",
"347 708 LINE",
"125 708 LINE"
);
},
{
closed = 1;
nodes = (
"189 767 OFFCURVE",
"237 812 OFFCURVE",
"237 868 CURVE SMOOTH",
"237 910 OFFCURVE",
"209 939 OFFCURVE",
"164 939 CURVE SMOOTH",
"111 939 OFFCURVE",
"62 894 OFFCURVE",
"62 836 CURVE SMOOTH",
"62 796 OFFCURVE",
"92 767 OFFCURVE",
"134 767 CURVE SMOOTH"
);
},
{
closed = 1;
nodes = (
"414 767 OFFCURVE",
"462 812 OFFCURVE",
"462 868 CURVE SMOOTH",
"462 910 OFFCURVE",
"434 939 OFFCURVE",
"389 939 CURVE SMOOTH",
"336 939 OFFCURVE",
"287 894 OFFCURVE",
"287 836 CURVE SMOOTH",
"287 796 OFFCURVE",
"317 767 OFFCURVE",
"359 767 CURVE SMOOTH"
);
}
);
width = 322;
},
{
layerId = "0C75E9AD-DE1E-462B-B5DF-43688A01D7EC";
paths = (
{
closed = 1;
nodes = (
"23 0 LINE",
"137 0 LINE",
"260 695 LINE",
"146 695 LINE"
);
},
{
closed = 1;
nodes = (
"166 765 OFFCURVE",
"201 797 OFFCURVE",
"201 836 CURVE SMOOTH",
"201 864 OFFCURVE",
"180 885 OFFCURVE",
"151 885 CURVE SMOOTH",
"113 885 OFFCURVE",
"79 852 OFFCURVE",
"79 814 CURVE SMOOTH",
"79 786 OFFCURVE",
"100 765 OFFCURVE",
"130 765 CURVE SMOOTH"
);
},
{
closed = 1;
nodes = (
"338 765 OFFCURVE",
"373 797 OFFCURVE",
"373 836 CURVE SMOOTH",
"373 864 OFFCURVE",
"352 885 OFFCURVE",
"323 885 CURVE SMOOTH",
"285 885 OFFCURVE",
"251 852 OFFCURVE",
"251 814 CURVE SMOOTH",
"251 786 OFFCURVE",
"272 765 OFFCURVE",
"302 765 CURVE SMOOTH"
);
}
);
width = 264;
},
{
layerId = "2AA9BEE2-6224-4C6D-925B-2F440B8C2D06";
paths = (
{
closed = 1;
nodes = (
"37 0 LINE",
"57 0 LINE",
"182 704 LINE",
"162 704 LINE"
);
},
{
closed = 1;
nodes = (
"135 770 OFFCURVE",
"151 787 OFFCURVE",
"151 805 CURVE SMOOTH",
"151 819 OFFCURVE",
"142 830 OFFCURVE",
"128 830 CURVE SMOOTH",
"109 830 OFFCURVE",
"93 813 OFFCURVE",
"93 795 CURVE SMOOTH",
"93 781 OFFCURVE",
"102 770 OFFCURVE",
"117 770 CURVE SMOOTH"
);
},
{
closed = 1;
nodes = (
"269 770 OFFCURVE",
"285 787 OFFCURVE",
"285 806 CURVE SMOOTH",
"285 819 OFFCURVE",
"276 830 OFFCURVE",
"262 830 CURVE SMOOTH",
"243 830 OFFCURVE",
"227 813 OFFCURVE",
"227 795 CURVE SMOOTH",
"227 781 OFFCURVE",
"236 770 OFFCURVE",
"251 770 CURVE SMOOTH"
);
}
);
width = 190;
}
);
unicode = 00CF;
},
{
glyphname = Idotaccent;
layers = (
{
layerId = "CB828171-4BC8-495A-B1C3-011CB1482BD7";
paths = (
{
closed = 1;
nodes = (
"0 0 LINE",
"222 0 LINE",
"347 708 LINE",
"125 708 LINE"
);
},
{
closed = 1;
nodes = (
"296 767 OFFCURVE",
"339 804 OFFCURVE",
"348 852 CURVE",
"356 902 OFFCURVE",
"326 939 OFFCURVE",
"276 939 CURVE SMOOTH",
"228 939 OFFCURVE",
"184 902 OFFCURVE",
"176 852 CURVE",
"167 804 OFFCURVE",
"198 767 OFFCURVE",
"246 767 CURVE SMOOTH"
);
}
);
width = 322;
},
{
layerId = "0C75E9AD-DE1E-462B-B5DF-43688A01D7EC";
paths = (
{
closed = 1;
nodes = (
"23 0 LINE",
"137 0 LINE",
"260 695 LINE",
"146 695 LINE"
);
},
{
closed = 1;
nodes = (
"249 765 OFFCURVE",
"280 791 OFFCURVE",
"286 825 CURVE SMOOTH",
"292 858 OFFCURVE",
"270 885 OFFCURVE",
"237 885 CURVE SMOOTH",
"203 885 OFFCURVE",
"172 858 OFFCURVE",
"166 825 CURVE SMOOTH",
"160 791 OFFCURVE",
"182 765 OFFCURVE",
"216 765 CURVE SMOOTH"
);
}
);
width = 264;
},
{
layerId = "2AA9BEE2-6224-4C6D-925B-2F440B8C2D06";
paths = (
{
closed = 1;
nodes = (
"37 0 LINE",
"57 0 LINE",
"182 704 LINE",
"162 704 LINE"
);
},
{
closed = 1;
nodes = (
"195 748 OFFCURVE",
"211 762 OFFCURVE",
"214 778 CURVE SMOOTH",
"217 794 OFFCURVE",
"206 808 OFFCURVE",
"190 808 CURVE SMOOTH",
"174 808 OFFCURVE",
"157 794 OFFCURVE",
"154 778 CURVE SMOOTH",
"151 762 OFFCURVE",
"163 748 OFFCURVE",
"179 748 CURVE SMOOTH"
);
}
);
width = 190;
}
);
unicode = 0130;
},
{
glyphname = Igrave;
layers = (
{
layerId = "CB828171-4BC8-495A-B1C3-011CB1482BD7";
paths = (
{
closed = 1;
nodes = (
"0 0 LINE",
"222 0 LINE",
"347 708 LINE",
"125 708 LINE"
);
},
{
closed = 1;
nodes = (
"130 843 LINE",
"372 749 LINE",
"399 897 LINE",
"159 1007 LINE"
);
}
);
width = 322;
},
{
layerId = "0C75E9AD-DE1E-462B-B5DF-43688A01D7EC";
paths = (
{
closed = 1;
nodes = (
"23 0 LINE",
"137 0 LINE",
"260 695 LINE",
"146 695 LINE"
);
},
{
closed = 1;
nodes = (
"112 844 LINE",
"313 735 LINE",
"328 819 LINE",
"129 941 LINE"
);
}
);
width = 264;
},
{
layerId = "2AA9BEE2-6224-4C6D-925B-2F440B8C2D06";
paths = (
{
closed = 1;
nodes = (
"37 0 LINE",
"57 0 LINE",
"182 704 LINE",
"162 704 LINE"
);
},
{
closed = 1;
nodes = (
"92 859 LINE",
"256 729 LINE",
"259 749 LINE",
"96 883 LINE"
);
}
);
width = 190;
}
);
unicode = 00CC;
},
{
glyphname = Imacron;
layers = (
{
layerId = "CB828171-4BC8-495A-B1C3-011CB1482BD7";
paths = (
{
closed = 1;
nodes = (
"0 0 LINE",
"222 0 LINE",
"347 708 LINE",
"125 708 LINE"
);
},
{
closed = 1;
nodes = (
"33 769 LINE",
"464 769 LINE",
"490 916 LINE",
"59 916 LINE"
);
}
);
width = 322;
},
{
layerId = "0C75E9AD-DE1E-462B-B5DF-43688A01D7EC";
paths = (
{
closed = 1;
nodes = (
"23 0 LINE",
"137 0 LINE",
"260 695 LINE",
"146 695 LINE"
);
},
{
closed = 1;
nodes = (
"35 780 LINE",
"401 780 LINE",
"416 865 LINE",
"50 865 LINE"
);
}
);
width = 264;
},
{
layerId = "2AA9BEE2-6224-4C6D-925B-2F440B8C2D06";
paths = (
{
closed = 1;
nodes = (
"37 0 LINE",
"57 0 LINE",
"182 704 LINE",
"162 704 LINE"
);
},
{
closed = 1;
nodes = (
"34 802 LINE",
"343 802 LINE",
"346 820 LINE",
"37 820 LINE"
);
}
);
width = 190;
}
);
unicode = 012A;
},
{
glyphname = Iogonek;
layers = (
{
layerId = "CB828171-4BC8-495A-B1C3-011CB1482BD7";
paths = (
{
closed = 1;
nodes = (
"0 0 LINE",
"222 0 LINE",
"347 708 LINE",
"125 708 LINE"
);
},
{
closed = 1;
nodes = (
"157 79 LINE SMOOTH",
"-10 16 OFFCURVE",
"-58 -37 OFFCURVE",
"-70 -103 CURVE SMOOTH",
"-83 -177 OFFCURVE",
"-31 -223 OFFCURVE",
"70 -223 CURVE SMOOTH",
"112 -223 OFFCURVE",
"151 -217 OFFCURVE",
"186 -207 CURVE",
"206 -91 LINE",
"171 -102 OFFCURVE",
"141 -107 OFFCURVE",
"118 -107 CURVE SMOOTH",
"96 -107 OFFCURVE",
"86 -98 OFFCURVE",
"88 -86 CURVE",
"92 -66 OFFCURVE",
"116 -48 OFFCURVE",
"176 -21 CURVE SMOOTH",
"222 0 LINE",
"197 94 LINE"
);
}
);
width = 322;
},
{
layerId = "0C75E9AD-DE1E-462B-B5DF-43688A01D7EC";
paths = (
{
closed = 1;
nodes = (
"23 0 LINE",
"137 0 LINE",
"260 695 LINE",
"146 695 LINE"
);
},
{
closed = 1;
nodes = (
"73 40 LINE SMOOTH",
"-28 -3 OFFCURVE",
"-70 -51 OFFCURVE",
"-79 -102 CURVE SMOOTH",
"-93 -182 OFFCURVE",
"-28 -210 OFFCURVE",
"35 -210 CURVE SMOOTH",
"64 -210 OFFCURVE",
"94 -204 OFFCURVE",
"119 -195 CURVE",
"132 -122 LINE",
"107 -131 OFFCURVE",
"82 -136 OFFCURVE",
"63 -136 CURVE SMOOTH",
"29 -136 OFFCURVE",
"11 -118 OFFCURVE",
"16 -90 CURVE",
"21 -66 OFFCURVE",
"38 -46 OFFCURVE",
"85 -24 CURVE SMOOTH",
"138 1 LINE",
"119 59 LINE"
);
}
);
width = 264;
},
{
layerId = "2AA9BEE2-6224-4C6D-925B-2F440B8C2D06";
paths = (
{
closed = 1;
nodes = (
"37 0 LINE",
"57 0 LINE",
"182 704 LINE",
"162 704 LINE"
);
},
{
closed = 1;
nodes = (
"-23 -15 LINE SMOOTH",
"-90 -43 OFFCURVE",
"-118 -78 OFFCURVE",
"-125 -116 CURVE SMOOTH",
"-134 -167 OFFCURVE",
"-99 -190 OFFCURVE",
"-49 -190 CURVE SMOOTH",
"-29 -190 OFFCURVE",
"-6 -186 OFFCURVE",
"16 -178 CURVE",
"20 -158 LINE",
"-3 -166 OFFCURVE",
"-26 -171 OFFCURVE",
"-46 -171 CURVE SMOOTH",
"-85 -171 OFFCURVE",
"-112 -154 OFFCURVE",
"-105 -115 CURVE SMOOTH",
"-100 -86 OFFCURVE",
"-77 -57 OFFCURVE",
"-20 -33 CURVE SMOOTH",
"57 0 LINE",
"51 16 LINE"
);
}
);
width = 190;
}
);
unicode = 012E;
},
{
glyphname = Itilde;
layers = (
{
layerId = "CB828171-4BC8-495A-B1C3-011CB1482BD7";
paths = (
{
closed = 1;
nodes = (
"0 0 LINE",
"222 0 LINE",
"347 708 LINE",
"125 708 LINE"
);
},
{
closed = 1;
nodes = (
"120 759 LINE",
"132 792 OFFCURVE",
"149 806 OFFCURVE",
"173 806 CURVE SMOOTH",
"213 806 OFFCURVE",
"245 761 OFFCURVE",
"310 761 CURVE SMOOTH",
"392 761 OFFCURVE",
"457 808 OFFCURVE",
"501 936 CURVE",
"392 936 LINE",
"382 904 OFFCURVE",
"364 889 OFFCURVE",
"340 889 CURVE SMOOTH",
"300 889 OFFCURVE",
"269 935 OFFCURVE",
"204 935 CURVE SMOOTH",
"122 935 OFFCURVE",
"57 887 OFFCURVE",
"12 759 CURVE"
);
}
);
width = 322;
},
{
layerId = "0C75E9AD-DE1E-462B-B5DF-43688A01D7EC";
paths = (
{
closed = 1;
nodes = (
"23 0 LINE",
"137 0 LINE",
"260 695 LINE",
"146 695 LINE"
);
},
{
closed = 1;
nodes = (
"115 753 LINE",
"124 782 OFFCURVE",
"143 796 OFFCURVE",
"165 796 CURVE SMOOTH",
"205 796 OFFCURVE",
"219 751 OFFCURVE",
"273 751 CURVE SMOOTH",
"331 751 OFFCURVE",
"382 789 OFFCURVE",
"407 868 CURVE",
"343 868 LINE",
"334 839 OFFCURVE",
"314 826 OFFCURVE",
"292 826 CURVE SMOOTH",
"252 826 OFFCURVE",
"238 870 OFFCURVE",
"184 870 CURVE SMOOTH",
"126 870 OFFCURVE",
"75 832 OFFCURVE",
"51 753 CURVE"
);
}
);
width = 264;
},
{
layerId = "2AA9BEE2-6224-4C6D-925B-2F440B8C2D06";
paths = (
{
closed = 1;
nodes = (
"37 0 LINE",
"57 0 LINE",
"182 704 LINE",
"162 704 LINE"
);
},
{
closed = 1;
nodes = (
"101 747 LINE",
"111 780 OFFCURVE",
"128 795 OFFCURVE",
"151 795 CURVE SMOOTH",
"193 795 OFFCURVE",
"199 745 OFFCURVE",
"251 745 CURVE SMOOTH",
"285 745 OFFCURVE",
"316 774 OFFCURVE",
"324 810 CURVE",
"306 810 LINE",
"297 779 OFFCURVE",
"275 763 OFFCURVE",
"254 763 CURVE SMOOTH",
"207 763 OFFCURVE",
"205 813 OFFCURVE",
"155 813 CURVE SMOOTH",
"121 813 OFFCURVE",
"95 787 OFFCURVE",
"83 747 CURVE"
);
}
);
width = 190;
}
);
unicode = 0128;
},
{
glyphname = J;
layers = (
{
layerId = "CB828171-4BC8-495A-B1C3-011CB1482BD7";
paths = (
{
closed = 1;
nodes = (
"318 251 LINE",
"309 205 OFFCURVE",
"289 193 OFFCURVE",
"265 193 CURVE SMOOTH",
"236 193 OFFCURVE",
"216 209 OFFCURVE",
"227 271 CURVE",
"8 271 LINE",
"-25 85 OFFCURVE",
"74 -7 OFFCURVE",
"240 -7 CURVE SMOOTH",
"396 -7 OFFCURVE",
"508 78 OFFCURVE",
"539 251 CURVE SMOOTH",
"619 708 LINE",
"398 708 LINE"
);
}
);
width = 590;
},
{
layerId = "0C75E9AD-DE1E-462B-B5DF-43688A01D7EC";
paths = (
{
closed = 1;
nodes = (
"322 194 LINE SMOOTH",
"311 136 OFFCURVE",
"275 94 OFFCURVE",
"214 94 CURVE SMOOTH",
"153 94 OFFCURVE",
"132 136 OFFCURVE",
"142 194 CURVE",
"27 194 LINE",
"4 68 OFFCURVE",
"76 -7 OFFCURVE",
"196 -7 CURVE SMOOTH",
"316 -7 OFFCURVE",
"414 68 OFFCURVE",
"437 194 CURVE SMOOTH",
"525 695 LINE",
"410 695 LINE"
);
}
);
width = 564;
},
{
layerId = "2AA9BEE2-6224-4C6D-925B-2F440B8C2D06";
paths = (
{
closed = 1;
nodes = (
"304 143 LINE SMOOTH",
"293 85 OFFCURVE",
"252 11 OFFCURVE",
"147 11 CURVE SMOOTH",
"40 11 OFFCURVE",
"18 89 OFFCURVE",
"33 173 CURVE",
"13 173 LINE",
"-6 63 OFFCURVE",
"39 -7 OFFCURVE",
"144 -7 CURVE SMOOTH",
"243 -7 OFFCURVE",
"309 60 OFFCURVE",
"324 143 CURVE SMOOTH",
"423 704 LINE",
"403 704 LINE"
);
}
);
width = 426;
}
);
unicode = 004A;
},
{
glyphname = K;
layers = (
{
anchors = (
{
name = bottom;
position = "{324, 0}";
},
{
name = top;
position = "{450, 711}";
}
);
layerId = "CB828171-4BC8-495A-B1C3-011CB1482BD7";
paths = (
{
closed = 1;
nodes = (
"0 0 LINE",
"222 0 LINE",
"347 708 LINE",
"125 708 LINE"
);
},
{
closed = 1;
nodes = (
"251 359 LINE",
"428 0 LINE",
"692 0 LINE",
"493 375 LINE",
"461 329 LINE",
"801 708 LINE",
"550 708 LINE"
);
}
);
width = 755;
},
{
anchors = (
{
name = bottom;
position = "{265, 0}";
},
{
name = top;
position = "{388, 696}";
}
);
layerId = "0C75E9AD-DE1E-462B-B5DF-43688A01D7EC";
paths = (
{
closed = 1;
nodes = (
"23 0 LINE",
"137 0 LINE",
"260 695 LINE",
"146 695 LINE"
);
},
{
closed = 1;
nodes = (
"169 344 LINE",
"406 0 LINE",
"555 0 LINE",
"300 360 LINE",
"282 321 LINE",
"673 695 LINE",
"530 695 LINE"
);
}
);
width = 633;
},
{
anchors = (
{
name = bottom;
position = "{207, 0}";
},
{
name = top;
position = "{328, 683}";
}
);
layerId = "2AA9BEE2-6224-4C6D-925B-2F440B8C2D06";
paths = (
{
closed = 1;
nodes = (
"37 0 LINE",
"57 0 LINE",
"182 704 LINE",
"162 704 LINE"
);
},
{
closed = 1;
nodes = (
"104 351 LINE",
"399 0 LINE",
"426 0 LINE",
"126 359 LINE",
"127 348 LINE",
"551 704 LINE",
"524 704 LINE"
);
}
);
width = 494;
}
);
unicode = 004B;
},
{
glyphname = Kcommaaccent;
layers = (
{
anchors = (
{
name = _bottom;
position = "{349, 0}";
}
);
layerId = "CB828171-4BC8-495A-B1C3-011CB1482BD7";
paths = (
{
closed = 1;
nodes = (
"263 -35 LINE",
"237 -182 LINE",
"309 -182 LINE",
"307 -193 LINE SMOOTH",
"298 -245 OFFCURVE",
"273 -268 OFFCURVE",
"239 -268 CURVE",
"225 -346 LINE",
"338 -346 OFFCURVE",
"403 -266 OFFCURVE",
"420 -170 CURVE SMOOTH",
"428 -128 OFFCURVE",
"429 -82 OFFCURVE",
"419 -35 CURVE"
);
},
{
closed = 1;
nodes = (
"0 0 LINE",
"222 0 LINE",
"347 708 LINE",
"125 708 LINE"
);
},
{
closed = 1;
nodes = (
"251 359 LINE",
"428 0 LINE",
"692 0 LINE",
"493 375 LINE",
"461 329 LINE",
"801 708 LINE",
"550 708 LINE"
);
}
);
width = 798;
},
{
anchors = (
{
name = _bottom;
position = "{265, 0}";
}
);
layerId = "0C75E9AD-DE1E-462B-B5DF-43688A01D7EC";
paths = (
{
closed = 1;
nodes = (
"202 -46 LINE",
"185 -142 LINE",
"238 -142 LINE",
"235 -163 LINE",
"228 -201 OFFCURVE",
"210 -220 OFFCURVE",
"177 -220 CURVE",
"168 -270 LINE",
"242 -270 OFFCURVE",
"287 -228 OFFCURVE",
"302 -145 CURVE SMOOTH",
"307 -116 OFFCURVE",
"309 -83 OFFCURVE",
"305 -46 CURVE"
);
},
{
closed = 1;
nodes = (
"23 0 LINE",
"137 0 LINE",
"260 695 LINE",
"146 695 LINE"
);
},
{
closed = 1;
nodes = (
"169 344 LINE",
"406 0 LINE",
"555 0 LINE",
"300 360 LINE",
"282 321 LINE",
"673 695 LINE",
"530 695 LINE"
);
}
);
width = 633;
},
{
anchors = (
{
name = _bottom;
position = "{193, 0}";
}
);
layerId = "2AA9BEE2-6224-4C6D-925B-2F440B8C2D06";
paths = (
{
closed = 1;
nodes = (
"159 -59 LINE",
"152 -97 LINE",
"183 -97 LINE",
"182 -104 LINE",
"176 -137 OFFCURVE",
"162 -158 OFFCURVE",
"130 -158 CURVE",
"126 -176 LINE",
"162 -176 OFFCURVE",
"194 -161 OFFCURVE",
"207 -90 CURVE",
"208 -81 OFFCURVE",
"209 -68 OFFCURVE",
"210 -59 CURVE"
);
},
{
closed = 1;
nodes = (
"37 0 LINE",
"57 0 LINE",
"182 704 LINE",
"162 704 LINE"
);
},
{
closed = 1;
nodes = (
"104 351 LINE",
"399 0 LINE",
"426 0 LINE",
"126 359 LINE",
"127 348 LINE",
"551 704 LINE",
"524 704 LINE"
);
}
);
width = 494;
}
);
unicode = 0136;
},
{
glyphname = L;
layers = (
{
anchors = (
{
name = bottom;
position = "{215, 0}";
},
{
name = commaaccent;
position = "{217, 10}";
},
{
name = top;
position = "{307, 711}";
},
{
name = topright;
position = "{542, 711}";
}
);
layerId = "CB828171-4BC8-495A-B1C3-011CB1482BD7";
paths = (
{
closed = 1;
nodes = (
"125 708 LINE",
"0 0 LINE",
"436 0 LINE",
"466 168 LINE",
"252 168 LINE",
"347 708 LINE"
);
}
);
width = 506;
},
{
anchors = (
{
name = bottom;
position = "{196, 0}";
},
{
name = commaaccent;
position = "{198, 10}";
},
{
name = top;
position = "{293, 696}";
},
{
name = topright;
position = "{495, 696}";
}
);
layerId = "0C75E9AD-DE1E-462B-B5DF-43688A01D7EC";
paths = (
{
closed = 1;
nodes = (
"146 695 LINE",
"23 0 LINE",
"372 0 LINE",
"388 87 LINE",
"153 87 LINE",
"260 695 LINE"
);
}
);
width = 444;
},
{
anchors = (
{
name = bottom;
position = "{172, 0}";
},
{
name = commaaccent;
position = "{174, 10}";
},
{
name = top;
position = "{275, 683}";
},
{
name = topright;
position = "{448, 683}";
}
);
layerId = "2AA9BEE2-6224-4C6D-925B-2F440B8C2D06";
paths = (
{
closed = 1;
nodes = (
"162 704 LINE",
"37 0 LINE",
"327 0 LINE",
"331 18 LINE",
"61 18 LINE",
"182 704 LINE"
);
}
);
width = 395;
}
);
unicode = 004C;
},
{
glyphname = Lacute;
layers = (
{
layerId = "CB828171-4BC8-495A-B1C3-011CB1482BD7";
paths = (
{
closed = 1;
nodes = (
"125 708 LINE",
"0 0 LINE",
"436 0 LINE",
"466 168 LINE",
"252 168 LINE",
"347 708 LINE"
);
},
{
closed = 1;
nodes = (
"209 897 LINE",
"182 749 LINE",
"458 843 LINE",
"487 1007 LINE"
);
}
);
width = 506;
},
{
layerId = "0C75E9AD-DE1E-462B-B5DF-43688A01D7EC";
paths = (
{
closed = 1;
nodes = (
"146 695 LINE",
"23 0 LINE",
"372 0 LINE",
"388 87 LINE",
"153 87 LINE",
"260 695 LINE"
);
},
{
closed = 1;
nodes = (
"197 819 LINE",
"182 735 LINE",
"423 844 LINE",
"440 941 LINE"
);
}
);
width = 444;
},
{
layerId = "2AA9BEE2-6224-4C6D-925B-2F440B8C2D06";
paths = (
{
closed = 1;
nodes = (
"162 704 LINE",
"37 0 LINE",
"327 0 LINE",
"331 18 LINE",
"61 18 LINE",
"182 704 LINE"
);
},
{
closed = 1;
nodes = (
"179 749 LINE",
"176 729 LINE",
"386 859 LINE",
"390 883 LINE"
);
}
);
width = 395;
}
);
unicode = 0139;
},
{
glyphname = Lcaron;
layers = (
{
anchors = (
{
name = _bottom;
position = "{530, 743}";
}
);
layerId = "CB828171-4BC8-495A-B1C3-011CB1482BD7";
paths = (
{
closed = 1;
nodes = (
"444 708 LINE",
"418 562 LINE",
"490 562 LINE",
"488 550 LINE SMOOTH",
"479 499 OFFCURVE",
"454 476 OFFCURVE",
"420 476 CURVE",
"406 397 LINE",
"519 397 OFFCURVE",
"584 477 OFFCURVE",
"601 574 CURVE SMOOTH",
"609 616 OFFCURVE",
"610 662 OFFCURVE",
"600 708 CURVE"
);
},
{
closed = 1;
nodes = (
"125 708 LINE",
"0 0 LINE",
"436 0 LINE",
"466 168 LINE",
"252 168 LINE",
"347 708 LINE"
);
}
);
width = 577;
},
{
anchors = (
{
name = _bottom;
position = "{431, 741}";
}
);
layerId = "0C75E9AD-DE1E-462B-B5DF-43688A01D7EC";
paths = (
{
closed = 1;
nodes = (
"368 695 LINE",
"351 599 LINE",
"404 599 LINE",
"400 578 LINE",
"394 540 OFFCURVE",
"375 521 OFFCURVE",
"342 521 CURVE",
"333 471 LINE",
"407 471 OFFCURVE",
"453 513 OFFCURVE",
"467 596 CURVE",
"473 625 OFFCURVE",
"474 658 OFFCURVE",
"471 695 CURVE"
);
},
{
closed = 1;
nodes = (
"146 695 LINE",
"23 0 LINE",
"372 0 LINE",
"388 87 LINE",
"153 87 LINE",
"260 695 LINE"
);
}
);
width = 463;
},
{
anchors = (
{
name = _bottom;
position = "{342, 740}";
}
);
layerId = "2AA9BEE2-6224-4C6D-925B-2F440B8C2D06";
paths = (
{
closed = 1;
nodes = (
"309 704 LINE",
"299 651 LINE",
"337 651 LINE",
"332 622 LINE SMOOTH",
"327 593 OFFCURVE",
"314 577 OFFCURVE",
"279 577 CURVE",
"276 557 LINE",
"316 557 OFFCURVE",
"345 572 OFFCURVE",
"356 635 CURVE",
"360 653 OFFCURVE",
"362 675 OFFCURVE",
"365 704 CURVE"
);
},
{
closed = 1;
nodes = (
"162 704 LINE",
"37 0 LINE",
"327 0 LINE",
"331 18 LINE",
"61 18 LINE",
"182 704 LINE"
);
}
);
width = 395;
}
);
unicode = 013D;
},
{
glyphname = Lcommaaccent;
layers = (
{
anchors = (
{
name = _commaaccent;
position = "{242, 10}";
}
);
layerId = "CB828171-4BC8-495A-B1C3-011CB1482BD7";
paths = (
{
closed = 1;
nodes = (
"154 -35 LINE",
"128 -182 LINE",
"200 -182 LINE",
"198 -193 LINE SMOOTH",
"189 -245 OFFCURVE",
"165 -268 OFFCURVE",
"130 -268 CURVE",
"116 -346 LINE",
"230 -346 OFFCURVE",
"295 -266 OFFCURVE",
"312 -170 CURVE SMOOTH",
"320 -128 OFFCURVE",
"320 -82 OFFCURVE",
"310 -35 CURVE"
);
},
{
closed = 1;
nodes = (
"125 708 LINE",
"0 0 LINE",
"436 0 LINE",
"466 168 LINE",
"252 168 LINE",
"347 708 LINE"
);
}
);
width = 511;
},
{
anchors = (
{
name = _commaaccent;
position = "{196, 0}";
}
);
layerId = "0C75E9AD-DE1E-462B-B5DF-43688A01D7EC";
paths = (
{
closed = 1;
nodes = (
"133 -46 LINE",
"116 -142 LINE",
"169 -142 LINE",
"166 -163 LINE",
"159 -201 OFFCURVE",
"141 -220 OFFCURVE",
"107 -220 CURVE",
"98 -270 LINE",
"173 -270 OFFCURVE",
"218 -228 OFFCURVE",
"233 -145 CURVE SMOOTH",
"238 -116 OFFCURVE",
"240 -83 OFFCURVE",
"236 -46 CURVE"
);
},
{
closed = 1;
nodes = (
"146 695 LINE",
"23 0 LINE",
"372 0 LINE",
"388 87 LINE",
"153 87 LINE",
"260 695 LINE"
);
}
);
width = 444;
},
{
anchors = (
{
name = _commaaccent;
position = "{183, 0}";
}
);
layerId = "2AA9BEE2-6224-4C6D-925B-2F440B8C2D06";
paths = (
{
closed = 1;
nodes = (
"149 -59 LINE",
"142 -97 LINE",
"173 -97 LINE",
"172 -104 LINE",
"166 -137 OFFCURVE",
"152 -158 OFFCURVE",
"120 -158 CURVE",
"116 -176 LINE",
"152 -176 OFFCURVE",
"184 -161 OFFCURVE",
"197 -90 CURVE",
"198 -81 OFFCURVE",
"199 -68 OFFCURVE",
"200 -59 CURVE"
);
},
{
closed = 1;
nodes = (
"162 704 LINE",
"37 0 LINE",
"327 0 LINE",
"331 18 LINE",
"61 18 LINE",
"182 704 LINE"
);
}
);
width = 395;
}
);
unicode = 013B;
},
{
color = 4;
glyphname = Ldot;
layers = (
{
layerId = "CB828171-4BC8-495A-B1C3-011CB1482BD7";
paths = (
{
closed = 1;
nodes = (
"436 0 LINE",
"466 168 LINE",
"252 168 LINE",
"347 708 LINE",
"125 708 LINE",
"0 0 LINE"
);
},
{
closed = 1;
nodes = (
"471 322 OFFCURVE",
"514 359 OFFCURVE",
"523 407 CURVE SMOOTH",
"532 457 OFFCURVE",
"501 494 OFFCURVE",
"451 494 CURVE SMOOTH",
"403 494 OFFCURVE",
"359 457 OFFCURVE",
"351 407 CURVE SMOOTH",
"343 359 OFFCURVE",
"373 322 OFFCURVE",
"421 322 CURVE SMOOTH"
);
}
);
width = 506;
},
{
layerId = "0C75E9AD-DE1E-462B-B5DF-43688A01D7EC";
paths = (
{
closed = 1;
nodes = (
"372 0 LINE",
"388 87 LINE",
"153 87 LINE",
"260 695 LINE",
"146 695 LINE",
"23 0 LINE"
);
},
{
closed = 1;
nodes = (
"388 305 OFFCURVE",
"419 331 OFFCURVE",
"425 365 CURVE SMOOTH",
"431 398 OFFCURVE",
"409 425 OFFCURVE",
"376 425 CURVE SMOOTH",
"342 425 OFFCURVE",
"311 398 OFFCURVE",
"305 365 CURVE SMOOTH",
"299 331 OFFCURVE",
"321 305 OFFCURVE",
"355 305 CURVE SMOOTH"
);
}
);
width = 444;
},
{
layerId = "2AA9BEE2-6224-4C6D-925B-2F440B8C2D06";
paths = (
{
closed = 1;
nodes = (
"327 0 LINE",
"331 18 LINE",
"61 18 LINE",
"182 704 LINE",
"162 704 LINE",
"37 0 LINE"
);
},
{
closed = 1;
nodes = (
"322 308 OFFCURVE",
"338 322 OFFCURVE",
"341 338 CURVE SMOOTH",
"344 354 OFFCURVE",
"333 368 OFFCURVE",
"317 368 CURVE SMOOTH",
"301 368 OFFCURVE",
"284 354 OFFCURVE",
"281 338 CURVE SMOOTH",
"278 322 OFFCURVE",
"290 308 OFFCURVE",
"306 308 CURVE SMOOTH"
);
}
);
width = 395;
}
);
unicode = 013F;
},
{
glyphname = Lslash;
layers = (
{
layerId = "CB828171-4BC8-495A-B1C3-011CB1482BD7";
paths = (
{
closed = 1;
nodes = (
"-1 221 LINE",
"368 318 LINE",
"406 534 LINE",
"37 437 LINE"
);
},
{
closed = 1;
nodes = (
"140 708 LINE",
"15 0 LINE",
"451 0 LINE",
"481 168 LINE",
"267 168 LINE",
"362 708 LINE"
);
}
);
width = 521;
},
{
layerId = "0C75E9AD-DE1E-462B-B5DF-43688A01D7EC";
paths = (
{
closed = 1;
nodes = (
"4 263 LINE",
"304 355 LINE",
"323 461 LINE",
"22 368 LINE"
);
},
{
closed = 1;
nodes = (
"157 695 LINE",
"34 0 LINE",
"383 0 LINE",
"399 87 LINE",
"165 87 LINE",
"272 695 LINE"
);
}
);
width = 444;
},
{
layerId = "2AA9BEE2-6224-4C6D-925B-2F440B8C2D06";
paths = (
{
closed = 1;
nodes = (
"17 312 LINE",
"316 442 LINE",
"320 464 LINE",
"21 334 LINE"
);
},
{
closed = 1;
nodes = (
"182 704 LINE",
"57 0 LINE",
"347 0 LINE",
"351 18 LINE",
"81 18 LINE",
"202 704 LINE"
);
}
);
width = 415;
}
);
unicode = 0141;
},
{
glyphname = M;
layers = (
{
layerId = "CB828171-4BC8-495A-B1C3-011CB1482BD7";
paths = (
{
closed = 1;
nodes = (
"0 0 LINE",
"222 0 LINE",
"324 579 LINE",
"257 564 LINE",
"331 0 LINE",
"521 0 LINE",
"795 564 LINE",
"732 579 LINE",
"630 0 LINE",
"851 0 LINE",
"976 708 LINE",
"705 708 LINE",
"402 139 LINE",
"502 159 LINE",
"397 708 LINE",
"125 708 LINE"
);
}
);
width = 951;
},
{
layerId = "0C75E9AD-DE1E-462B-B5DF-43688A01D7EC";
paths = (
{
closed = 1;
nodes = (
"23 0 LINE",
"137 0 LINE",
"240 584 LINE",
"193 579 LINE",
"350 0 LINE",
"429 0 LINE",
"789 579 LINE",
"744 584 LINE",
"641 0 LINE",
"755 0 LINE",
"878 695 LINE",
"756 695 LINE",
"388 104 LINE",
"429 104 LINE",
"269 695 LINE",
"146 695 LINE"
);
}
);
width = 882;
},
{
layerId = "2AA9BEE2-6224-4C6D-925B-2F440B8C2D06";
paths = (
{
closed = 1;
nodes = (
"37 0 LINE",
"57 0 LINE",
"170 639 LINE",
"166 644 LINE",
"341 0 LINE",
"361 0 LINE",
"762 644 LINE",
"757 639 LINE",
"644 0 LINE",
"664 0 LINE",
"785 684 LINE",
"765 684 LINE",
"349 15 LINE",
"360 15 LINE",
"178 684 LINE",
"158 684 LINE"
);
}
);
width = 797;
}
);
unicode = 004D;
},
{
glyphname = N;
layers = (
{
anchors = (
{
name = bottom;
position = "{339, 0}";
},
{
name = top;
position = "{465, 711}";
}
);
layerId = "CB828171-4BC8-495A-B1C3-011CB1482BD7";
paths = (
{
closed = 1;
nodes = (
"582 708 LINE",
"518 346 LINE",
"347 708 LINE",
"125 708 LINE",
"0 0 LINE",
"222 0 LINE",
"285 356 LINE",
"457 0 LINE",
"679 0 LINE",
"804 708 LINE"
);
}
);
width = 779;
},
{
anchors = (
{
name = bottom;
position = "{309, 0}";
},
{
name = top;
position = "{432, 696}";
}
);
layerId = "0C75E9AD-DE1E-462B-B5DF-43688A01D7EC";
paths = (
{
closed = 1;
nodes = (
"603 696 LINE",
"512 178 LINE",
"260 696 LINE",
"146 696 LINE",
"23 0 LINE",
"137 0 LINE",
"229 519 LINE",
"480 0 LINE",
"594 0 LINE",
"717 696 LINE"
);
}
);
width = 721;
},
{
anchors = (
{
name = bottom;
position = "{276, 0}";
},
{
name = top;
position = "{397, 683}";
}
);
layerId = "2AA9BEE2-6224-4C6D-925B-2F440B8C2D06";
paths = (
{
closed = 1;
nodes = (
"618 703 LINE",
"501 37 LINE",
"181 703 LINE",
"161 703 LINE",
"37 0 LINE",
"57 0 LINE",
"175 667 LINE",
"494 0 LINE",
"514 0 LINE",
"638 703 LINE"
);
}
);
width = 647;
}
);
unicode = 004E;
},
{
glyphname = Nacute;
layers = (
{
layerId = "CB828171-4BC8-495A-B1C3-011CB1482BD7";
paths = (
{
closed = 1;
nodes = (
"582 708 LINE",
"518 346 LINE",
"347 708 LINE",
"125 708 LINE",
"0 0 LINE",
"222 0 LINE",
"285 356 LINE",
"457 0 LINE",
"679 0 LINE",
"804 708 LINE"
);
},
{
closed = 1;
nodes = (
"367 897 LINE",
"340 749 LINE",
"616 843 LINE",
"645 1007 LINE"
);
}
);
width = 779;
},
{
layerId = "0C75E9AD-DE1E-462B-B5DF-43688A01D7EC";
paths = (
{
closed = 1;
nodes = (
"603 696 LINE",
"512 178 LINE",
"260 696 LINE",
"146 696 LINE",
"23 0 LINE",
"137 0 LINE",
"229 519 LINE",
"480 0 LINE",
"594 0 LINE",
"717 696 LINE"
);
},
{
closed = 1;
nodes = (
"336 819 LINE",
"321 735 LINE",
"562 844 LINE",
"579 941 LINE"
);
}
);
width = 721;
},
{
layerId = "2AA9BEE2-6224-4C6D-925B-2F440B8C2D06";
paths = (
{
closed = 1;
nodes = (
"618 703 LINE",
"501 37 LINE",
"181 703 LINE",
"161 703 LINE",
"37 0 LINE",
"57 0 LINE",
"175 667 LINE",
"494 0 LINE",
"514 0 LINE",
"638 703 LINE"
);
},
{
closed = 1;
nodes = (
"301 749 LINE",
"298 729 LINE",
"508 859 LINE",
"512 883 LINE"
);
}
);
width = 647;
}
);
unicode = 0143;
},
{
glyphname = Ncaron;
layers = (
{
layerId = "CB828171-4BC8-495A-B1C3-011CB1482BD7";
paths = (
{
closed = 1;
nodes = (
"582 708 LINE",
"518 346 LINE",
"347 708 LINE",
"125 708 LINE",
"0 0 LINE",
"222 0 LINE",
"285 356 LINE",
"457 0 LINE",
"679 0 LINE",
"804 708 LINE"
);
},
{
closed = 1;
nodes = (
"495 880 LINE",
"344 968 LINE",
"319 824 LINE",
"470 739 LINE",
"650 824 LINE",
"675 968 LINE"
);
}
);
width = 779;
},
{
layerId = "0C75E9AD-DE1E-462B-B5DF-43688A01D7EC";
paths = (
{
closed = 1;
nodes = (
"603 696 LINE",
"512 178 LINE",
"260 696 LINE",
"146 696 LINE",
"23 0 LINE",
"137 0 LINE",
"229 519 LINE",
"480 0 LINE",
"594 0 LINE",
"717 696 LINE"
);
},
{
closed = 1;
nodes = (
"456 827 LINE",
"328 913 LINE",
"312 824 LINE",
"440 741 LINE",
"598 824 LINE",
"614 913 LINE"
);
}
);
width = 721;
},
{
layerId = "2AA9BEE2-6224-4C6D-925B-2F440B8C2D06";
paths = (
{
closed = 1;
nodes = (
"618 703 LINE",
"501 37 LINE",
"181 703 LINE",
"161 703 LINE",
"37 0 LINE",
"57 0 LINE",
"175 667 LINE",
"494 0 LINE",
"514 0 LINE",
"638 703 LINE"
);
},
{
closed = 1;
nodes = (
"414 780 LINE",
"304 861 LINE",
"300 841 LINE",
"410 760 LINE",
"547 841 LINE",
"551 861 LINE"
);
}
);
width = 647;
}
);
unicode = 0147;
},
{
glyphname = Ncommaaccent;
layers = (
{
anchors = (
{
name = _bottom;
position = "{364, 0}";
}
);
layerId = "CB828171-4BC8-495A-B1C3-011CB1482BD7";
paths = (
{
closed = 1;
nodes = (
"278 -35 LINE",
"252 -182 LINE",
"324 -182 LINE",
"322 -193 LINE SMOOTH",
"313 -245 OFFCURVE",
"289 -268 OFFCURVE",
"254 -268 CURVE",
"240 -346 LINE",
"354 -346 OFFCURVE",
"419 -266 OFFCURVE",
"436 -170 CURVE SMOOTH",
"444 -128 OFFCURVE",
"444 -82 OFFCURVE",
"434 -35 CURVE"
);
},
{
closed = 1;
nodes = (
"582 708 LINE",
"518 346 LINE",
"347 708 LINE",
"125 708 LINE",
"0 0 LINE",
"222 0 LINE",
"285 356 LINE",
"457 0 LINE",
"679 0 LINE",
"804 708 LINE"
);
}
);
width = 829;
},
{
anchors = (
{
name = _bottom;
position = "{309, 0}";
}
);
layerId = "0C75E9AD-DE1E-462B-B5DF-43688A01D7EC";
paths = (
{
closed = 1;
nodes = (
"246 -46 LINE",
"229 -142 LINE",
"282 -142 LINE",
"279 -163 LINE",
"272 -201 OFFCURVE",
"254 -220 OFFCURVE",
"221 -220 CURVE",
"212 -270 LINE",
"286 -270 OFFCURVE",
"331 -228 OFFCURVE",
"346 -145 CURVE SMOOTH",
"351 -116 OFFCURVE",
"353 -83 OFFCURVE",
"349 -46 CURVE"
);
},
{
closed = 1;
nodes = (
"603 696 LINE",
"512 178 LINE",
"260 696 LINE",
"146 696 LINE",
"23 0 LINE",
"137 0 LINE",
"229 519 LINE",
"480 0 LINE",
"594 0 LINE",
"717 696 LINE"
);
}
);
width = 721;
},
{
anchors = (
{
name = _bottom;
position = "{275, 0}";
}
);
layerId = "2AA9BEE2-6224-4C6D-925B-2F440B8C2D06";
paths = (
{
closed = 1;
nodes = (
"239 -59 LINE",
"232 -97 LINE",
"263 -97 LINE",
"262 -104 LINE",
"256 -137 OFFCURVE",
"242 -158 OFFCURVE",
"210 -158 CURVE",
"206 -176 LINE",
"242 -176 OFFCURVE",
"274 -161 OFFCURVE",
"287 -90 CURVE",
"288 -81 OFFCURVE",
"289 -68 OFFCURVE",
"290 -59 CURVE"
);
},
{
closed = 1;
nodes = (
"618 703 LINE",
"501 37 LINE",
"181 703 LINE",
"161 703 LINE",
"37 0 LINE",
"57 0 LINE",
"175 667 LINE",
"494 0 LINE",
"514 0 LINE",
"638 703 LINE"
);
}
);
width = 647;
}
);
unicode = 0145;
},
{
glyphname = Ntilde;
layers = (
{
layerId = "CB828171-4BC8-495A-B1C3-011CB1482BD7";
paths = (
{
closed = 1;
nodes = (
"582 708 LINE",
"518 346 LINE",
"347 708 LINE",
"125 708 LINE",
"0 0 LINE",
"222 0 LINE",
"285 356 LINE",
"457 0 LINE",
"679 0 LINE",
"804 708 LINE"
);
},
{
closed = 1;
nodes = (
"347 759 LINE",
"359 792 OFFCURVE",
"376 806 OFFCURVE",
"400 806 CURVE SMOOTH",
"440 806 OFFCURVE",
"472 761 OFFCURVE",
"537 761 CURVE SMOOTH",
"619 761 OFFCURVE",
"684 808 OFFCURVE",
"728 936 CURVE",
"619 936 LINE",
"609 904 OFFCURVE",
"591 889 OFFCURVE",
"567 889 CURVE SMOOTH",
"527 889 OFFCURVE",
"496 935 OFFCURVE",
"431 935 CURVE SMOOTH",
"349 935 OFFCURVE",
"284 887 OFFCURVE",
"239 759 CURVE"
);
}
);
width = 779;
},
{
layerId = "0C75E9AD-DE1E-462B-B5DF-43688A01D7EC";
paths = (
{
closed = 1;
nodes = (
"603 696 LINE",
"512 178 LINE",
"260 696 LINE",
"146 696 LINE",
"23 0 LINE",
"137 0 LINE",
"229 519 LINE",
"480 0 LINE",
"594 0 LINE",
"717 696 LINE"
);
},
{
closed = 1;
nodes = (
"344 753 LINE",
"353 782 OFFCURVE",
"372 796 OFFCURVE",
"394 796 CURVE SMOOTH",
"434 796 OFFCURVE",
"448 751 OFFCURVE",
"502 751 CURVE SMOOTH",
"560 751 OFFCURVE",
"611 789 OFFCURVE",
"636 868 CURVE",
"572 868 LINE",
"563 839 OFFCURVE",
"543 826 OFFCURVE",
"521 826 CURVE SMOOTH",
"481 826 OFFCURVE",
"467 870 OFFCURVE",
"413 870 CURVE SMOOTH",
"355 870 OFFCURVE",
"304 832 OFFCURVE",
"280 753 CURVE"
);
}
);
width = 721;
},
{
layerId = "2AA9BEE2-6224-4C6D-925B-2F440B8C2D06";
paths = (
{
closed = 1;
nodes = (
"618 703 LINE",
"501 37 LINE",
"181 703 LINE",
"161 703 LINE",
"37 0 LINE",
"57 0 LINE",
"175 667 LINE",
"494 0 LINE",
"514 0 LINE",
"638 703 LINE"
);
},
{
closed = 1;
nodes = (
"330 747 LINE",
"340 780 OFFCURVE",
"357 795 OFFCURVE",
"380 795 CURVE SMOOTH",
"422 795 OFFCURVE",
"428 745 OFFCURVE",
"480 745 CURVE SMOOTH",
"514 745 OFFCURVE",
"545 774 OFFCURVE",
"553 810 CURVE",
"535 810 LINE",
"526 779 OFFCURVE",
"504 763 OFFCURVE",
"483 763 CURVE SMOOTH",
"436 763 OFFCURVE",
"434 813 OFFCURVE",
"384 813 CURVE SMOOTH",
"350 813 OFFCURVE",
"324 787 OFFCURVE",
"312 747 CURVE"
);
}
);
width = 647;
}
);
unicode = 00D1;
},
{
glyphname = O;
layers = (
{
layerId = "3EDF6DF0-3C7E-41C9-BACE-D197D96B1B4F";
name = public.background;
paths = (
{
closed = 1;
nodes = (
"11 161 OFFCURVE",
"129 -7 OFFCURVE",
"374 -7 CURVE SMOOTH",
"583 -7 OFFCURVE",
"728 127 OFFCURVE",
"761 317 CURVE SMOOTH",
"802 553 OFFCURVE",
"678 720 OFFCURVE",
"442 720 CURVE SMOOTH",
"232 720 OFFCURVE",
"87 587 OFFCURVE",
"53 397 CURVE SMOOTH"
);
},
{
closed = 1;
nodes = (
"530 259 OFFCURVE",
"474 200 OFFCURVE",
"390 200 CURVE SMOOTH",
"291 200 OFFCURVE",
"252 267 OFFCURVE",
"269 367 CURVE SMOOTH",
"284 457 OFFCURVE",
"341 515 OFFCURVE",
"426 515 CURVE SMOOTH",
"523 515 OFFCURVE",
"565 449 OFFCURVE",
"546 347 CURVE SMOOTH"
);
}
);
width = 792;
},
{
anchors = (
{
name = top;
position = "{471, 711}";
}
);
layerId = "CB828171-4BC8-495A-B1C3-011CB1482BD7";
paths = (
{
closed = 1;
nodes = (
"599 -7 OFFCURVE",
"767 172 OFFCURVE",
"767 427 CURVE SMOOTH",
"767 603 OFFCURVE",
"650 720 OFFCURVE",
"464 720 CURVE SMOOTH",
"215 720 OFFCURVE",
"47 545 OFFCURVE",
"47 289 CURVE SMOOTH",
"47 113 OFFCURVE",
"165 -7 OFFCURVE",
"347 -7 CURVE SMOOTH"
);
},
{
closed = 1;
nodes = (
"304 200 OFFCURVE",
"265 245 OFFCURVE",
"265 317 CURVE SMOOTH",
"265 422 OFFCURVE",
"328 515 OFFCURVE",
"436 515 CURVE SMOOTH",
"511 515 OFFCURVE",
"550 471 OFFCURVE",
"550 399 CURVE SMOOTH",
"550 294 OFFCURVE",
"489 200 OFFCURVE",
"381 200 CURVE SMOOTH"
);
}
);
width = 788;
},
{
layerId = "3EDF6DF0-3C7E-41C9-BACE-D197D96B1B4F";
name = public.background;
paths = (
{
closed = 1;
nodes = (
"10 140 OFFCURVE",
"143 -7 OFFCURVE",
"339 -7 CURVE SMOOTH",
"537 -7 OFFCURVE",
"720 140 OFFCURVE",
"757 349 CURVE SMOOTH",
"794 557 OFFCURVE",
"662 704 OFFCURVE",
"464 704 CURVE SMOOTH",
"268 704 OFFCURVE",
"84 557 OFFCURVE",
"47 349 CURVE SMOOTH"
);
},
{
closed = 1;
nodes = (
"613 196 OFFCURVE",
"495 96 OFFCURVE",
"357 96 CURVE SMOOTH",
"219 96 OFFCURVE",
"137 196 OFFCURVE",
"164 349 CURVE SMOOTH",
"191 502 OFFCURVE",
"308 600 OFFCURVE",
"446 600 CURVE SMOOTH",
"584 600 OFFCURVE",
"667 502 OFFCURVE",
"640 349 CURVE SMOOTH"
);
}
);
width = 792;
},
{
anchors = (
{
name = top;
position = "{460, 704}";
}
);
layerId = "0C75E9AD-DE1E-462B-B5DF-43688A01D7EC";
paths = (
{
closed = 1;
nodes = (
"582 -7 OFFCURVE",
"757 170 OFFCURVE",
"757 412 CURVE SMOOTH",
"757 583 OFFCURVE",
"640 704 OFFCURVE",
"460 704 CURVE SMOOTH",
"223 704 OFFCURVE",
"47 527 OFFCURVE",
"47 286 CURVE SMOOTH",
"47 114 OFFCURVE",
"165 -7 OFFCURVE",
"343 -7 CURVE SMOOTH"
);
},
{
closed = 1;
nodes = (
"237 96 OFFCURVE",
"165 172 OFFCURVE",
"165 293 CURVE SMOOTH",
"165 460 OFFCURVE",
"276 600 OFFCURVE",
"444 600 CURVE SMOOTH",
"567 600 OFFCURVE",
"639 525 OFFCURVE",
"639 404 CURVE SMOOTH",
"639 238 OFFCURVE",
"527 96 OFFCURVE",
"359 96 CURVE SMOOTH"
);
}
);
width = 784;
},
{
anchors = (
{
name = top;
position = "{480, 683}";
}
);
layerId = "2AA9BEE2-6224-4C6D-925B-2F440B8C2D06";
paths = (
{
closed = 1;
nodes = (
"577 -8 OFFCURVE",
"753 195 OFFCURVE",
"753 428 CURVE SMOOTH",
"753 597 OFFCURVE",
"645 710 OFFCURVE",
"474 710 CURVE SMOOTH",
"243 710 OFFCURVE",
"67 506 OFFCURVE",
"67 274 CURVE SMOOTH",
"67 105 OFFCURVE",
"176 -8 OFFCURVE",
"347 -8 CURVE SMOOTH"
);
},
{
closed = 1;
nodes = (
"197 10 OFFCURVE",
"88 109 OFFCURVE",
"88 275 CURVE SMOOTH",
"88 494 OFFCURVE",
"248 692 OFFCURVE",
"470 692 CURVE SMOOTH",
"623 692 OFFCURVE",
"732 594 OFFCURVE",
"732 428 CURVE SMOOTH",
"732 204 OFFCURVE",
"569 10 OFFCURVE",
"350 10 CURVE SMOOTH"
);
}
);
width = 792;
}
);
unicode = 004F;
},
{
glyphname = Oacute;
layers = (
{
layerId = "CB828171-4BC8-495A-B1C3-011CB1482BD7";
paths = (
{
closed = 1;
nodes = (
"599 -7 OFFCURVE",
"767 172 OFFCURVE",
"767 427 CURVE SMOOTH",
"767 603 OFFCURVE",
"650 720 OFFCURVE",
"464 720 CURVE SMOOTH",
"215 720 OFFCURVE",
"47 545 OFFCURVE",
"47 289 CURVE SMOOTH",
"47 113 OFFCURVE",
"165 -7 OFFCURVE",
"347 -7 CURVE SMOOTH"
);
},
{
closed = 1;
nodes = (
"304 200 OFFCURVE",
"265 245 OFFCURVE",
"265 317 CURVE SMOOTH",
"265 422 OFFCURVE",
"328 515 OFFCURVE",
"436 515 CURVE SMOOTH",
"511 515 OFFCURVE",
"550 471 OFFCURVE",
"550 399 CURVE SMOOTH",
"550 294 OFFCURVE",
"489 200 OFFCURVE",
"381 200 CURVE SMOOTH"
);
},
{
closed = 1;
nodes = (
"373 897 LINE",
"346 749 LINE",
"622 843 LINE",
"651 1007 LINE"
);
}
);
width = 788;
},
{
layerId = "0C75E9AD-DE1E-462B-B5DF-43688A01D7EC";
paths = (
{
closed = 1;
nodes = (
"582 -7 OFFCURVE",
"757 170 OFFCURVE",
"757 412 CURVE SMOOTH",
"757 583 OFFCURVE",
"640 704 OFFCURVE",
"460 704 CURVE SMOOTH",
"223 704 OFFCURVE",
"47 527 OFFCURVE",
"47 286 CURVE SMOOTH",
"47 114 OFFCURVE",
"165 -7 OFFCURVE",
"343 -7 CURVE SMOOTH"
);
},
{
closed = 1;
nodes = (
"237 96 OFFCURVE",
"165 172 OFFCURVE",
"165 293 CURVE SMOOTH",
"165 460 OFFCURVE",
"276 600 OFFCURVE",
"444 600 CURVE SMOOTH",
"567 600 OFFCURVE",
"639 525 OFFCURVE",
"639 404 CURVE SMOOTH",
"639 238 OFFCURVE",
"527 96 OFFCURVE",
"359 96 CURVE SMOOTH"
);
},
{
closed = 1;
nodes = (
"364 827 LINE",
"349 743 LINE",
"590 852 LINE",
"607 949 LINE"
);
}
);
width = 784;
},
{
layerId = "2AA9BEE2-6224-4C6D-925B-2F440B8C2D06";
paths = (
{
closed = 1;
nodes = (
"577 -8 OFFCURVE",
"753 195 OFFCURVE",
"753 428 CURVE SMOOTH",
"753 597 OFFCURVE",
"645 710 OFFCURVE",
"474 710 CURVE SMOOTH",
"243 710 OFFCURVE",
"67 506 OFFCURVE",
"67 274 CURVE SMOOTH",
"67 105 OFFCURVE",
"176 -8 OFFCURVE",
"347 -8 CURVE SMOOTH"
);
},
{
closed = 1;
nodes = (
"197 10 OFFCURVE",
"88 109 OFFCURVE",
"88 275 CURVE SMOOTH",
"88 494 OFFCURVE",
"248 692 OFFCURVE",
"470 692 CURVE SMOOTH",
"623 692 OFFCURVE",
"732 594 OFFCURVE",
"732 428 CURVE SMOOTH",
"732 204 OFFCURVE",
"569 10 OFFCURVE",
"350 10 CURVE SMOOTH"
);
},
{
closed = 1;
nodes = (
"384 749 LINE",
"381 729 LINE",
"591 859 LINE",
"595 883 LINE"
);
}
);
width = 792;
}
);
unicode = 00D3;
},
{
glyphname = Obreve;
layers = (
{
layerId = "CB828171-4BC8-495A-B1C3-011CB1482BD7";
paths = (
{
closed = 1;
nodes = (
"599 -7 OFFCURVE",
"767 172 OFFCURVE",
"767 427 CURVE SMOOTH",
"767 603 OFFCURVE",
"650 720 OFFCURVE",
"464 720 CURVE SMOOTH",
"215 720 OFFCURVE",
"47 545 OFFCURVE",
"47 289 CURVE SMOOTH",
"47 113 OFFCURVE",
"165 -7 OFFCURVE",
"347 -7 CURVE SMOOTH"
);
},
{
closed = 1;
nodes = (
"304 200 OFFCURVE",
"265 245 OFFCURVE",
"265 317 CURVE SMOOTH",
"265 422 OFFCURVE",
"328 515 OFFCURVE",
"436 515 CURVE SMOOTH",
"511 515 OFFCURVE",
"550 471 OFFCURVE",
"550 399 CURVE SMOOTH",
"550 294 OFFCURVE",
"489 200 OFFCURVE",
"381 200 CURVE SMOOTH"
);
},
{
closed = 1;
nodes = (
"704 967 LINE",
"601 967 LINE",
"594 928 OFFCURVE",
"570 905 OFFCURVE",
"505 905 CURVE SMOOTH",
"440 905 OFFCURVE",
"424 928 OFFCURVE",
"431 967 CURVE",
"328 967 LINE",
"325 950 LINE SMOOTH",
"301 812 OFFCURVE",
"372 747 OFFCURVE",
"477 747 CURVE SMOOTH",
"582 747 OFFCURVE",
"677 812 OFFCURVE",
"701 950 CURVE SMOOTH"
);
}
);
width = 788;
},
{
layerId = "0C75E9AD-DE1E-462B-B5DF-43688A01D7EC";
paths = (
{
closed = 1;
nodes = (
"582 -7 OFFCURVE",
"757 170 OFFCURVE",
"757 412 CURVE SMOOTH",
"757 583 OFFCURVE",
"640 704 OFFCURVE",
"460 704 CURVE SMOOTH",
"223 704 OFFCURVE",
"47 527 OFFCURVE",
"47 286 CURVE SMOOTH",
"47 114 OFFCURVE",
"165 -7 OFFCURVE",
"343 -7 CURVE SMOOTH"
);
},
{
closed = 1;
nodes = (
"237 96 OFFCURVE",
"165 172 OFFCURVE",
"165 293 CURVE SMOOTH",
"165 460 OFFCURVE",
"276 600 OFFCURVE",
"444 600 CURVE SMOOTH",
"567 600 OFFCURVE",
"639 525 OFFCURVE",
"639 404 CURVE SMOOTH",
"639 238 OFFCURVE",
"527 96 OFFCURVE",
"359 96 CURVE SMOOTH"
);
},
{
closed = 1;
nodes = (
"650 922 LINE",
"584 922 LINE",
"576 877 OFFCURVE",
"551 850 OFFCURVE",
"486 850 CURVE SMOOTH",
"421 850 OFFCURVE",
"406 877 OFFCURVE",
"414 922 CURVE",
"349 922 LINE",
"345 901 LINE SMOOTH",
"331 818 OFFCURVE",
"377 761 OFFCURVE",
"471 761 CURVE SMOOTH",
"566 761 OFFCURVE",
"631 817 OFFCURVE",
"646 900 CURVE SMOOTH"
);
}
);
width = 784;
},
{
layerId = "2AA9BEE2-6224-4C6D-925B-2F440B8C2D06";
paths = (
{
closed = 1;
nodes = (
"577 -8 OFFCURVE",
"753 195 OFFCURVE",
"753 428 CURVE SMOOTH",
"753 597 OFFCURVE",
"645 710 OFFCURVE",
"474 710 CURVE SMOOTH",
"243 710 OFFCURVE",
"67 506 OFFCURVE",
"67 274 CURVE SMOOTH",
"67 105 OFFCURVE",
"176 -8 OFFCURVE",
"347 -8 CURVE SMOOTH"
);
},
{
closed = 1;
nodes = (
"197 10 OFFCURVE",
"88 109 OFFCURVE",
"88 275 CURVE SMOOTH",
"88 494 OFFCURVE",
"248 692 OFFCURVE",
"470 692 CURVE SMOOTH",
"623 692 OFFCURVE",
"732 594 OFFCURVE",
"732 428 CURVE SMOOTH",
"732 204 OFFCURVE",
"569 10 OFFCURVE",
"350 10 CURVE SMOOTH"
);
},
{
closed = 1;
nodes = (
"630 867 LINE",
"610 867 LINE",
"600 810 OFFCURVE",
"558 777 OFFCURVE",
"496 777 CURVE SMOOTH",
"434 777 OFFCURVE",
"404 810 OFFCURVE",
"414 867 CURVE",
"394 867 LINE",
"393 863 LINE",
"385 815 OFFCURVE",
"408 759 OFFCURVE",
"493 759 CURVE SMOOTH",
"578 759 OFFCURVE",
"621 815 OFFCURVE",
"629 863 CURVE"
);
}
);
width = 792;
}
);
unicode = 014E;
},
{
glyphname = Ocircumflex;
layers = (
{
layerId = "CB828171-4BC8-495A-B1C3-011CB1482BD7";
paths = (
{
closed = 1;
nodes = (
"599 -7 OFFCURVE",
"767 172 OFFCURVE",
"767 427 CURVE SMOOTH",
"767 603 OFFCURVE",
"650 720 OFFCURVE",
"464 720 CURVE SMOOTH",
"215 720 OFFCURVE",
"47 545 OFFCURVE",
"47 289 CURVE SMOOTH",
"47 113 OFFCURVE",
"165 -7 OFFCURVE",
"347 -7 CURVE SMOOTH"
);
},
{
closed = 1;
nodes = (
"304 200 OFFCURVE",
"265 245 OFFCURVE",
"265 317 CURVE SMOOTH",
"265 422 OFFCURVE",
"328 515 OFFCURVE",
"436 515 CURVE SMOOTH",
"511 515 OFFCURVE",
"550 471 OFFCURVE",
"550 399 CURVE SMOOTH",
"550 294 OFFCURVE",
"489 200 OFFCURVE",
"381 200 CURVE SMOOTH"
);
},
{
closed = 1;
nodes = (
"666 883 LINE",
"516 968 LINE",
"335 883 LINE",
"310 739 LINE",
"491 827 LINE",
"641 739 LINE"
);
}
);
width = 788;
},
{
layerId = "0C75E9AD-DE1E-462B-B5DF-43688A01D7EC";
paths = (
{
closed = 1;
nodes = (
"582 -7 OFFCURVE",
"757 170 OFFCURVE",
"757 412 CURVE SMOOTH",
"757 583 OFFCURVE",
"640 704 OFFCURVE",
"460 704 CURVE SMOOTH",
"223 704 OFFCURVE",
"47 527 OFFCURVE",
"47 286 CURVE SMOOTH",
"47 114 OFFCURVE",
"165 -7 OFFCURVE",
"343 -7 CURVE SMOOTH"
);
},
{
closed = 1;
nodes = (
"237 96 OFFCURVE",
"165 172 OFFCURVE",
"165 293 CURVE SMOOTH",
"165 460 OFFCURVE",
"276 600 OFFCURVE",
"444 600 CURVE SMOOTH",
"567 600 OFFCURVE",
"639 525 OFFCURVE",
"639 404 CURVE SMOOTH",
"639 238 OFFCURVE",
"527 96 OFFCURVE",
"359 96 CURVE SMOOTH"
);
},
{
closed = 1;
nodes = (
"627 838 LINE",
"499 921 LINE",
"341 838 LINE",
"325 749 LINE",
"484 835 LINE",
"611 749 LINE"
);
}
);
width = 784;
},
{
layerId = "2AA9BEE2-6224-4C6D-925B-2F440B8C2D06";
paths = (
{
closed = 1;
nodes = (
"577 -8 OFFCURVE",
"753 195 OFFCURVE",
"753 428 CURVE SMOOTH",
"753 597 OFFCURVE",
"645 710 OFFCURVE",
"474 710 CURVE SMOOTH",
"243 710 OFFCURVE",
"67 506 OFFCURVE",
"67 274 CURVE SMOOTH",
"67 105 OFFCURVE",
"176 -8 OFFCURVE",
"347 -8 CURVE SMOOTH"
);
},
{
closed = 1;
nodes = (
"197 10 OFFCURVE",
"88 109 OFFCURVE",
"88 275 CURVE SMOOTH",
"88 494 OFFCURVE",
"248 692 OFFCURVE",
"470 692 CURVE SMOOTH",
"623 692 OFFCURVE",
"732 594 OFFCURVE",
"732 428 CURVE SMOOTH",
"732 204 OFFCURVE",
"569 10 OFFCURVE",
"350 10 CURVE SMOOTH"
);
},
{
closed = 1;
nodes = (
"620 783 LINE",
"512 864 LINE",
"373 783 LINE",
"370 763 LINE",
"508 844 LINE",
"617 763 LINE"
);
}
);
width = 792;
}
);
unicode = 00D4;
},
{
glyphname = Odieresis;
layers = (
{
layerId = "CB828171-4BC8-495A-B1C3-011CB1482BD7";
paths = (
{
closed = 1;
nodes = (
"599 -7 OFFCURVE",
"767 172 OFFCURVE",
"767 427 CURVE SMOOTH",
"767 603 OFFCURVE",
"650 720 OFFCURVE",
"464 720 CURVE SMOOTH",
"215 720 OFFCURVE",
"47 545 OFFCURVE",
"47 289 CURVE SMOOTH",
"47 113 OFFCURVE",
"165 -7 OFFCURVE",
"347 -7 CURVE SMOOTH"
);
},
{
closed = 1;
nodes = (
"304 200 OFFCURVE",
"265 245 OFFCURVE",
"265 317 CURVE SMOOTH",
"265 422 OFFCURVE",
"328 515 OFFCURVE",
"436 515 CURVE SMOOTH",
"511 515 OFFCURVE",
"550 471 OFFCURVE",
"550 399 CURVE SMOOTH",
"550 294 OFFCURVE",
"489 200 OFFCURVE",
"381 200 CURVE SMOOTH"
);
},
{
closed = 1;
nodes = (
"422 767 OFFCURVE",
"470 812 OFFCURVE",
"470 868 CURVE SMOOTH",
"470 910 OFFCURVE",
"442 939 OFFCURVE",
"397 939 CURVE SMOOTH",
"344 939 OFFCURVE",
"295 894 OFFCURVE",
"295 836 CURVE SMOOTH",
"295 796 OFFCURVE",
"325 767 OFFCURVE",
"367 767 CURVE SMOOTH"
);
},
{
closed = 1;
nodes = (
"647 767 OFFCURVE",
"695 812 OFFCURVE",
"695 868 CURVE SMOOTH",
"695 910 OFFCURVE",
"667 939 OFFCURVE",
"622 939 CURVE SMOOTH",
"569 939 OFFCURVE",
"520 894 OFFCURVE",
"520 836 CURVE SMOOTH",
"520 796 OFFCURVE",
"550 767 OFFCURVE",
"592 767 CURVE SMOOTH"
);
}
);
width = 788;
},
{
layerId = "0C75E9AD-DE1E-462B-B5DF-43688A01D7EC";
paths = (
{
closed = 1;
nodes = (
"582 -7 OFFCURVE",
"757 170 OFFCURVE",
"757 412 CURVE SMOOTH",
"757 583 OFFCURVE",
"640 704 OFFCURVE",
"460 704 CURVE SMOOTH",
"223 704 OFFCURVE",
"47 527 OFFCURVE",
"47 286 CURVE SMOOTH",
"47 114 OFFCURVE",
"165 -7 OFFCURVE",
"343 -7 CURVE SMOOTH"
);
},
{
closed = 1;
nodes = (
"237 96 OFFCURVE",
"165 172 OFFCURVE",
"165 293 CURVE SMOOTH",
"165 460 OFFCURVE",
"276 600 OFFCURVE",
"444 600 CURVE SMOOTH",
"567 600 OFFCURVE",
"639 525 OFFCURVE",
"639 404 CURVE SMOOTH",
"639 238 OFFCURVE",
"527 96 OFFCURVE",
"359 96 CURVE SMOOTH"
);
},
{
closed = 1;
nodes = (
"423 773 OFFCURVE",
"458 805 OFFCURVE",
"458 844 CURVE SMOOTH",
"458 872 OFFCURVE",
"437 893 OFFCURVE",
"408 893 CURVE SMOOTH",
"370 893 OFFCURVE",
"336 860 OFFCURVE",
"336 822 CURVE SMOOTH",
"336 794 OFFCURVE",
"357 773 OFFCURVE",
"387 773 CURVE SMOOTH"
);
},
{
closed = 1;
nodes = (
"595 773 OFFCURVE",
"630 805 OFFCURVE",
"630 844 CURVE SMOOTH",
"630 872 OFFCURVE",
"609 893 OFFCURVE",
"580 893 CURVE SMOOTH",
"542 893 OFFCURVE",
"508 860 OFFCURVE",
"508 822 CURVE SMOOTH",
"508 794 OFFCURVE",
"529 773 OFFCURVE",
"559 773 CURVE SMOOTH"
);
}
);
width = 784;
},
{
layerId = "2AA9BEE2-6224-4C6D-925B-2F440B8C2D06";
paths = (
{
closed = 1;
nodes = (
"577 -8 OFFCURVE",
"753 195 OFFCURVE",
"753 428 CURVE SMOOTH",
"753 597 OFFCURVE",
"645 710 OFFCURVE",
"474 710 CURVE SMOOTH",
"243 710 OFFCURVE",
"67 506 OFFCURVE",
"67 274 CURVE SMOOTH",
"67 105 OFFCURVE",
"176 -8 OFFCURVE",
"347 -8 CURVE SMOOTH"
);
},
{
closed = 1;
nodes = (
"197 10 OFFCURVE",
"88 109 OFFCURVE",
"88 275 CURVE SMOOTH",
"88 494 OFFCURVE",
"248 692 OFFCURVE",
"470 692 CURVE SMOOTH",
"623 692 OFFCURVE",
"732 594 OFFCURVE",
"732 428 CURVE SMOOTH",
"732 204 OFFCURVE",
"569 10 OFFCURVE",
"350 10 CURVE SMOOTH"
);
},
{
closed = 1;
nodes = (
"447 770 OFFCURVE",
"463 787 OFFCURVE",
"463 805 CURVE SMOOTH",
"463 819 OFFCURVE",
"454 830 OFFCURVE",
"440 830 CURVE SMOOTH",
"421 830 OFFCURVE",
"405 813 OFFCURVE",
"405 795 CURVE SMOOTH",
"405 781 OFFCURVE",
"414 770 OFFCURVE",
"429 770 CURVE SMOOTH"
);
},
{
closed = 1;
nodes = (
"581 770 OFFCURVE",
"597 787 OFFCURVE",
"597 806 CURVE SMOOTH",
"597 819 OFFCURVE",
"588 830 OFFCURVE",
"574 830 CURVE SMOOTH",
"555 830 OFFCURVE",
"539 813 OFFCURVE",
"539 795 CURVE SMOOTH",
"539 781 OFFCURVE",
"548 770 OFFCURVE",
"563 770 CURVE SMOOTH"
);
}
);
width = 792;
}
);
unicode = 00D6;
},
{
glyphname = Ograve;
layers = (
{
layerId = "CB828171-4BC8-495A-B1C3-011CB1482BD7";
paths = (
{
closed = 1;
nodes = (
"599 -7 OFFCURVE",
"767 172 OFFCURVE",
"767 427 CURVE SMOOTH",
"767 603 OFFCURVE",
"650 720 OFFCURVE",
"464 720 CURVE SMOOTH",
"215 720 OFFCURVE",
"47 545 OFFCURVE",
"47 289 CURVE SMOOTH",
"47 113 OFFCURVE",
"165 -7 OFFCURVE",
"347 -7 CURVE SMOOTH"
);
},
{
closed = 1;
nodes = (
"304 200 OFFCURVE",
"265 245 OFFCURVE",
"265 317 CURVE SMOOTH",
"265 422 OFFCURVE",
"328 515 OFFCURVE",
"436 515 CURVE SMOOTH",
"511 515 OFFCURVE",
"550 471 OFFCURVE",
"550 399 CURVE SMOOTH",
"550 294 OFFCURVE",
"489 200 OFFCURVE",
"381 200 CURVE SMOOTH"
);
},
{
closed = 1;
nodes = (
"363 843 LINE",
"605 749 LINE",
"632 897 LINE",
"392 1007 LINE"
);
}
);
width = 788;
},
{
layerId = "0C75E9AD-DE1E-462B-B5DF-43688A01D7EC";
paths = (
{
closed = 1;
nodes = (
"582 -7 OFFCURVE",
"757 170 OFFCURVE",
"757 412 CURVE SMOOTH",
"757 583 OFFCURVE",
"640 704 OFFCURVE",
"460 704 CURVE SMOOTH",
"223 704 OFFCURVE",
"47 527 OFFCURVE",
"47 286 CURVE SMOOTH",
"47 114 OFFCURVE",
"165 -7 OFFCURVE",
"343 -7 CURVE SMOOTH"
);
},
{
closed = 1;
nodes = (
"237 96 OFFCURVE",
"165 172 OFFCURVE",
"165 293 CURVE SMOOTH",
"165 460 OFFCURVE",
"276 600 OFFCURVE",
"444 600 CURVE SMOOTH",
"567 600 OFFCURVE",
"639 525 OFFCURVE",
"639 404 CURVE SMOOTH",
"639 238 OFFCURVE",
"527 96 OFFCURVE",
"359 96 CURVE SMOOTH"
);
},
{
closed = 1;
nodes = (
"369 852 LINE",
"570 743 LINE",
"585 827 LINE",
"386 949 LINE"
);
}
);
width = 784;
},
{
layerId = "2AA9BEE2-6224-4C6D-925B-2F440B8C2D06";
paths = (
{
closed = 1;
nodes = (
"577 -8 OFFCURVE",
"753 195 OFFCURVE",
"753 428 CURVE SMOOTH",
"753 597 OFFCURVE",
"645 710 OFFCURVE",
"474 710 CURVE SMOOTH",
"243 710 OFFCURVE",
"67 506 OFFCURVE",
"67 274 CURVE SMOOTH",
"67 105 OFFCURVE",
"176 -8 OFFCURVE",
"347 -8 CURVE SMOOTH"
);
},
{
closed = 1;
nodes = (
"197 10 OFFCURVE",
"88 109 OFFCURVE",
"88 275 CURVE SMOOTH",
"88 494 OFFCURVE",
"248 692 OFFCURVE",
"470 692 CURVE SMOOTH",
"623 692 OFFCURVE",
"732 594 OFFCURVE",
"732 428 CURVE SMOOTH",
"732 204 OFFCURVE",
"569 10 OFFCURVE",
"350 10 CURVE SMOOTH"
);
},
{
closed = 1;
nodes = (
"404 859 LINE",
"568 729 LINE",
"571 749 LINE",
"408 883 LINE"
);
}
);
width = 792;
}
);
unicode = 00D2;
},
{
glyphname = Ohungarumlaut;
layers = (
{
layerId = "CB828171-4BC8-495A-B1C3-011CB1482BD7";
paths = (
{
closed = 1;
nodes = (
"599 -7 OFFCURVE",
"767 172 OFFCURVE",
"767 427 CURVE SMOOTH",
"767 603 OFFCURVE",
"650 720 OFFCURVE",
"464 720 CURVE SMOOTH",
"215 720 OFFCURVE",
"47 545 OFFCURVE",
"47 289 CURVE SMOOTH",
"47 113 OFFCURVE",
"165 -7 OFFCURVE",
"347 -7 CURVE SMOOTH"
);
},
{
closed = 1;
nodes = (
"304 200 OFFCURVE",
"265 245 OFFCURVE",
"265 317 CURVE SMOOTH",
"265 422 OFFCURVE",
"328 515 OFFCURVE",
"436 515 CURVE SMOOTH",
"511 515 OFFCURVE",
"550 471 OFFCURVE",
"550 399 CURVE SMOOTH",
"550 294 OFFCURVE",
"489 200 OFFCURVE",
"381 200 CURVE SMOOTH"
);
},
{
closed = 1;
nodes = (
"653 992 LINE",
"505 748 LINE",
"638 748 LINE",
"821 992 LINE"
);
},
{
closed = 1;
nodes = (
"408 992 LINE",
"285 748 LINE",
"418 748 LINE",
"576 992 LINE"
);
}
);
width = 788;
},
{
layerId = "0C75E9AD-DE1E-462B-B5DF-43688A01D7EC";
paths = (
{
closed = 1;
nodes = (
"582 -7 OFFCURVE",
"757 170 OFFCURVE",
"757 412 CURVE SMOOTH",
"757 583 OFFCURVE",
"640 704 OFFCURVE",
"460 704 CURVE SMOOTH",
"223 704 OFFCURVE",
"47 527 OFFCURVE",
"47 286 CURVE SMOOTH",
"47 114 OFFCURVE",
"165 -7 OFFCURVE",
"343 -7 CURVE SMOOTH"
);
},
{
closed = 1;
nodes = (
"237 96 OFFCURVE",
"165 172 OFFCURVE",
"165 293 CURVE SMOOTH",
"165 460 OFFCURVE",
"276 600 OFFCURVE",
"444 600 CURVE SMOOTH",
"567 600 OFFCURVE",
"639 525 OFFCURVE",
"639 404 CURVE SMOOTH",
"639 238 OFFCURVE",
"527 96 OFFCURVE",
"359 96 CURVE SMOOTH"
);
},
{
closed = 1;
nodes = (
"618 924 LINE",
"504 754 LINE",
"578 754 LINE",
"716 924 LINE"
);
},
{
closed = 1;
nodes = (
"440 924 LINE",
"341 754 LINE",
"415 754 LINE",
"539 924 LINE"
);
}
);
width = 784;
},
{
layerId = "2AA9BEE2-6224-4C6D-925B-2F440B8C2D06";
paths = (
{
closed = 1;
nodes = (
"577 -8 OFFCURVE",
"753 195 OFFCURVE",
"753 428 CURVE SMOOTH",
"753 597 OFFCURVE",
"645 710 OFFCURVE",
"474 710 CURVE SMOOTH",
"243 710 OFFCURVE",
"67 506 OFFCURVE",
"67 274 CURVE SMOOTH",
"67 105 OFFCURVE",
"176 -8 OFFCURVE",
"347 -8 CURVE SMOOTH"
);
},
{
closed = 1;
nodes = (
"197 10 OFFCURVE",
"88 109 OFFCURVE",
"88 275 CURVE SMOOTH",
"88 494 OFFCURVE",
"248 692 OFFCURVE",
"470 692 CURVE SMOOTH",
"623 692 OFFCURVE",
"732 594 OFFCURVE",
"732 428 CURVE SMOOTH",
"732 204 OFFCURVE",
"569 10 OFFCURVE",
"350 10 CURVE SMOOTH"
);
},
{
closed = 1;
nodes = (
"614 848 LINE",
"530 744 LINE",
"550 744 LINE",
"637 848 LINE"
);
},
{
closed = 1;
nodes = (
"497 848 LINE",
"418 744 LINE",
"438 744 LINE",
"520 848 LINE"
);
}
);
width = 792;
}
);
unicode = 0150;
},
{
glyphname = Omacron;
layers = (
{
layerId = "CB828171-4BC8-495A-B1C3-011CB1482BD7";
paths = (
{
closed = 1;
nodes = (
"599 -7 OFFCURVE",
"767 172 OFFCURVE",
"767 427 CURVE SMOOTH",
"767 603 OFFCURVE",
"650 720 OFFCURVE",
"464 720 CURVE SMOOTH",
"215 720 OFFCURVE",
"47 545 OFFCURVE",
"47 289 CURVE SMOOTH",
"47 113 OFFCURVE",
"165 -7 OFFCURVE",
"347 -7 CURVE SMOOTH"
);
},
{
closed = 1;
nodes = (
"304 200 OFFCURVE",
"265 245 OFFCURVE",
"265 317 CURVE SMOOTH",
"265 422 OFFCURVE",
"328 515 OFFCURVE",
"436 515 CURVE SMOOTH",
"511 515 OFFCURVE",
"550 471 OFFCURVE",
"550 399 CURVE SMOOTH",
"550 294 OFFCURVE",
"489 200 OFFCURVE",
"381 200 CURVE SMOOTH"
);
},
{
closed = 1;
nodes = (
"266 769 LINE",
"697 769 LINE",
"723 916 LINE",
"292 916 LINE"
);
}
);
width = 788;
},
{
layerId = "0C75E9AD-DE1E-462B-B5DF-43688A01D7EC";
paths = (
{
closed = 1;
nodes = (
"582 -7 OFFCURVE",
"757 170 OFFCURVE",
"757 412 CURVE SMOOTH",
"757 583 OFFCURVE",
"640 704 OFFCURVE",
"460 704 CURVE SMOOTH",
"223 704 OFFCURVE",
"47 527 OFFCURVE",
"47 286 CURVE SMOOTH",
"47 114 OFFCURVE",
"165 -7 OFFCURVE",
"343 -7 CURVE SMOOTH"
);
},
{
closed = 1;
nodes = (
"237 96 OFFCURVE",
"165 172 OFFCURVE",
"165 293 CURVE SMOOTH",
"165 460 OFFCURVE",
"276 600 OFFCURVE",
"444 600 CURVE SMOOTH",
"567 600 OFFCURVE",
"639 525 OFFCURVE",
"639 404 CURVE SMOOTH",
"639 238 OFFCURVE",
"527 96 OFFCURVE",
"359 96 CURVE SMOOTH"
);
},
{
closed = 1;
nodes = (
"292 788 LINE",
"658 788 LINE",
"673 873 LINE",
"307 873 LINE"
);
}
);
width = 784;
},
{
layerId = "2AA9BEE2-6224-4C6D-925B-2F440B8C2D06";
paths = (
{
closed = 1;
nodes = (
"577 -8 OFFCURVE",
"753 195 OFFCURVE",
"753 428 CURVE SMOOTH",
"753 597 OFFCURVE",
"645 710 OFFCURVE",
"474 710 CURVE SMOOTH",
"243 710 OFFCURVE",
"67 506 OFFCURVE",
"67 274 CURVE SMOOTH",
"67 105 OFFCURVE",
"176 -8 OFFCURVE",
"347 -8 CURVE SMOOTH"
);
},
{
closed = 1;
nodes = (
"197 10 OFFCURVE",
"88 109 OFFCURVE",
"88 275 CURVE SMOOTH",
"88 494 OFFCURVE",
"248 692 OFFCURVE",
"470 692 CURVE SMOOTH",
"623 692 OFFCURVE",
"732 594 OFFCURVE",
"732 428 CURVE SMOOTH",
"732 204 OFFCURVE",
"569 10 OFFCURVE",
"350 10 CURVE SMOOTH"
);
},
{
closed = 1;
nodes = (
"346 802 LINE",
"655 802 LINE",
"658 820 LINE",
"349 820 LINE"
);
}
);
width = 792;
}
);
unicode = 014C;
},
{
glyphname = Oslash;
layers = (
{
layerId = "CB828171-4BC8-495A-B1C3-011CB1482BD7";
paths = (
{
closed = 1;
nodes = (
"-32 1 LINE",
"84 1 LINE",
"845 712 LINE",
"730 712 LINE"
);
},
{
closed = 1;
nodes = (
"598 -7 OFFCURVE",
"766 172 OFFCURVE",
"766 427 CURVE SMOOTH",
"766 603 OFFCURVE",
"649 720 OFFCURVE",
"463 720 CURVE SMOOTH",
"214 720 OFFCURVE",
"46 545 OFFCURVE",
"46 289 CURVE SMOOTH",
"46 113 OFFCURVE",
"164 -7 OFFCURVE",
"346 -7 CURVE SMOOTH"
);
},
{
closed = 1;
nodes = (
"303 200 OFFCURVE",
"264 245 OFFCURVE",
"264 317 CURVE SMOOTH",
"264 422 OFFCURVE",
"327 515 OFFCURVE",
"435 515 CURVE SMOOTH",
"510 515 OFFCURVE",
"549 471 OFFCURVE",
"549 399 CURVE SMOOTH",
"549 294 OFFCURVE",
"488 200 OFFCURVE",
"380 200 CURVE SMOOTH"
);
}
);
width = 788;
},
{
layerId = "0C75E9AD-DE1E-462B-B5DF-43688A01D7EC";
paths = (
{
closed = 1;
nodes = (
"-26 0 LINE",
"65 0 LINE",
"829 696 LINE",
"738 696 LINE"
);
},
{
closed = 1;
nodes = (
"582 -7 OFFCURVE",
"757 170 OFFCURVE",
"757 412 CURVE SMOOTH",
"757 583 OFFCURVE",
"640 704 OFFCURVE",
"460 704 CURVE SMOOTH",
"223 704 OFFCURVE",
"47 527 OFFCURVE",
"47 286 CURVE SMOOTH",
"47 114 OFFCURVE",
"165 -7 OFFCURVE",
"343 -7 CURVE SMOOTH"
);
},
{
closed = 1;
nodes = (
"237 96 OFFCURVE",
"165 172 OFFCURVE",
"165 293 CURVE SMOOTH",
"165 460 OFFCURVE",
"276 600 OFFCURVE",
"444 600 CURVE SMOOTH",
"567 600 OFFCURVE",
"639 525 OFFCURVE",
"639 404 CURVE SMOOTH",
"639 238 OFFCURVE",
"527 96 OFFCURVE",
"359 96 CURVE SMOOTH"
);
}
);
width = 784;
},
{
layerId = "2AA9BEE2-6224-4C6D-925B-2F440B8C2D06";
paths = (
{
closed = 1;
nodes = (
"13 0 LINE",
"38 0 LINE",
"808 704 LINE",
"784 704 LINE"
);
},
{
closed = 1;
nodes = (
"577 -8 OFFCURVE",
"753 195 OFFCURVE",
"753 428 CURVE SMOOTH",
"753 597 OFFCURVE",
"645 710 OFFCURVE",
"474 710 CURVE SMOOTH",
"243 710 OFFCURVE",
"67 506 OFFCURVE",
"67 274 CURVE SMOOTH",
"67 105 OFFCURVE",
"176 -8 OFFCURVE",
"347 -8 CURVE SMOOTH"
);
},
{
closed = 1;
nodes = (
"197 10 OFFCURVE",
"88 109 OFFCURVE",
"88 275 CURVE SMOOTH",
"88 494 OFFCURVE",
"248 692 OFFCURVE",
"470 692 CURVE SMOOTH",
"623 692 OFFCURVE",
"732 594 OFFCURVE",
"732 428 CURVE SMOOTH",
"732 204 OFFCURVE",
"569 10 OFFCURVE",
"350 10 CURVE SMOOTH"
);
}
);
width = 792;
}
);
unicode = 00D8;
},
{
glyphname = Otilde;
layers = (
{
layerId = "CB828171-4BC8-495A-B1C3-011CB1482BD7";
paths = (
{
closed = 1;
nodes = (
"599 -7 OFFCURVE",
"767 172 OFFCURVE",
"767 427 CURVE SMOOTH",
"767 603 OFFCURVE",
"650 720 OFFCURVE",
"464 720 CURVE SMOOTH",
"215 720 OFFCURVE",
"47 545 OFFCURVE",
"47 289 CURVE SMOOTH",
"47 113 OFFCURVE",
"165 -7 OFFCURVE",
"347 -7 CURVE SMOOTH"
);
},
{
closed = 1;
nodes = (
"304 200 OFFCURVE",
"265 245 OFFCURVE",
"265 317 CURVE SMOOTH",
"265 422 OFFCURVE",
"328 515 OFFCURVE",
"436 515 CURVE SMOOTH",
"511 515 OFFCURVE",
"550 471 OFFCURVE",
"550 399 CURVE SMOOTH",
"550 294 OFFCURVE",
"489 200 OFFCURVE",
"381 200 CURVE SMOOTH"
);
},
{
closed = 1;
nodes = (
"353 759 LINE",
"365 792 OFFCURVE",
"382 806 OFFCURVE",
"406 806 CURVE SMOOTH",
"446 806 OFFCURVE",
"478 761 OFFCURVE",
"543 761 CURVE SMOOTH",
"625 761 OFFCURVE",
"690 808 OFFCURVE",
"734 936 CURVE",
"625 936 LINE",
"615 904 OFFCURVE",
"597 889 OFFCURVE",
"573 889 CURVE SMOOTH",
"533 889 OFFCURVE",
"502 935 OFFCURVE",
"437 935 CURVE SMOOTH",
"355 935 OFFCURVE",
"290 887 OFFCURVE",
"245 759 CURVE"
);
}
);
width = 788;
},
{
layerId = "0C75E9AD-DE1E-462B-B5DF-43688A01D7EC";
paths = (
{
closed = 1;
nodes = (
"582 -7 OFFCURVE",
"757 170 OFFCURVE",
"757 412 CURVE SMOOTH",
"757 583 OFFCURVE",
"640 704 OFFCURVE",
"460 704 CURVE SMOOTH",
"223 704 OFFCURVE",
"47 527 OFFCURVE",
"47 286 CURVE SMOOTH",
"47 114 OFFCURVE",
"165 -7 OFFCURVE",
"343 -7 CURVE SMOOTH"
);
},
{
closed = 1;
nodes = (
"237 96 OFFCURVE",
"165 172 OFFCURVE",
"165 293 CURVE SMOOTH",
"165 460 OFFCURVE",
"276 600 OFFCURVE",
"444 600 CURVE SMOOTH",
"567 600 OFFCURVE",
"639 525 OFFCURVE",
"639 404 CURVE SMOOTH",
"639 238 OFFCURVE",
"527 96 OFFCURVE",
"359 96 CURVE SMOOTH"
);
},
{
closed = 1;
nodes = (
"372 761 LINE",
"381 790 OFFCURVE",
"400 804 OFFCURVE",
"422 804 CURVE SMOOTH",
"462 804 OFFCURVE",
"476 759 OFFCURVE",
"530 759 CURVE SMOOTH",
"588 759 OFFCURVE",
"639 797 OFFCURVE",
"664 876 CURVE",
"600 876 LINE",
"591 847 OFFCURVE",
"571 834 OFFCURVE",
"549 834 CURVE SMOOTH",
"509 834 OFFCURVE",
"495 878 OFFCURVE",
"441 878 CURVE SMOOTH",
"383 878 OFFCURVE",
"332 840 OFFCURVE",
"308 761 CURVE"
);
}
);
width = 784;
},
{
layerId = "2AA9BEE2-6224-4C6D-925B-2F440B8C2D06";
paths = (
{
closed = 1;
nodes = (
"577 -8 OFFCURVE",
"753 195 OFFCURVE",
"753 428 CURVE SMOOTH",
"753 597 OFFCURVE",
"645 710 OFFCURVE",
"474 710 CURVE SMOOTH",
"243 710 OFFCURVE",
"67 506 OFFCURVE",
"67 274 CURVE SMOOTH",
"67 105 OFFCURVE",
"176 -8 OFFCURVE",
"347 -8 CURVE SMOOTH"
);
},
{
closed = 1;
nodes = (
"197 10 OFFCURVE",
"88 109 OFFCURVE",
"88 275 CURVE SMOOTH",
"88 494 OFFCURVE",
"248 692 OFFCURVE",
"470 692 CURVE SMOOTH",
"623 692 OFFCURVE",
"732 594 OFFCURVE",
"732 428 CURVE SMOOTH",
"732 204 OFFCURVE",
"569 10 OFFCURVE",
"350 10 CURVE SMOOTH"
);
},
{
closed = 1;
nodes = (
"413 747 LINE",
"423 780 OFFCURVE",
"440 795 OFFCURVE",
"463 795 CURVE SMOOTH",
"505 795 OFFCURVE",
"511 745 OFFCURVE",
"563 745 CURVE SMOOTH",
"597 745 OFFCURVE",
"628 774 OFFCURVE",
"636 810 CURVE",
"618 810 LINE",
"609 779 OFFCURVE",
"587 763 OFFCURVE",
"566 763 CURVE SMOOTH",
"519 763 OFFCURVE",
"517 813 OFFCURVE",
"467 813 CURVE SMOOTH",
"433 813 OFFCURVE",
"407 787 OFFCURVE",
"395 747 CURVE"
);
}
);
width = 792;
}
);
unicode = 00D5;
},
{
glyphname = OE;
layers = (
{
layerId = "CB828171-4BC8-495A-B1C3-011CB1482BD7";
paths = (
{
closed = 1;
nodes = (
"1066 532 LINE",
"1097 708 LINE",
"625 708 LINE",
"619 671 LINE",
"580 704 OFFCURVE",
"521 720 OFFCURVE",
"462 720 CURVE SMOOTH",
"260 720 OFFCURVE",
"88 569 OFFCURVE",
"50 354 CURVE SMOOTH",
"12 139 OFFCURVE",
"131 -12 OFFCURVE",
"333 -12 CURVE",
"393 -9 OFFCURVE",
"457 4 OFFCURVE",
"507 37 CURVE",
"500 0 LINE",
"972 0 LINE",
"1003 177 LINE",
"753 177 LINE",
"771 277 LINE",
"991 277 LINE",
"1021 444 LINE",
"801 444 LINE",
"816 532 LINE"
);
},
{
closed = 1;
nodes = (
"293 452 OFFCURVE",
"352 515 OFFCURVE",
"443 515 CURVE SMOOTH",
"532 515 OFFCURVE",
"570 452 OFFCURVE",
"553 354 CURVE SMOOTH",
"535 256 OFFCURVE",
"475 193 OFFCURVE",
"386 193 CURVE SMOOTH",
"295 193 OFFCURVE",
"258 256 OFFCURVE",
"276 354 CURVE SMOOTH"
);
}
);
width = 1056;
},
{
layerId = "0C75E9AD-DE1E-462B-B5DF-43688A01D7EC";
paths = (
{
closed = 1;
nodes = (
"1073 606 LINE",
"1089 695 LINE",
"705 695 LINE",
"686 589 LINE",
"642 665 OFFCURVE",
"563 704 OFFCURVE",
"458 704 CURVE SMOOTH",
"273 704 OFFCURVE",
"88 559 OFFCURVE",
"51 349 CURVE SMOOTH",
"14 140 OFFCURVE",
"147 -7 OFFCURVE",
"334 -7 CURVE SMOOTH",
"438 -7 OFFCURVE",
"530 32 OFFCURVE",
"602 111 CURVE",
"582 0 LINE",
"966 0 LINE",
"982 89 LINE",
"712 89 LINE",
"750 307 LINE",
"990 307 LINE",
"1006 395 LINE",
"766 395 LINE",
"803 606 LINE"
);
},
{
closed = 1;
nodes = (
"195 502 OFFCURVE",
"312 600 OFFCURVE",
"450 600 CURVE SMOOTH",
"588 600 OFFCURVE",
"671 502 OFFCURVE",
"644 349 CURVE SMOOTH",
"617 196 OFFCURVE",
"499 96 OFFCURVE",
"361 96 CURVE SMOOTH",
"223 96 OFFCURVE",
"141 196 OFFCURVE",
"168 349 CURVE SMOOTH"
);
}
);
width = 1083;
},
{
layerId = "2AA9BEE2-6224-4C6D-925B-2F440B8C2D06";
paths = (
{
closed = 1;
nodes = (
"1128 686 LINE",
"1132 704 LINE",
"788 704 LINE",
"745 462 LINE",
"739 612 OFFCURVE",
"628 710 OFFCURVE",
"473 710 CURVE SMOOTH",
"277 710 OFFCURVE",
"110 562 OFFCURVE",
"73 351 CURVE SMOOTH",
"36 140 OFFCURVE",
"150 -8 OFFCURVE",
"346 -8 CURVE SMOOTH",
"501 -8 OFFCURVE",
"647 90 OFFCURVE",
"706 240 CURVE",
"663 0 LINE",
"1007 0 LINE",
"1011 18 LINE",
"687 18 LINE",
"744 343 LINE",
"1038 343 LINE",
"1041 361 LINE",
"747 361 LINE",
"804 686 LINE"
);
},
{
closed = 1;
nodes = (
"132 563 OFFCURVE",
"294 692 OFFCURVE",
"469 692 CURVE SMOOTH",
"644 692 OFFCURVE",
"762 563 OFFCURVE",
"724 351 CURVE SMOOTH",
"687 139 OFFCURVE",
"524 10 OFFCURVE",
"349 10 CURVE SMOOTH",
"174 10 OFFCURVE",
"57 139 OFFCURVE",
"94 351 CURVE SMOOTH"
);
}
);
width = 1105;
}
);
unicode = 0152;
},
{
glyphname = P;
layers = (
{
layerId = "CB828171-4BC8-495A-B1C3-011CB1482BD7";
paths = (
{
closed = 1;
nodes = (
"293 400 LINE",
"316 530 LINE",
"379 530 LINE SMOOTH",
"429 530 OFFCURVE",
"443 504 OFFCURVE",
"436 465 CURVE SMOOTH",
"429 426 OFFCURVE",
"406 400 OFFCURVE",
"356 400 CURVE SMOOTH"
);
},
{
closed = 1;
nodes = (
"686 608 OFFCURVE",
"613 708 OFFCURVE",
"435 708 CURVE SMOOTH",
"125 708 LINE",
"0 0 LINE",
"222 0 LINE",
"262 225 LINE",
"350 225 LINE SMOOTH",
"528 225 OFFCURVE",
"638 334 OFFCURVE",
"661 465 CURVE SMOOTH"
);
}
);
width = 649;
},
{
layerId = "0C75E9AD-DE1E-462B-B5DF-43688A01D7EC";
paths = (
{
closed = 1;
nodes = (
"203 371 LINE",
"244 606 LINE",
"370 606 LINE SMOOTH",
"459 606 OFFCURVE",
"491 560 OFFCURVE",
"478 488 CURVE SMOOTH",
"466 418 OFFCURVE",
"418 371 OFFCURVE",
"329 371 CURVE SMOOTH"
);
},
{
closed = 1;
nodes = (
"615 601 OFFCURVE",
"551 695 OFFCURVE",
"386 695 CURVE SMOOTH",
"146 695 LINE",
"23 0 LINE",
"137 0 LINE",
"187 282 LINE",
"313 282 LINE SMOOTH",
"494 282 OFFCURVE",
"578 389 OFFCURVE",
"595 488 CURVE SMOOTH"
);
}
);
width = 595;
},
{
layerId = "2AA9BEE2-6224-4C6D-925B-2F440B8C2D06";
paths = (
{
closed = 1;
nodes = (
"117 338 LINE",
"178 684 LINE",
"336 684 LINE SMOOTH",
"487 684 OFFCURVE",
"530 619 OFFCURVE",
"510 510 CURVE SMOOTH",
"492 406 OFFCURVE",
"426 338 OFFCURVE",
"275 338 CURVE SMOOTH"
);
},
{
closed = 1;
nodes = (
"551 627 OFFCURVE",
"500 704 OFFCURVE",
"340 704 CURVE SMOOTH",
"162 704 LINE",
"37 0 LINE",
"57 0 LINE",
"113 317 LINE",
"271 317 LINE SMOOTH",
"417 317 OFFCURVE",
"507 380 OFFCURVE",
"530 510 CURVE SMOOTH"
);
}
);
width = 528;
}
);
unicode = 0050;
},
{
glyphname = Thorn;
layers = (
{
layerId = "CB828171-4BC8-495A-B1C3-011CB1482BD7";
paths = (
{
closed = 1;
nodes = (
"273 290 LINE",
"296 420 LINE",
"359 420 LINE SMOOTH",
"409 420 OFFCURVE",
"424 394 OFFCURVE",
"417 355 CURVE SMOOTH",
"410 316 OFFCURVE",
"386 290 OFFCURVE",
"336 290 CURVE SMOOTH"
);
},
{
closed = 1;
nodes = (
"666 492 OFFCURVE",
"592 588 OFFCURVE",
"414 588 CURVE SMOOTH",
"324 588 LINE",
"345 708 LINE",
"125 708 LINE",
"0 0 LINE",
"222 0 LINE",
"244 125 LINE",
"332 125 LINE SMOOTH",
"510 125 OFFCURVE",
"620 229 OFFCURVE",
"642 355 CURVE SMOOTH"
);
}
);
width = 649;
},
{
layerId = "0C75E9AD-DE1E-462B-B5DF-43688A01D7EC";
paths = (
{
closed = 1;
nodes = (
"178 231 LINE",
"220 466 LINE",
"346 466 LINE SMOOTH",
"435 466 OFFCURVE",
"466 419 OFFCURVE",
"454 348 CURVE SMOOTH",
"441 278 OFFCURVE",
"393 231 OFFCURVE",
"304 231 CURVE SMOOTH"
);
},
{
closed = 1;
nodes = (
"591 461 OFFCURVE",
"526 555 OFFCURVE",
"361 555 CURVE SMOOTH",
"234 555 LINE",
"259 696 LINE",
"146 696 LINE",
"23 0 LINE",
"137 0 LINE",
"162 142 LINE",
"288 142 LINE SMOOTH",
"469 142 OFFCURVE",
"553 249 OFFCURVE",
"571 348 CURVE SMOOTH"
);
}
);
width = 595;
},
{
layerId = "2AA9BEE2-6224-4C6D-925B-2F440B8C2D06";
paths = (
{
closed = 1;
nodes = (
"89 180 LINE",
"150 526 LINE",
"308 526 LINE SMOOTH",
"459 526 OFFCURVE",
"502 461 OFFCURVE",
"482 352 CURVE SMOOTH",
"464 248 OFFCURVE",
"398 180 OFFCURVE",
"247 180 CURVE SMOOTH"
);
},
{
closed = 1;
nodes = (
"523 469 OFFCURVE",
"472 546 OFFCURVE",
"312 546 CURVE SMOOTH",
"154 546 LINE",
"182 704 LINE",
"162 704 LINE",
"37 0 LINE",
"57 0 LINE",
"85 159 LINE",
"243 159 LINE SMOOTH",
"389 159 OFFCURVE",
"480 222 OFFCURVE",
"502 352 CURVE SMOOTH"
);
}
);
width = 528;
}
);
unicode = 00DE;
},
{
glyphname = Q;
layers = (
{
layerId = "CB828171-4BC8-495A-B1C3-011CB1482BD7";
paths = (
{
closed = 1;
nodes = (
"355 98 LINE",
"446 -115 LINE",
"708 -115 LINE",
"571 127 LINE"
);
},
{
closed = 1;
nodes = (
"599 -7 OFFCURVE",
"767 172 OFFCURVE",
"767 427 CURVE SMOOTH",
"767 603 OFFCURVE",
"650 720 OFFCURVE",
"464 720 CURVE SMOOTH",
"215 720 OFFCURVE",
"47 545 OFFCURVE",
"47 289 CURVE SMOOTH",
"47 113 OFFCURVE",
"165 -7 OFFCURVE",
"347 -7 CURVE SMOOTH"
);
},
{
closed = 1;
nodes = (
"304 200 OFFCURVE",
"265 245 OFFCURVE",
"265 317 CURVE SMOOTH",
"265 422 OFFCURVE",
"328 515 OFFCURVE",
"436 515 CURVE SMOOTH",
"511 515 OFFCURVE",
"550 471 OFFCURVE",
"550 399 CURVE SMOOTH",
"550 294 OFFCURVE",
"489 200 OFFCURVE",
"381 200 CURVE SMOOTH"
);
}
);
width = 788;
},
{
layerId = "0C75E9AD-DE1E-462B-B5DF-43688A01D7EC";
paths = (
{
closed = 1;
nodes = (
"408 50 LINE",
"539 -126 LINE",
"684 -126 LINE",
"522 85 LINE"
);
},
{
closed = 1;
nodes = (
"582 -7 OFFCURVE",
"757 170 OFFCURVE",
"757 412 CURVE SMOOTH",
"757 583 OFFCURVE",
"640 704 OFFCURVE",
"460 704 CURVE SMOOTH",
"223 704 OFFCURVE",
"47 527 OFFCURVE",
"47 286 CURVE SMOOTH",
"47 114 OFFCURVE",
"165 -7 OFFCURVE",
"343 -7 CURVE SMOOTH"
);
},
{
closed = 1;
nodes = (
"237 96 OFFCURVE",
"165 172 OFFCURVE",
"165 293 CURVE SMOOTH",
"165 460 OFFCURVE",
"276 600 OFFCURVE",
"444 600 CURVE SMOOTH",
"567 600 OFFCURVE",
"639 525 OFFCURVE",
"639 404 CURVE SMOOTH",
"639 238 OFFCURVE",
"527 96 OFFCURVE",
"359 96 CURVE SMOOTH"
);
}
);
width = 787;
},
{
layerId = "2AA9BEE2-6224-4C6D-925B-2F440B8C2D06";
paths = (
{
closed = 1;
nodes = (
"455 14 LINE",
"634 -149 LINE",
"669 -149 LINE",
"473 30 LINE"
);
},
{
closed = 1;
nodes = (
"577 -8 OFFCURVE",
"753 195 OFFCURVE",
"753 428 CURVE SMOOTH",
"753 597 OFFCURVE",
"645 710 OFFCURVE",
"474 710 CURVE SMOOTH",
"243 710 OFFCURVE",
"67 506 OFFCURVE",
"67 274 CURVE SMOOTH",
"67 105 OFFCURVE",
"176 -8 OFFCURVE",
"347 -8 CURVE SMOOTH"
);
},
{
closed = 1;
nodes = (
"197 10 OFFCURVE",
"88 109 OFFCURVE",
"88 275 CURVE SMOOTH",
"88 494 OFFCURVE",
"248 692 OFFCURVE",
"470 692 CURVE SMOOTH",
"623 692 OFFCURVE",
"732 594 OFFCURVE",
"732 428 CURVE SMOOTH",
"732 204 OFFCURVE",
"569 10 OFFCURVE",
"350 10 CURVE SMOOTH"
);
}
);
width = 792;
}
);
unicode = 0051;
},
{
glyphname = R;
layers = (
{
anchors = (
{
name = bottom;
position = "{275, 0}";
},
{
name = top;
position = "{401, 711}";
}
);
layerId = "CB828171-4BC8-495A-B1C3-011CB1482BD7";
paths = (
{
closed = 1;
nodes = (
"448 420 OFFCURVE",
"423 402 OFFCURVE",
"381 402 CURVE SMOOTH",
"293 402 LINE",
"314 522 LINE",
"402 522 LINE SMOOTH",
"444 522 OFFCURVE",
"462 498 OFFCURVE",
"456 462 CURVE SMOOTH"
);
},
{
closed = 1;
nodes = (
"125 708 LINE",
"0 0 LINE",
"222 0 LINE",
"267 254 LINE",
"375 254 LINE SMOOTH",
"553 254 OFFCURVE",
"661 352 OFFCURVE",
"683 476 CURVE SMOOTH",
"706 606 OFFCURVE",
"633 708 OFFCURVE",
"455 708 CURVE SMOOTH"
);
},
{
closed = 1;
nodes = (
"253 295 LINE",
"356 0 LINE",
"600 0 LINE",
"484 295 LINE"
);
}
);
width = 670;
},
{
anchors = (
{
name = bottom;
position = "{264, 0}";
},
{
name = top;
position = "{387, 696}";
}
);
layerId = "0C75E9AD-DE1E-462B-B5DF-43688A01D7EC";
paths = (
{
closed = 1;
nodes = (
"466 417 OFFCURVE",
"417 368 OFFCURVE",
"328 368 CURVE SMOOTH",
"202 368 LINE",
"244 606 LINE",
"370 606 LINE SMOOTH",
"459 606 OFFCURVE",
"491 559 OFFCURVE",
"478 487 CURVE SMOOTH"
);
},
{
closed = 1;
nodes = (
"146 695 LINE",
"23 0 LINE",
"137 0 LINE",
"186 278 LINE",
"312 278 LINE SMOOTH",
"493 278 OFFCURVE",
"578 388 OFFCURVE",
"595 487 CURVE SMOOTH",
"615 600 OFFCURVE",
"551 695 OFFCURVE",
"386 695 CURVE SMOOTH"
);
},
{
closed = 1;
nodes = (
"259 315 LINE",
"384 0 LINE",
"520 0 LINE",
"388 315 LINE"
);
}
);
width = 632;
},
{
anchors = (
{
name = bottom;
position = "{248, 0}";
},
{
name = top;
position = "{369, 683}";
}
);
layerId = "2AA9BEE2-6224-4C6D-925B-2F440B8C2D06";
paths = (
{
closed = 1;
nodes = (
"492 403 OFFCURVE",
"417 326 OFFCURVE",
"273 326 CURVE SMOOTH",
"115 326 LINE",
"178 684 LINE",
"334 684 LINE SMOOTH",
"485 684 OFFCURVE",
"530 615 OFFCURVE",
"511 506 CURVE SMOOTH"
);
},
{
closed = 1;
nodes = (
"162 704 LINE",
"37 0 LINE",
"57 0 LINE",
"112 307 LINE",
"270 307 LINE SMOOTH",
"416 307 OFFCURVE",
"509 379 OFFCURVE",
"532 506 CURVE SMOOTH",
"552 623 OFFCURVE",
"498 704 OFFCURVE",
"338 704 CURVE SMOOTH"
);
},
{
closed = 1;
nodes = (
"285 315 LINE",
"422 0 LINE",
"447 0 LINE",
"309 315 LINE"
);
}
);
width = 535;
}
);
unicode = 0052;
},
{
glyphname = Racute;
layers = (
{
layerId = "CB828171-4BC8-495A-B1C3-011CB1482BD7";
paths = (
{
closed = 1;
nodes = (
"448 420 OFFCURVE",
"423 402 OFFCURVE",
"381 402 CURVE SMOOTH",
"293 402 LINE",
"314 522 LINE",
"402 522 LINE SMOOTH",
"444 522 OFFCURVE",
"462 498 OFFCURVE",
"456 462 CURVE SMOOTH"
);
},
{
closed = 1;
nodes = (
"125 708 LINE",
"0 0 LINE",
"222 0 LINE",
"267 254 LINE",
"375 254 LINE SMOOTH",
"553 254 OFFCURVE",
"661 352 OFFCURVE",
"683 476 CURVE SMOOTH",
"706 606 OFFCURVE",
"633 708 OFFCURVE",
"455 708 CURVE SMOOTH"
);
},
{
closed = 1;
nodes = (
"253 295 LINE",
"356 0 LINE",
"600 0 LINE",
"484 295 LINE"
);
},
{
closed = 1;
nodes = (
"303 897 LINE",
"276 749 LINE",
"552 843 LINE",
"581 1007 LINE"
);
}
);
width = 670;
},
{
layerId = "0C75E9AD-DE1E-462B-B5DF-43688A01D7EC";
paths = (
{
closed = 1;
nodes = (
"466 417 OFFCURVE",
"417 368 OFFCURVE",
"328 368 CURVE SMOOTH",
"202 368 LINE",
"244 606 LINE",
"370 606 LINE SMOOTH",
"459 606 OFFCURVE",
"491 559 OFFCURVE",
"478 487 CURVE SMOOTH"
);
},
{
closed = 1;
nodes = (
"146 695 LINE",
"23 0 LINE",
"137 0 LINE",
"186 278 LINE",
"312 278 LINE SMOOTH",
"493 278 OFFCURVE",
"578 388 OFFCURVE",
"595 487 CURVE SMOOTH",
"615 600 OFFCURVE",
"551 695 OFFCURVE",
"386 695 CURVE SMOOTH"
);
},
{
closed = 1;
nodes = (
"259 315 LINE",
"384 0 LINE",
"520 0 LINE",
"388 315 LINE"
);
},
{
closed = 1;
nodes = (
"291 819 LINE",
"276 735 LINE",
"517 844 LINE",
"534 941 LINE"
);
}
);
width = 632;
},
{
layerId = "2AA9BEE2-6224-4C6D-925B-2F440B8C2D06";
paths = (
{
closed = 1;
nodes = (
"492 403 OFFCURVE",
"417 326 OFFCURVE",
"273 326 CURVE SMOOTH",
"115 326 LINE",
"178 684 LINE",
"334 684 LINE SMOOTH",
"485 684 OFFCURVE",
"530 615 OFFCURVE",
"511 506 CURVE SMOOTH"
);
},
{
closed = 1;
nodes = (
"162 704 LINE",
"37 0 LINE",
"57 0 LINE",
"112 307 LINE",
"270 307 LINE SMOOTH",
"416 307 OFFCURVE",
"509 379 OFFCURVE",
"532 506 CURVE SMOOTH",
"552 623 OFFCURVE",
"498 704 OFFCURVE",
"338 704 CURVE SMOOTH"
);
},
{
closed = 1;
nodes = (
"285 315 LINE",
"422 0 LINE",
"447 0 LINE",
"309 315 LINE"
);
},
{
closed = 1;
nodes = (
"273 749 LINE",
"270 729 LINE",
"480 859 LINE",
"484 883 LINE"
);
}
);
width = 535;
}
);
unicode = 0154;
},
{
glyphname = Rcaron;
layers = (
{
layerId = "CB828171-4BC8-495A-B1C3-011CB1482BD7";
paths = (
{
closed = 1;
nodes = (
"448 420 OFFCURVE",
"423 402 OFFCURVE",
"381 402 CURVE SMOOTH",
"293 402 LINE",
"314 522 LINE",
"402 522 LINE SMOOTH",
"444 522 OFFCURVE",
"462 498 OFFCURVE",
"456 462 CURVE SMOOTH"
);
},
{
closed = 1;
nodes = (
"125 708 LINE",
"0 0 LINE",
"222 0 LINE",
"267 254 LINE",
"375 254 LINE SMOOTH",
"553 254 OFFCURVE",
"661 352 OFFCURVE",
"683 476 CURVE SMOOTH",
"706 606 OFFCURVE",
"633 708 OFFCURVE",
"455 708 CURVE SMOOTH"
);
},
{
closed = 1;
nodes = (
"253 295 LINE",
"356 0 LINE",
"600 0 LINE",
"484 295 LINE"
);
},
{
closed = 1;
nodes = (
"431 880 LINE",
"280 968 LINE",
"255 824 LINE",
"406 739 LINE",
"586 824 LINE",
"611 968 LINE"
);
}
);
width = 670;
},
{
layerId = "0C75E9AD-DE1E-462B-B5DF-43688A01D7EC";
paths = (
{
closed = 1;
nodes = (
"466 417 OFFCURVE",
"417 368 OFFCURVE",
"328 368 CURVE SMOOTH",
"202 368 LINE",
"244 606 LINE",
"370 606 LINE SMOOTH",
"459 606 OFFCURVE",
"491 559 OFFCURVE",
"478 487 CURVE SMOOTH"
);
},
{
closed = 1;
nodes = (
"146 695 LINE",
"23 0 LINE",
"137 0 LINE",
"186 278 LINE",
"312 278 LINE SMOOTH",
"493 278 OFFCURVE",
"578 388 OFFCURVE",
"595 487 CURVE SMOOTH",
"615 600 OFFCURVE",
"551 695 OFFCURVE",
"386 695 CURVE SMOOTH"
);
},
{
closed = 1;
nodes = (
"259 315 LINE",
"384 0 LINE",
"520 0 LINE",
"388 315 LINE"
);
},
{
closed = 1;
nodes = (
"411 827 LINE",
"283 913 LINE",
"267 824 LINE",
"395 741 LINE",
"553 824 LINE",
"569 913 LINE"
);
}
);
width = 632;
},
{
layerId = "2AA9BEE2-6224-4C6D-925B-2F440B8C2D06";
paths = (
{
closed = 1;
nodes = (
"492 403 OFFCURVE",
"417 326 OFFCURVE",
"273 326 CURVE SMOOTH",
"115 326 LINE",
"178 684 LINE",
"334 684 LINE SMOOTH",
"485 684 OFFCURVE",
"530 615 OFFCURVE",
"511 506 CURVE SMOOTH"
);
},
{
closed = 1;
nodes = (
"162 704 LINE",
"37 0 LINE",
"57 0 LINE",
"112 307 LINE",
"270 307 LINE SMOOTH",
"416 307 OFFCURVE",
"509 379 OFFCURVE",
"532 506 CURVE SMOOTH",
"552 623 OFFCURVE",
"498 704 OFFCURVE",
"338 704 CURVE SMOOTH"
);
},
{
closed = 1;
nodes = (
"285 315 LINE",
"422 0 LINE",
"447 0 LINE",
"309 315 LINE"
);
},
{
closed = 1;
nodes = (
"386 780 LINE",
"276 861 LINE",
"272 841 LINE",
"382 760 LINE",
"519 841 LINE",
"523 861 LINE"
);
}
);
width = 535;
}
);
unicode = 0158;
},
{
glyphname = Rcommaaccent;
layers = (
{
anchors = (
{
name = _bottom;
position = "{300, 0}";
}
);
layerId = "CB828171-4BC8-495A-B1C3-011CB1482BD7";
paths = (
{
closed = 1;
nodes = (
"214 -35 LINE",
"188 -182 LINE",
"260 -182 LINE",
"258 -193 LINE SMOOTH",
"249 -245 OFFCURVE",
"225 -268 OFFCURVE",
"190 -268 CURVE",
"176 -346 LINE",
"290 -346 OFFCURVE",
"355 -266 OFFCURVE",
"372 -170 CURVE SMOOTH",
"380 -128 OFFCURVE",
"380 -82 OFFCURVE",
"370 -35 CURVE"
);
},
{
closed = 1;
nodes = (
"448 420 OFFCURVE",
"423 402 OFFCURVE",
"381 402 CURVE SMOOTH",
"293 402 LINE",
"314 522 LINE",
"402 522 LINE SMOOTH",
"444 522 OFFCURVE",
"462 498 OFFCURVE",
"456 462 CURVE SMOOTH"
);
},
{
closed = 1;
nodes = (
"125 708 LINE",
"0 0 LINE",
"222 0 LINE",
"267 254 LINE",
"375 254 LINE SMOOTH",
"553 254 OFFCURVE",
"661 352 OFFCURVE",
"683 476 CURVE SMOOTH",
"706 606 OFFCURVE",
"633 708 OFFCURVE",
"455 708 CURVE SMOOTH"
);
},
{
closed = 1;
nodes = (
"253 295 LINE",
"356 0 LINE",
"600 0 LINE",
"484 295 LINE"
);
}
);
width = 701;
},
{
anchors = (
{
name = _bottom;
position = "{264, 0}";
}
);
layerId = "0C75E9AD-DE1E-462B-B5DF-43688A01D7EC";
paths = (
{
closed = 1;
nodes = (
"202 -46 LINE",
"185 -142 LINE",
"237 -142 LINE",
"234 -163 LINE",
"227 -201 OFFCURVE",
"209 -220 OFFCURVE",
"176 -220 CURVE",
"167 -270 LINE",
"241 -270 OFFCURVE",
"286 -228 OFFCURVE",
"301 -145 CURVE SMOOTH",
"306 -116 OFFCURVE",
"308 -83 OFFCURVE",
"305 -46 CURVE"
);
},
{
closed = 1;
nodes = (
"466 417 OFFCURVE",
"417 368 OFFCURVE",
"328 368 CURVE SMOOTH",
"202 368 LINE",
"244 606 LINE",
"370 606 LINE SMOOTH",
"459 606 OFFCURVE",
"491 559 OFFCURVE",
"478 487 CURVE SMOOTH"
);
},
{
closed = 1;
nodes = (
"146 695 LINE",
"23 0 LINE",
"137 0 LINE",
"186 278 LINE",
"312 278 LINE SMOOTH",
"493 278 OFFCURVE",
"578 388 OFFCURVE",
"595 487 CURVE SMOOTH",
"615 600 OFFCURVE",
"551 695 OFFCURVE",
"386 695 CURVE SMOOTH"
);
},
{
closed = 1;
nodes = (
"259 315 LINE",
"384 0 LINE",
"520 0 LINE",
"388 315 LINE"
);
}
);
width = 632;
},
{
anchors = (
{
name = _bottom;
position = "{214, 0}";
}
);
layerId = "2AA9BEE2-6224-4C6D-925B-2F440B8C2D06";
paths = (
{
closed = 1;
nodes = (
"179 -59 LINE",
"172 -97 LINE",
"203 -97 LINE",
"202 -104 LINE",
"196 -137 OFFCURVE",
"182 -158 OFFCURVE",
"150 -158 CURVE",
"146 -176 LINE",
"182 -176 OFFCURVE",
"214 -161 OFFCURVE",
"227 -90 CURVE",
"228 -81 OFFCURVE",
"229 -68 OFFCURVE",
"230 -59 CURVE"
);
},
{
closed = 1;
nodes = (
"492 403 OFFCURVE",
"417 326 OFFCURVE",
"273 326 CURVE SMOOTH",
"115 326 LINE",
"178 684 LINE",
"334 684 LINE SMOOTH",
"485 684 OFFCURVE",
"530 615 OFFCURVE",
"511 506 CURVE SMOOTH"
);
},
{
closed = 1;
nodes = (
"162 704 LINE",
"37 0 LINE",
"57 0 LINE",
"112 307 LINE",
"270 307 LINE SMOOTH",
"416 307 OFFCURVE",
"509 379 OFFCURVE",
"532 506 CURVE SMOOTH",
"552 623 OFFCURVE",
"498 704 OFFCURVE",
"338 704 CURVE SMOOTH"
);
},
{
closed = 1;
nodes = (
"285 315 LINE",
"422 0 LINE",
"447 0 LINE",
"309 315 LINE"
);
}
);
width = 535;
}
);
unicode = 0156;
},
{
glyphname = S;
layers = (
{
layerId = "3EDF6DF0-3C7E-41C9-BACE-D197D96B1B4F";
name = public.background;
paths = (
{
closed = 1;
nodes = (
"268 537 OFFCURVE",
"282 547 OFFCURVE",
"300 547 CURVE SMOOTH",
"321 547 OFFCURVE",
"342 536 OFFCURVE",
"346 491 CURVE",
"585 491 LINE",
"575 641 OFFCURVE",
"469 720 OFFCURVE",
"301 720 CURVE SMOOTH",
"150 720 OFFCURVE",
"30 646 OFFCURVE",
"30 504 CURVE",
"30 253 OFFCURVE",
"360 297 OFFCURVE",
"360 201 CURVE SMOOTH",
"360 177 OFFCURVE",
"344 166 OFFCURVE",
"322 166 CURVE SMOOTH",
"300 166 OFFCURVE",
"272 175 OFFCURVE",
"268 227 CURVE",
"32 227 LINE",
"42 68 OFFCURVE",
"169 -7 OFFCURVE",
"331 -7 CURVE SMOOTH",
"502 -7 OFFCURVE",
"597 89 OFFCURVE",
"597 209 CURVE SMOOTH",
"597 457 OFFCURVE",
"268 422 OFFCURVE",
"268 513 CURVE SMOOTH"
);
}
);
width = 536;
},
{
layerId = "3EDF6DF0-3C7E-41C9-BACE-D197D96B1B4F";
name = public.background;
paths = (
{
closed = 1;
nodes = (
"486 -7 OFFCURVE",
"592 92 OFFCURVE",
"592 221 CURVE SMOOTH",
"592 424 OFFCURVE",
"310 426 OFFCURVE",
"310 511 CURVE SMOOTH",
"310 533 OFFCURVE",
"327 547 OFFCURVE",
"349 547 CURVE SMOOTH",
"378 547 OFFCURVE",
"395 528 OFFCURVE",
"388 491 CURVE",
"627 491 LINE",
"628 499 OFFCURVE",
"628 507 OFFCURVE",
"628 514 CURVE SMOOTH",
"628 648 OFFCURVE",
"519 720 OFFCURVE",
"362 720 CURVE SMOOTH",
"191 720 OFFCURVE",
"67 634 OFFCURVE",
"67 480 CURVE SMOOTH",
"67 276 OFFCURVE",
"350 291 OFFCURVE",
"350 201 CURVE SMOOTH",
"350 178 OFFCURVE",
"331 166 OFFCURVE",
"308 166 CURVE SMOOTH",
"269 166 OFFCURVE",
"253 186 OFFCURVE",
"257 227 CURVE",
"21 227 LINE",
"20 218 OFFCURVE",
"20 209 OFFCURVE",
"20 200 CURVE SMOOTH",
"20 52 OFFCURVE",
"144 -7 OFFCURVE",
"304 -7 CURVE SMOOTH"
);
}
);
width = 536;
},
{
anchors = (
{
name = bottom;
position = "{280, 0}";
},
{
name = top;
position = "{406, 711}";
}
);
layerId = "CB828171-4BC8-495A-B1C3-011CB1482BD7";
paths = (
{
closed = 1;
nodes = (
"486 -7 OFFCURVE",
"592 92 OFFCURVE",
"592 221 CURVE SMOOTH",
"592 424 OFFCURVE",
"310 426 OFFCURVE",
"310 511 CURVE SMOOTH",
"310 533 OFFCURVE",
"327 547 OFFCURVE",
"349 547 CURVE SMOOTH",
"378 547 OFFCURVE",
"395 528 OFFCURVE",
"388 491 CURVE",
"627 491 LINE",
"645 635 OFFCURVE",
"526 720 OFFCURVE",
"362 720 CURVE SMOOTH",
"191 720 OFFCURVE",
"67 634 OFFCURVE",
"67 480 CURVE SMOOTH",
"67 276 OFFCURVE",
"350 291 OFFCURVE",
"350 201 CURVE SMOOTH",
"350 178 OFFCURVE",
"331 166 OFFCURVE",
"308 166 CURVE SMOOTH",
"269 166 OFFCURVE",
"253 186 OFFCURVE",
"257 227 CURVE",
"21 227 LINE",
"3 68 OFFCURVE",
"126 -7 OFFCURVE",
"304 -7 CURVE SMOOTH"
);
}
);
width = 642;
},
{
layerId = "3EDF6DF0-3C7E-41C9-BACE-D197D96B1B4F";
name = public.background;
paths = (
{
closed = 1;
nodes = (
"428 -7 OFFCURVE",
"530 76 OFFCURVE",
"530 193 CURVE SMOOTH",
"530 404 OFFCURVE",
"204 380 OFFCURVE",
"204 513 CURVE SMOOTH",
"204 574 OFFCURVE",
"255 611 OFFCURVE",
"331 611 CURVE SMOOTH",
"407 611 OFFCURVE",
"445 567 OFFCURVE",
"440 515 CURVE",
"560 515 LINE",
"566 629 OFFCURVE",
"480 704 OFFCURVE",
"336 704 CURVE SMOOTH",
"192 704 OFFCURVE",
"85 624 OFFCURVE",
"88 494 CURVE SMOOTH",
"93 283 OFFCURVE",
"412 322 OFFCURVE",
"412 184 CURVE SMOOTH",
"412 118 OFFCURVE",
"360 85 OFFCURVE",
"280 85 CURVE SMOOTH",
"201 85 OFFCURVE",
"159 133 OFFCURVE",
"164 192 CURVE",
"51 192 LINE",
"35 65 OFFCURVE",
"140 -7 OFFCURVE",
"275 -7 CURVE SMOOTH"
);
}
);
width = 536;
},
{
anchors = (
{
name = bottom;
position = "{251, 0}";
},
{
name = top;
position = "{374, 696}";
}
);
layerId = "0C75E9AD-DE1E-462B-B5DF-43688A01D7EC";
paths = (
{
closed = 1;
nodes = (
"428 -7 OFFCURVE",
"530 76 OFFCURVE",
"530 193 CURVE SMOOTH",
"530 404 OFFCURVE",
"204 380 OFFCURVE",
"204 513 CURVE SMOOTH",
"204 574 OFFCURVE",
"255 611 OFFCURVE",
"331 611 CURVE SMOOTH",
"407 611 OFFCURVE",
"445 567 OFFCURVE",
"440 515 CURVE",
"560 515 LINE",
"566 629 OFFCURVE",
"480 704 OFFCURVE",
"336 704 CURVE SMOOTH",
"192 704 OFFCURVE",
"85 624 OFFCURVE",
"88 494 CURVE SMOOTH",
"93 283 OFFCURVE",
"412 322 OFFCURVE",
"412 184 CURVE SMOOTH",
"412 118 OFFCURVE",
"360 85 OFFCURVE",
"280 85 CURVE SMOOTH",
"201 85 OFFCURVE",
"159 133 OFFCURVE",
"164 192 CURVE",
"51 192 LINE",
"35 65 OFFCURVE",
"140 -7 OFFCURVE",
"275 -7 CURVE SMOOTH"
);
}
);
width = 599;
},
{
layerId = "3EDF6DF0-3C7E-41C9-BACE-D197D96B1B4F";
name = public.background;
paths = (
{
closed = 1;
nodes = (
"131 648 OFFCURVE",
"206 693 OFFCURVE",
"302 693 CURVE",
"435 693 OFFCURVE",
"474 609 OFFCURVE",
"478 559 CURVE",
"498 559 LINE",
"494 627 OFFCURVE",
"437 711 OFFCURVE",
"305 711 CURVE",
"184 711 OFFCURVE",
"110 645 OFFCURVE",
"96 563 CURVE SMOOTH",
"48 281 OFFCURVE",
"474 436 OFFCURVE",
"426 159 CURVE SMOOTH",
"412 79 OFFCURVE",
"347 11 OFFCURVE",
"237 11 CURVE SMOOTH",
"91 11 OFFCURVE",
"51 111 OFFCURVE",
"53 169 CURVE",
"33 169 LINE",
"29 86 OFFCURVE",
"96 -7 OFFCURVE",
"234 -7 CURVE SMOOTH",
"368 -7 OFFCURVE",
"433 82 OFFCURVE",
"446 159 CURVE SMOOTH",
"496 454 OFFCURVE",
"69 299 OFFCURVE",
"116 563 CURVE SMOOTH"
);
}
);
width = 536;
},
{
anchors = (
{
name = bottom;
position = "{219, 0}";
},
{
name = top;
position = "{340, 683}";
}
);
layerId = "2AA9BEE2-6224-4C6D-925B-2F440B8C2D06";
paths = (
{
closed = 1;
nodes = (
"359 -7 OFFCURVE",
"433 72 OFFCURVE",
"448 157 CURVE SMOOTH",
"495 432 OFFCURVE",
"74 322 OFFCURVE",
"115 557 CURVE SMOOTH",
"130 643 OFFCURVE",
"212 693 OFFCURVE",
"311 693 CURVE SMOOTH",
"432 693 OFFCURVE",
"481 613 OFFCURVE",
"479 563 CURVE",
"499 563 LINE",
"502 631 OFFCURVE",
"442 711 OFFCURVE",
"314 711 CURVE SMOOTH",
"185 711 OFFCURVE",
"109 638 OFFCURVE",
"95 557 CURVE SMOOTH",
"52 303 OFFCURVE",
"473 415 OFFCURVE",
"428 157 CURVE SMOOTH",
"413 70 OFFCURVE",
"338 11 OFFCURVE",
"232 11 CURVE SMOOTH",
"81 11 OFFCURVE",
"52 108 OFFCURVE",
"55 166 CURVE",
"35 166 LINE",
"29 77 OFFCURVE",
"88 -7 OFFCURVE",
"229 -7 CURVE SMOOTH"
);
}
);
width = 528;
}
);
unicode = 0053;
},
{
glyphname = Sacute;
layers = (
{
layerId = "CB828171-4BC8-495A-B1C3-011CB1482BD7";
paths = (
{
closed = 1;
nodes = (
"486 -7 OFFCURVE",
"592 92 OFFCURVE",
"592 221 CURVE SMOOTH",
"592 424 OFFCURVE",
"310 426 OFFCURVE",
"310 511 CURVE SMOOTH",
"310 533 OFFCURVE",
"327 547 OFFCURVE",
"349 547 CURVE SMOOTH",
"378 547 OFFCURVE",
"395 528 OFFCURVE",
"388 491 CURVE",
"627 491 LINE",
"645 635 OFFCURVE",
"526 720 OFFCURVE",
"362 720 CURVE SMOOTH",
"191 720 OFFCURVE",
"67 634 OFFCURVE",
"67 480 CURVE SMOOTH",
"67 276 OFFCURVE",
"350 291 OFFCURVE",
"350 201 CURVE SMOOTH",
"350 178 OFFCURVE",
"331 166 OFFCURVE",
"308 166 CURVE SMOOTH",
"269 166 OFFCURVE",
"253 186 OFFCURVE",
"257 227 CURVE",
"21 227 LINE",
"3 68 OFFCURVE",
"126 -7 OFFCURVE",
"304 -7 CURVE SMOOTH"
);
},
{
closed = 1;
nodes = (
"308 897 LINE",
"281 749 LINE",
"557 843 LINE",
"586 1007 LINE"
);
}
);
width = 642;
},
{
layerId = "0C75E9AD-DE1E-462B-B5DF-43688A01D7EC";
paths = (
{
closed = 1;
nodes = (
"428 -7 OFFCURVE",
"530 76 OFFCURVE",
"530 193 CURVE SMOOTH",
"530 404 OFFCURVE",
"204 380 OFFCURVE",
"204 513 CURVE SMOOTH",
"204 574 OFFCURVE",
"255 611 OFFCURVE",
"331 611 CURVE SMOOTH",
"407 611 OFFCURVE",
"445 567 OFFCURVE",
"440 515 CURVE",
"560 515 LINE",
"566 629 OFFCURVE",
"480 704 OFFCURVE",
"336 704 CURVE SMOOTH",
"192 704 OFFCURVE",
"85 624 OFFCURVE",
"88 494 CURVE SMOOTH",
"93 283 OFFCURVE",
"412 322 OFFCURVE",
"412 184 CURVE SMOOTH",
"412 118 OFFCURVE",
"360 85 OFFCURVE",
"280 85 CURVE SMOOTH",
"201 85 OFFCURVE",
"159 133 OFFCURVE",
"164 192 CURVE",
"51 192 LINE",
"35 65 OFFCURVE",
"140 -7 OFFCURVE",
"275 -7 CURVE SMOOTH"
);
},
{
closed = 1;
nodes = (
"278 819 LINE",
"263 735 LINE",
"504 844 LINE",
"521 941 LINE"
);
}
);
width = 599;
},
{
layerId = "2AA9BEE2-6224-4C6D-925B-2F440B8C2D06";
paths = (
{
closed = 1;
nodes = (
"359 -7 OFFCURVE",
"433 72 OFFCURVE",
"448 157 CURVE SMOOTH",
"495 432 OFFCURVE",
"74 322 OFFCURVE",
"115 557 CURVE SMOOTH",
"130 643 OFFCURVE",
"212 693 OFFCURVE",
"311 693 CURVE SMOOTH",
"432 693 OFFCURVE",
"481 613 OFFCURVE",
"479 563 CURVE",
"499 563 LINE",
"502 631 OFFCURVE",
"442 711 OFFCURVE",
"314 711 CURVE SMOOTH",
"185 711 OFFCURVE",
"109 638 OFFCURVE",
"95 557 CURVE SMOOTH",
"52 303 OFFCURVE",
"473 415 OFFCURVE",
"428 157 CURVE SMOOTH",
"413 70 OFFCURVE",
"338 11 OFFCURVE",
"232 11 CURVE SMOOTH",
"81 11 OFFCURVE",
"52 108 OFFCURVE",
"55 166 CURVE",
"35 166 LINE",
"29 77 OFFCURVE",
"88 -7 OFFCURVE",
"229 -7 CURVE SMOOTH"
);
},
{
closed = 1;
nodes = (
"244 749 LINE",
"241 729 LINE",
"451 859 LINE",
"455 883 LINE"
);
}
);
width = 528;
}
);
unicode = 015A;
},
{
glyphname = Scaron;
layers = (
{
layerId = "CB828171-4BC8-495A-B1C3-011CB1482BD7";
paths = (
{
closed = 1;
nodes = (
"486 -7 OFFCURVE",
"592 92 OFFCURVE",
"592 221 CURVE SMOOTH",
"592 424 OFFCURVE",
"310 426 OFFCURVE",
"310 511 CURVE SMOOTH",
"310 533 OFFCURVE",
"327 547 OFFCURVE",
"349 547 CURVE SMOOTH",
"378 547 OFFCURVE",
"395 528 OFFCURVE",
"388 491 CURVE",
"627 491 LINE",
"645 635 OFFCURVE",
"526 720 OFFCURVE",
"362 720 CURVE SMOOTH",
"191 720 OFFCURVE",
"67 634 OFFCURVE",
"67 480 CURVE SMOOTH",
"67 276 OFFCURVE",
"350 291 OFFCURVE",
"350 201 CURVE SMOOTH",
"350 178 OFFCURVE",
"331 166 OFFCURVE",
"308 166 CURVE SMOOTH",
"269 166 OFFCURVE",
"253 186 OFFCURVE",
"257 227 CURVE",
"21 227 LINE",
"3 68 OFFCURVE",
"126 -7 OFFCURVE",
"304 -7 CURVE SMOOTH"
);
},
{
closed = 1;
nodes = (
"436 880 LINE",
"285 968 LINE",
"260 824 LINE",
"411 739 LINE",
"591 824 LINE",
"616 968 LINE"
);
}
);
width = 642;
},
{
layerId = "0C75E9AD-DE1E-462B-B5DF-43688A01D7EC";
paths = (
{
closed = 1;
nodes = (
"428 -7 OFFCURVE",
"530 76 OFFCURVE",
"530 193 CURVE SMOOTH",
"530 404 OFFCURVE",
"204 380 OFFCURVE",
"204 513 CURVE SMOOTH",
"204 574 OFFCURVE",
"255 611 OFFCURVE",
"331 611 CURVE SMOOTH",
"407 611 OFFCURVE",
"445 567 OFFCURVE",
"440 515 CURVE",
"560 515 LINE",
"566 629 OFFCURVE",
"480 704 OFFCURVE",
"336 704 CURVE SMOOTH",
"192 704 OFFCURVE",
"85 624 OFFCURVE",
"88 494 CURVE SMOOTH",
"93 283 OFFCURVE",
"412 322 OFFCURVE",
"412 184 CURVE SMOOTH",
"412 118 OFFCURVE",
"360 85 OFFCURVE",
"280 85 CURVE SMOOTH",
"201 85 OFFCURVE",
"159 133 OFFCURVE",
"164 192 CURVE",
"51 192 LINE",
"35 65 OFFCURVE",
"140 -7 OFFCURVE",
"275 -7 CURVE SMOOTH"
);
},
{
closed = 1;
nodes = (
"398 827 LINE",
"270 913 LINE",
"254 824 LINE",
"382 741 LINE",
"540 824 LINE",
"556 913 LINE"
);
}
);
width = 599;
},
{
layerId = "2AA9BEE2-6224-4C6D-925B-2F440B8C2D06";
paths = (
{
closed = 1;
nodes = (
"359 -7 OFFCURVE",
"433 72 OFFCURVE",
"448 157 CURVE SMOOTH",
"495 432 OFFCURVE",
"74 322 OFFCURVE",
"115 557 CURVE SMOOTH",
"130 643 OFFCURVE",
"212 693 OFFCURVE",
"311 693 CURVE SMOOTH",
"432 693 OFFCURVE",
"481 613 OFFCURVE",
"479 563 CURVE",
"499 563 LINE",
"502 631 OFFCURVE",
"442 711 OFFCURVE",
"314 711 CURVE SMOOTH",
"185 711 OFFCURVE",
"109 638 OFFCURVE",
"95 557 CURVE SMOOTH",
"52 303 OFFCURVE",
"473 415 OFFCURVE",
"428 157 CURVE SMOOTH",
"413 70 OFFCURVE",
"338 11 OFFCURVE",
"232 11 CURVE SMOOTH",
"81 11 OFFCURVE",
"52 108 OFFCURVE",
"55 166 CURVE",
"35 166 LINE",
"29 77 OFFCURVE",
"88 -7 OFFCURVE",
"229 -7 CURVE SMOOTH"
);
},
{
closed = 1;
nodes = (
"357 780 LINE",
"247 861 LINE",
"243 841 LINE",
"353 760 LINE",
"490 841 LINE",
"494 861 LINE"
);
}
);
width = 528;
}
);
unicode = 0160;
},
{
glyphname = Scedilla;
layers = (
{
layerId = "CB828171-4BC8-495A-B1C3-011CB1482BD7";
paths = (
{
closed = 1;
nodes = (
"486 -7 OFFCURVE",
"592 92 OFFCURVE",
"592 221 CURVE SMOOTH",
"592 424 OFFCURVE",
"310 426 OFFCURVE",
"310 511 CURVE SMOOTH",
"310 533 OFFCURVE",
"327 547 OFFCURVE",
"349 547 CURVE SMOOTH",
"378 547 OFFCURVE",
"395 528 OFFCURVE",
"388 491 CURVE",
"627 491 LINE",
"645 635 OFFCURVE",
"526 720 OFFCURVE",
"362 720 CURVE SMOOTH",
"191 720 OFFCURVE",
"67 634 OFFCURVE",
"67 480 CURVE SMOOTH",
"67 276 OFFCURVE",
"350 291 OFFCURVE",
"350 201 CURVE SMOOTH",
"350 178 OFFCURVE",
"331 166 OFFCURVE",
"308 166 CURVE SMOOTH",
"269 166 OFFCURVE",
"253 186 OFFCURVE",
"257 227 CURVE",
"21 227 LINE",
"3 68 OFFCURVE",
"126 -7 OFFCURVE",
"304 -7 CURVE SMOOTH"
);
},
{
closed = 1;
nodes = (
"354 0 LINE",
"226 0 LINE",
"202 -134 LINE",
"287 -134 LINE SMOOTH",
"303 -134 OFFCURVE",
"312 -139 OFFCURVE",
"310 -149 CURVE SMOOTH",
"308 -159 OFFCURVE",
"297 -165 OFFCURVE",
"281 -165 CURVE SMOOTH",
"131 -165 LINE",
"111 -278 LINE",
"284 -278 LINE SMOOTH",
"351 -278 OFFCURVE",
"439 -251 OFFCURVE",
"456 -156 CURVE SMOOTH",
"473 -61 OFFCURVE",
"396 -34 OFFCURVE",
"348 -34 CURVE"
);
}
);
width = 642;
},
{
layerId = "0C75E9AD-DE1E-462B-B5DF-43688A01D7EC";
paths = (
{
closed = 1;
nodes = (
"428 -7 OFFCURVE",
"530 76 OFFCURVE",
"530 193 CURVE SMOOTH",
"530 404 OFFCURVE",
"204 380 OFFCURVE",
"204 513 CURVE SMOOTH",
"204 574 OFFCURVE",
"255 611 OFFCURVE",
"331 611 CURVE SMOOTH",
"407 611 OFFCURVE",
"445 567 OFFCURVE",
"440 515 CURVE",
"560 515 LINE",
"566 629 OFFCURVE",
"480 704 OFFCURVE",
"336 704 CURVE SMOOTH",
"192 704 OFFCURVE",
"85 624 OFFCURVE",
"88 494 CURVE SMOOTH",
"93 283 OFFCURVE",
"412 322 OFFCURVE",
"412 184 CURVE SMOOTH",
"412 118 OFFCURVE",
"360 85 OFFCURVE",
"280 85 CURVE SMOOTH",
"201 85 OFFCURVE",
"159 133 OFFCURVE",
"164 192 CURVE",
"51 192 LINE",
"35 65 OFFCURVE",
"140 -7 OFFCURVE",
"275 -7 CURVE SMOOTH"
);
},
{
closed = 1;
nodes = (
"294 7 LINE",
"219 7 LINE",
"197 -116 LINE",
"252 -116 LINE SMOOTH",
"287 -116 OFFCURVE",
"307 -123 OFFCURVE",
"301 -153 CURVE",
"296 -183 OFFCURVE",
"274 -190 OFFCURVE",
"239 -190 CURVE SMOOTH",
"130 -190 LINE",
"117 -262 LINE",
"249 -262 LINE SMOOTH",
"320 -262 OFFCURVE",
"383 -221 OFFCURVE",
"395 -153 CURVE SMOOTH",
"408 -84 OFFCURVE",
"358 -48 OFFCURVE",
"284 -48 CURVE"
);
}
);
width = 599;
},
{
layerId = "2AA9BEE2-6224-4C6D-925B-2F440B8C2D06";
paths = (
{
closed = 1;
nodes = (
"359 -7 OFFCURVE",
"433 72 OFFCURVE",
"448 157 CURVE SMOOTH",
"495 432 OFFCURVE",
"74 322 OFFCURVE",
"115 557 CURVE SMOOTH",
"130 643 OFFCURVE",
"212 693 OFFCURVE",
"311 693 CURVE SMOOTH",
"432 693 OFFCURVE",
"481 613 OFFCURVE",
"479 563 CURVE",
"499 563 LINE",
"502 631 OFFCURVE",
"442 711 OFFCURVE",
"314 711 CURVE SMOOTH",
"185 711 OFFCURVE",
"109 638 OFFCURVE",
"95 557 CURVE SMOOTH",
"52 303 OFFCURVE",
"473 415 OFFCURVE",
"428 157 CURVE SMOOTH",
"413 70 OFFCURVE",
"338 11 OFFCURVE",
"232 11 CURVE SMOOTH",
"81 11 OFFCURVE",
"52 108 OFFCURVE",
"55 166 CURVE",
"35 166 LINE",
"29 77 OFFCURVE",
"88 -7 OFFCURVE",
"229 -7 CURVE SMOOTH"
);
},
{
closed = 1;
nodes = (
"233 7 LINE",
"213 7 LINE",
"193 -107 LINE",
"230 -107 LINE SMOOTH",
"297 -107 OFFCURVE",
"314 -135 OFFCURVE",
"308 -168 CURVE SMOOTH",
"301 -207 OFFCURVE",
"274 -234 OFFCURVE",
"207 -234 CURVE SMOOTH",
"147 -234 LINE",
"144 -254 LINE",
"207 -254 LINE SMOOTH",
"277 -254 OFFCURVE",
"319 -218 OFFCURVE",
"328 -168 CURVE SMOOTH",
"337 -114 OFFCURVE",
"300 -84 OFFCURVE",
"216 -89 CURVE"
);
}
);
width = 528;
}
);
unicode = 015E;
},
{
glyphname = Scommaaccent;
layers = (
{
anchors = (
{
name = _bottom;
position = "{293, 0}";
}
);
layerId = "CB828171-4BC8-495A-B1C3-011CB1482BD7";
paths = (
{
closed = 1;
nodes = (
"207 -35 LINE",
"181 -182 LINE",
"253 -182 LINE",
"251 -193 LINE SMOOTH",
"242 -245 OFFCURVE",
"218 -268 OFFCURVE",
"183 -268 CURVE",
"169 -346 LINE",
"283 -346 OFFCURVE",
"348 -266 OFFCURVE",
"365 -170 CURVE SMOOTH",
"373 -128 OFFCURVE",
"373 -82 OFFCURVE",
"363 -35 CURVE"
);
},
{
closed = 1;
nodes = (
"486 -7 OFFCURVE",
"592 92 OFFCURVE",
"592 221 CURVE SMOOTH",
"592 424 OFFCURVE",
"310 426 OFFCURVE",
"310 511 CURVE SMOOTH",
"310 533 OFFCURVE",
"327 547 OFFCURVE",
"349 547 CURVE SMOOTH",
"378 547 OFFCURVE",
"395 528 OFFCURVE",
"388 491 CURVE",
"627 491 LINE",
"645 635 OFFCURVE",
"526 720 OFFCURVE",
"362 720 CURVE SMOOTH",
"191 720 OFFCURVE",
"67 634 OFFCURVE",
"67 480 CURVE SMOOTH",
"67 276 OFFCURVE",
"350 291 OFFCURVE",
"350 201 CURVE SMOOTH",
"350 178 OFFCURVE",
"331 166 OFFCURVE",
"308 166 CURVE SMOOTH",
"269 166 OFFCURVE",
"253 186 OFFCURVE",
"257 227 CURVE",
"21 227 LINE",
"3 68 OFFCURVE",
"126 -7 OFFCURVE",
"304 -7 CURVE SMOOTH"
);
}
);
width = 685;
},
{
anchors = (
{
name = _bottom;
position = "{251, 0}";
}
);
layerId = "0C75E9AD-DE1E-462B-B5DF-43688A01D7EC";
paths = (
{
closed = 1;
nodes = (
"188 -46 LINE",
"171 -142 LINE",
"224 -142 LINE",
"221 -163 LINE",
"214 -201 OFFCURVE",
"196 -220 OFFCURVE",
"162 -220 CURVE",
"153 -270 LINE",
"228 -270 OFFCURVE",
"273 -228 OFFCURVE",
"288 -145 CURVE SMOOTH",
"293 -116 OFFCURVE",
"295 -83 OFFCURVE",
"291 -46 CURVE"
);
},
{
closed = 1;
nodes = (
"428 -7 OFFCURVE",
"530 76 OFFCURVE",
"530 193 CURVE SMOOTH",
"530 404 OFFCURVE",
"204 380 OFFCURVE",
"204 513 CURVE SMOOTH",
"204 574 OFFCURVE",
"255 611 OFFCURVE",
"331 611 CURVE SMOOTH",
"407 611 OFFCURVE",
"445 567 OFFCURVE",
"440 515 CURVE",
"560 515 LINE",
"566 629 OFFCURVE",
"480 704 OFFCURVE",
"336 704 CURVE SMOOTH",
"192 704 OFFCURVE",
"85 624 OFFCURVE",
"88 494 CURVE SMOOTH",
"93 283 OFFCURVE",
"412 322 OFFCURVE",
"412 184 CURVE SMOOTH",
"412 118 OFFCURVE",
"360 85 OFFCURVE",
"280 85 CURVE SMOOTH",
"201 85 OFFCURVE",
"159 133 OFFCURVE",
"164 192 CURVE",
"51 192 LINE",
"35 65 OFFCURVE",
"140 -7 OFFCURVE",
"275 -7 CURVE SMOOTH"
);
}
);
width = 604;
},
{
anchors = (
{
name = _bottom;
position = "{242, -7}";
}
);
layerId = "2AA9BEE2-6224-4C6D-925B-2F440B8C2D06";
paths = (
{
closed = 1;
nodes = (
"209 -59 LINE",
"202 -97 LINE",
"233 -97 LINE",
"232 -104 LINE",
"226 -137 OFFCURVE",
"212 -158 OFFCURVE",
"180 -158 CURVE",
"176 -176 LINE",
"212 -176 OFFCURVE",
"244 -161 OFFCURVE",
"257 -90 CURVE",
"258 -81 OFFCURVE",
"259 -68 OFFCURVE",
"260 -59 CURVE"
);
},
{
closed = 1;
nodes = (
"359 -7 OFFCURVE",
"433 72 OFFCURVE",
"448 157 CURVE SMOOTH",
"495 432 OFFCURVE",
"74 322 OFFCURVE",
"115 557 CURVE SMOOTH",
"130 643 OFFCURVE",
"212 693 OFFCURVE",
"311 693 CURVE SMOOTH",
"432 693 OFFCURVE",
"481 613 OFFCURVE",
"479 563 CURVE",
"499 563 LINE",
"502 631 OFFCURVE",
"442 711 OFFCURVE",
"314 711 CURVE SMOOTH",
"185 711 OFFCURVE",
"109 638 OFFCURVE",
"95 557 CURVE SMOOTH",
"52 303 OFFCURVE",
"473 415 OFFCURVE",
"428 157 CURVE SMOOTH",
"413 70 OFFCURVE",
"338 11 OFFCURVE",
"232 11 CURVE SMOOTH",
"81 11 OFFCURVE",
"52 108 OFFCURVE",
"55 166 CURVE",
"35 166 LINE",
"29 77 OFFCURVE",
"88 -7 OFFCURVE",
"229 -7 CURVE SMOOTH"
);
}
);
width = 536;
}
);
unicode = 0218;
},
{
glyphname = T;
layers = (
{
anchors = (
{
name = bottom;
position = "{253, 0}";
},
{
name = top;
position = "{379, 711}";
}
);
layerId = "CB828171-4BC8-495A-B1C3-011CB1482BD7";
paths = (
{
closed = 1;
nodes = (
"54 532 LINE",
"240 532 LINE",
"146 0 LINE",
"368 0 LINE",
"462 532 LINE",
"650 532 LINE",
"681 708 LINE",
"85 708 LINE"
);
}
);
width = 616;
},
{
anchors = (
{
name = bottom;
position = "{228, 0}";
},
{
name = top;
position = "{353, 696}";
}
);
layerId = "0C75E9AD-DE1E-462B-B5DF-43688A01D7EC";
paths = (
{
closed = 1;
nodes = (
"94 606 LINE",
"280 606 LINE",
"173 0 LINE",
"287 0 LINE",
"394 606 LINE",
"579 606 LINE",
"595 695 LINE",
"110 695 LINE"
);
}
);
width = 564;
},
{
anchors = (
{
name = bottom;
position = "{185, 0}";
},
{
name = top;
position = "{309, 683}";
}
);
layerId = "2AA9BEE2-6224-4C6D-925B-2F440B8C2D06";
paths = (
{
closed = 1;
nodes = (
"93 686 LINE",
"298 686 LINE",
"177 0 LINE",
"197 0 LINE",
"318 686 LINE",
"523 686 LINE",
"527 704 LINE",
"97 704 LINE"
);
}
);
width = 470;
}
);
unicode = 0054;
},
{
glyphname = Tcaron;
layers = (
{
layerId = "CB828171-4BC8-495A-B1C3-011CB1482BD7";
paths = (
{
closed = 1;
nodes = (
"54 532 LINE",
"240 532 LINE",
"146 0 LINE",
"368 0 LINE",
"462 532 LINE",
"650 532 LINE",
"681 708 LINE",
"85 708 LINE"
);
},
{
closed = 1;
nodes = (
"409 880 LINE",
"258 968 LINE",
"233 824 LINE",
"384 739 LINE",
"564 824 LINE",
"589 968 LINE"
);
}
);
width = 616;
},
{
layerId = "0C75E9AD-DE1E-462B-B5DF-43688A01D7EC";
paths = (
{
closed = 1;
nodes = (
"94 606 LINE",
"280 606 LINE",
"173 0 LINE",
"287 0 LINE",
"394 606 LINE",
"579 606 LINE",
"595 695 LINE",
"110 695 LINE"
);
},
{
closed = 1;
nodes = (
"377 827 LINE",
"249 913 LINE",
"233 824 LINE",
"361 741 LINE",
"519 824 LINE",
"535 913 LINE"
);
}
);
width = 564;
},
{
layerId = "2AA9BEE2-6224-4C6D-925B-2F440B8C2D06";
paths = (
{
closed = 1;
nodes = (
"93 686 LINE",
"298 686 LINE",
"177 0 LINE",
"197 0 LINE",
"318 686 LINE",
"523 686 LINE",
"527 704 LINE",
"97 704 LINE"
);
},
{
closed = 1;
nodes = (
"326 780 LINE",
"216 861 LINE",
"212 841 LINE",
"322 760 LINE",
"459 841 LINE",
"463 861 LINE"
);
}
);
width = 470;
}
);
unicode = 0164;
},
{
glyphname = Tcedilla;
layers = (
{
layerId = "3EDF6DF0-3C7E-41C9-BACE-D197D96B1B4F";
name = public.background;
paths = (
{
closed = 1;
nodes = (
"10 532 LINE",
"196 532 LINE",
"196 -75 LINE",
"301 -75 LINE SMOOTH",
"317 -75 OFFCURVE",
"322 -80 OFFCURVE",
"322 -90 CURVE SMOOTH",
"322 -100 OFFCURVE",
"317 -106 OFFCURVE",
"301 -106 CURVE SMOOTH",
"151 -106 LINE",
"151 -219 LINE",
"319 -219 LINE",
"386 -219 OFFCURVE",
"469 -192 OFFCURVE",
"469 -97 CURVE",
"469 -47 OFFCURVE",
"446 -16 OFFCURVE",
"393 18 CURVE",
"418 -28 LINE",
"418 532 LINE",
"606 532 LINE",
"606 708 LINE",
"10 708 LINE"
);
}
);
width = 470;
},
{
layerId = "3EDF6DF0-3C7E-41C9-BACE-D197D96B1B4F";
name = public.background;
paths = (
{
closed = 1;
nodes = (
"39 606 LINE",
"225 606 LINE",
"225 -68 LINE",
"310 -68 LINE SMOOTH",
"344 -68 OFFCURVE",
"361 -81 OFFCURVE",
"361 -107 CURVE SMOOTH",
"361 -133 OFFCURVE",
"344 -145 OFFCURVE",
"310 -145 CURVE SMOOTH",
"166 -145 LINE",
"166 -217 LINE",
"328 -217 LINE SMOOTH",
"403 -217 OFFCURVE",
"455 -175 OFFCURVE",
"455 -107 CURVE SMOOTH",
"455 -34 OFFCURVE",
"396 4 OFFCURVE",
"311 -1 CURVE",
"339 -21 LINE",
"339 606 LINE",
"524 606 LINE",
"524 695 LINE",
"39 695 LINE"
);
}
);
width = 470;
},
{
layerId = "3EDF6DF0-3C7E-41C9-BACE-D197D96B1B4F";
name = public.background;
paths = (
{
closed = 1;
nodes = (
"20 686 LINE",
"225 686 LINE",
"225 -18 LINE",
"262 -18 LINE SMOOTH",
"329 -18 OFFCURVE",
"351 -46 OFFCURVE",
"351 -79 CURVE SMOOTH",
"351 -118 OFFCURVE",
"329 -145 OFFCURVE",
"262 -145 CURVE SMOOTH",
"202 -145 LINE",
"202 -165 LINE",
"265 -165 LINE SMOOTH",
"335 -165 OFFCURVE",
"371 -129 OFFCURVE",
"371 -79 CURVE SMOOTH",
"371 -28 OFFCURVE",
"333 5 OFFCURVE",
"235 -1 CURVE",
"245 -10 LINE",
"245 686 LINE",
"450 686 LINE",
"450 704 LINE",
"20 704 LINE"
);
}
);
width = 470;
},
{
layerId = "3EDF6DF0-3C7E-41C9-BACE-D197D96B1B4F";
name = public.background;
paths = (
{
closed = 1;
nodes = (
"10 532 LINE",
"196 532 LINE",
"196 -75 LINE",
"301 -75 LINE SMOOTH",
"317 -75 OFFCURVE",
"322 -80 OFFCURVE",
"322 -90 CURVE SMOOTH",
"322 -100 OFFCURVE",
"317 -106 OFFCURVE",
"301 -106 CURVE SMOOTH",
"151 -106 LINE",
"151 -219 LINE",
"319 -219 LINE",
"386 -219 OFFCURVE",
"469 -192 OFFCURVE",
"469 -97 CURVE",
"469 -47 OFFCURVE",
"446 -16 OFFCURVE",
"393 18 CURVE",
"418 -28 LINE",
"418 532 LINE",
"606 532 LINE",
"606 708 LINE",
"10 708 LINE"
);
}
);
width = 470;
},
{
layerId = "CB828171-4BC8-495A-B1C3-011CB1482BD7";
paths = (
{
closed = 1;
nodes = (
"54 532 LINE",
"240 532 LINE",
"146 0 LINE",
"368 0 LINE",
"462 532 LINE",
"650 532 LINE",
"681 708 LINE",
"85 708 LINE"
);
},
{
closed = 1;
nodes = (
"327 0 LINE",
"199 0 LINE",
"175 -134 LINE",
"260 -134 LINE SMOOTH",
"276 -134 OFFCURVE",
"285 -139 OFFCURVE",
"283 -149 CURVE SMOOTH",
"281 -159 OFFCURVE",
"270 -165 OFFCURVE",
"254 -165 CURVE SMOOTH",
"104 -165 LINE",
"84 -278 LINE",
"257 -278 LINE SMOOTH",
"324 -278 OFFCURVE",
"412 -251 OFFCURVE",
"429 -156 CURVE SMOOTH",
"446 -61 OFFCURVE",
"369 -34 OFFCURVE",
"321 -34 CURVE"
);
}
);
width = 616;
},
{
layerId = "3EDF6DF0-3C7E-41C9-BACE-D197D96B1B4F";
name = public.background;
paths = (
{
closed = 1;
nodes = (
"39 606 LINE",
"225 606 LINE",
"225 -68 LINE",
"310 -68 LINE SMOOTH",
"344 -68 OFFCURVE",
"361 -81 OFFCURVE",
"361 -107 CURVE SMOOTH",
"361 -133 OFFCURVE",
"344 -145 OFFCURVE",
"310 -145 CURVE SMOOTH",
"166 -145 LINE",
"166 -217 LINE",
"328 -217 LINE SMOOTH",
"403 -217 OFFCURVE",
"455 -175 OFFCURVE",
"455 -107 CURVE SMOOTH",
"455 -34 OFFCURVE",
"396 4 OFFCURVE",
"311 -1 CURVE",
"339 -21 LINE",
"339 606 LINE",
"524 606 LINE",
"524 695 LINE",
"39 695 LINE"
);
}
);
width = 470;
},
{
layerId = "0C75E9AD-DE1E-462B-B5DF-43688A01D7EC";
paths = (
{
closed = 1;
nodes = (
"94 606 LINE",
"280 606 LINE",
"173 0 LINE",
"287 0 LINE",
"394 606 LINE",
"579 606 LINE",
"595 695 LINE",
"110 695 LINE"
);
},
{
closed = 1;
nodes = (
"271 7 LINE",
"196 7 LINE",
"174 -116 LINE",
"229 -116 LINE SMOOTH",
"264 -116 OFFCURVE",
"284 -123 OFFCURVE",
"278 -153 CURVE",
"273 -183 OFFCURVE",
"251 -190 OFFCURVE",
"216 -190 CURVE SMOOTH",
"107 -190 LINE",
"94 -262 LINE",
"226 -262 LINE SMOOTH",
"297 -262 OFFCURVE",
"360 -221 OFFCURVE",
"372 -153 CURVE SMOOTH",
"385 -84 OFFCURVE",
"335 -48 OFFCURVE",
"261 -48 CURVE"
);
}
);
width = 564;
},
{
layerId = "3EDF6DF0-3C7E-41C9-BACE-D197D96B1B4F";
name = public.background;
paths = (
{
closed = 1;
nodes = (
"20 686 LINE",
"225 686 LINE",
"225 -18 LINE",
"262 -18 LINE SMOOTH",
"329 -18 OFFCURVE",
"351 -46 OFFCURVE",
"351 -79 CURVE SMOOTH",
"351 -118 OFFCURVE",
"329 -145 OFFCURVE",
"262 -145 CURVE SMOOTH",
"202 -145 LINE",
"202 -165 LINE",
"265 -165 LINE SMOOTH",
"335 -165 OFFCURVE",
"371 -129 OFFCURVE",
"371 -79 CURVE SMOOTH",
"371 -28 OFFCURVE",
"333 5 OFFCURVE",
"235 -1 CURVE",
"245 -10 LINE",
"245 686 LINE",
"450 686 LINE",
"450 704 LINE",
"20 704 LINE"
);
}
);
width = 470;
},
{
layerId = "2AA9BEE2-6224-4C6D-925B-2F440B8C2D06";
paths = (
{
closed = 1;
nodes = (
"93 686 LINE",
"298 686 LINE",
"177 0 LINE",
"197 0 LINE",
"318 686 LINE",
"523 686 LINE",
"527 704 LINE",
"97 704 LINE"
);
},
{
closed = 1;
nodes = (
"199 7 LINE",
"179 7 LINE",
"159 -107 LINE",
"196 -107 LINE SMOOTH",
"263 -107 OFFCURVE",
"280 -135 OFFCURVE",
"274 -168 CURVE SMOOTH",
"267 -207 OFFCURVE",
"240 -234 OFFCURVE",
"173 -234 CURVE SMOOTH",
"113 -234 LINE",
"110 -254 LINE",
"173 -254 LINE SMOOTH",
"243 -254 OFFCURVE",
"285 -218 OFFCURVE",
"294 -168 CURVE SMOOTH",
"303 -114 OFFCURVE",
"266 -84 OFFCURVE",
"182 -89 CURVE"
);
}
);
width = 470;
}
);
unicode = 0162;
},
{
glyphname = Tcommaaccent;
layers = (
{
layerId = "CB828171-4BC8-495A-B1C3-011CB1482BD7";
paths = (
{
closed = 1;
nodes = (
"173 -35 LINE",
"147 -182 LINE",
"219 -182 LINE",
"217 -193 LINE SMOOTH",
"208 -245 OFFCURVE",
"183 -268 OFFCURVE",
"149 -268 CURVE",
"135 -346 LINE",
"248 -346 OFFCURVE",
"313 -266 OFFCURVE",
"330 -170 CURVE SMOOTH",
"338 -128 OFFCURVE",
"339 -82 OFFCURVE",
"329 -35 CURVE"
);
},
{
closed = 1;
nodes = (
"54 532 LINE",
"240 532 LINE",
"146 0 LINE",
"368 0 LINE",
"462 532 LINE",
"650 532 LINE",
"681 708 LINE",
"85 708 LINE"
);
}
);
width = 616;
},
{
layerId = "0C75E9AD-DE1E-462B-B5DF-43688A01D7EC";
paths = (
{
closed = 1;
nodes = (
"168 -46 LINE",
"151 -142 LINE",
"204 -142 LINE",
"201 -163 LINE",
"194 -201 OFFCURVE",
"175 -220 OFFCURVE",
"142 -220 CURVE",
"133 -270 LINE",
"207 -270 OFFCURVE",
"252 -228 OFFCURVE",
"267 -145 CURVE SMOOTH",
"272 -116 OFFCURVE",
"274 -83 OFFCURVE",
"271 -46 CURVE"
);
},
{
closed = 1;
nodes = (
"94 606 LINE",
"280 606 LINE",
"173 0 LINE",
"287 0 LINE",
"394 606 LINE",
"579 606 LINE",
"595 695 LINE",
"110 695 LINE"
);
}
);
width = 564;
},
{
layerId = "2AA9BEE2-6224-4C6D-925B-2F440B8C2D06";
paths = (
{
closed = 1;
nodes = (
"149 -59 LINE",
"142 -97 LINE",
"173 -97 LINE",
"172 -104 LINE",
"166 -137 OFFCURVE",
"152 -158 OFFCURVE",
"120 -158 CURVE",
"116 -176 LINE",
"152 -176 OFFCURVE",
"184 -161 OFFCURVE",
"197 -90 CURVE",
"198 -81 OFFCURVE",
"199 -68 OFFCURVE",
"200 -59 CURVE"
);
},
{
closed = 1;
nodes = (
"93 686 LINE",
"298 686 LINE",
"177 0 LINE",
"197 0 LINE",
"318 686 LINE",
"523 686 LINE",
"527 704 LINE",
"97 704 LINE"
);
}
);
width = 470;
}
);
unicode = 021A;
},
{
glyphname = U;
layers = (
{
anchors = (
{
name = ogonek;
position = "{400, 3}";
},
{
name = top;
position = "{436, 711}";
}
);
layerId = "CB828171-4BC8-495A-B1C3-011CB1482BD7";
paths = (
{
closed = 1;
nodes = (
"51 309 LINE SMOOTH",
"14 100 OFFCURVE",
"128 -7 OFFCURVE",
"305 -7 CURVE SMOOTH",
"487 -7 OFFCURVE",
"640 94 OFFCURVE",
"678 309 CURVE SMOOTH",
"748 708 LINE",
"527 708 LINE",
"457 309 LINE SMOOTH",
"446 248 OFFCURVE",
"411 203 OFFCURVE",
"344 203 CURVE SMOOTH",
"277 203 OFFCURVE",
"261 248 OFFCURVE",
"272 309 CURVE SMOOTH",
"342 708 LINE",
"121 708 LINE"
);
}
);
width = 719;
},
{
anchors = (
{
name = ogonek;
position = "{366, 0}";
},
{
name = top;
position = "{416, 696}";
}
);
layerId = "0C75E9AD-DE1E-462B-B5DF-43688A01D7EC";
paths = (
{
closed = 1;
nodes = (
"67 254 LINE SMOOTH",
"36 77 OFFCURVE",
"145 -7 OFFCURVE",
"291 -7 CURVE SMOOTH",
"436 -7 OFFCURVE",
"579 77 OFFCURVE",
"610 254 CURVE SMOOTH",
"688 695 LINE",
"574 695 LINE",
"496 254 LINE SMOOTH",
"477 146 OFFCURVE",
"407 95 OFFCURVE",
"310 95 CURVE SMOOTH",
"214 95 OFFCURVE",
"162 146 OFFCURVE",
"181 254 CURVE SMOOTH",
"259 695 LINE",
"145 695 LINE"
);
}
);
width = 690;
},
{
anchors = (
{
name = ogonek;
position = "{330, 0}";
},
{
name = top;
position = "{387, 683}";
}
);
layerId = "2AA9BEE2-6224-4C6D-925B-2F440B8C2D06";
paths = (
{
closed = 1;
nodes = (
"79 267 LINE SMOOTH",
"45 73 OFFCURVE",
"130 -7 OFFCURVE",
"268 -7 CURVE SMOOTH",
"406 -7 OFFCURVE",
"514 73 OFFCURVE",
"548 267 CURVE SMOOTH",
"626 704 LINE",
"606 704 LINE",
"528 267 LINE SMOOTH",
"495 79 OFFCURVE",
"393 11 OFFCURVE",
"271 11 CURVE SMOOTH",
"147 11 OFFCURVE",
"66 79 OFFCURVE",
"99 267 CURVE SMOOTH",
"177 704 LINE",
"157 704 LINE"
);
}
);
width = 629;
}
);
unicode = 0055;
},
